{"glyphs":{"0":{"ha":853,"x_min":63,"x_max":790,"o":"m 426 -15 q 160 115 258 -15 q 63 489 63 246 q 160 863 63 733 q 426 993 258 993 q 692 863 594 993 q 790 489 790 733 q 692 115 790 246 q 426 -15 594 -15 m 426 93 q 609 195 546 93 q 672 489 672 297 q 609 783 672 681 q 426 885 546 885 q 244 783 307 885 q 181 489 181 681 q 244 195 181 297 q 426 93 307 93 z "},"1":{"ha":510,"x_min":21,"x_max":396,"o":"m 282 0 l 282 786 q 238 729 271 760 q 155 674 204 699 q 44 639 106 649 l 21 753 q 187 824 117 772 q 296 978 257 876 l 396 978 l 396 0 l 282 0 z "},"2":{"ha":761,"x_min":43,"x_max":740,"o":"m 63 0 l 63 94 l 358 350 q 486 475 439 419 q 554 583 533 531 q 575 693 575 635 q 523 831 575 778 q 378 885 471 885 q 210 819 268 885 q 168 624 153 754 l 54 657 q 81 833 43 757 q 197 951 118 908 q 389 993 276 993 q 617 910 538 993 q 696 694 696 826 q 637 498 696 586 q 496 336 578 410 l 242 106 l 740 106 l 740 0 l 63 0 z "},"3":{"ha":801,"x_min":26,"x_max":746,"o":"m 400 -15 q 159 51 256 -15 q 26 233 63 118 l 143 292 q 190 191 158 236 q 275 119 221 146 q 410 93 329 93 q 570 145 513 93 q 628 279 628 197 q 413 439 628 439 q 297 435 363 439 l 297 547 l 389 547 q 608 715 608 547 q 556 840 608 794 q 417 885 504 885 q 255 835 310 885 q 185 681 200 785 l 65 733 q 183 925 90 856 q 418 994 275 994 q 644 921 563 994 q 726 725 726 847 q 701 615 726 664 q 633 535 675 565 q 540 497 590 504 l 540 493 q 650 461 604 492 q 721 383 696 431 q 746 279 746 335 q 702 126 746 193 q 581 22 658 60 q 400 -15 503 -15 z "},"4":{"ha":840,"x_min":33,"x_max":801,"o":"m 513 0 l 513 258 l 33 258 l 33 378 l 482 978 l 626 978 l 626 364 l 801 364 l 801 258 l 626 258 l 626 0 l 513 0 m 151 364 l 513 364 l 513 850 l 151 364 z "},"5":{"ha":792,"x_min":39,"x_max":749,"o":"m 407 -17 q 171 51 258 -17 q 39 233 83 119 l 157 293 q 246 145 183 199 q 408 92 308 92 q 522 119 471 92 q 602 198 572 147 q 632 319 632 249 q 575 474 632 415 q 411 532 518 532 q 284 500 339 532 q 196 419 229 468 l 86 440 l 144 978 l 683 978 l 683 872 l 247 872 l 211 550 q 301 610 243 586 q 439 633 360 633 q 597 597 528 633 q 708 492 667 561 q 749 319 749 422 q 703 144 749 219 q 581 26 658 68 q 407 -17 504 -17 z "},"6":{"ha":831,"x_min":63,"x_max":772,"o":"m 442 -17 q 232 48 317 -17 q 105 227 147 113 q 63 489 63 342 q 167 864 63 735 q 456 993 271 993 q 635 948 554 993 q 760 792 715 903 l 650 735 q 576 844 628 803 q 449 885 525 885 q 288 828 349 885 q 201 678 228 772 q 174 469 174 585 q 174 456 174 464 q 175 432 174 447 q 281 570 203 518 q 463 622 358 622 q 613 586 542 622 q 728 481 683 550 q 772 310 772 411 q 730 136 772 210 q 613 23 688 63 q 442 -17 539 -17 m 442 92 q 597 153 540 92 q 654 311 654 215 q 625 422 654 375 q 549 493 596 468 q 446 518 501 518 q 283 458 340 518 q 225 306 225 397 q 250 200 225 249 q 323 122 275 151 q 442 92 371 92 z "},"7":{"ha":768,"x_min":28,"x_max":747,"o":"m 28 978 l 747 978 l 747 883 q 548 650 628 775 q 429 367 468 525 q 390 0 390 208 l 257 0 q 276 249 253 124 q 349 492 300 375 q 467 706 397 608 q 626 872 538 804 l 28 872 l 28 978 z "},"8":{"ha":844,"x_min":60,"x_max":786,"o":"m 422 -15 q 156 63 253 -15 q 60 269 60 142 q 112 432 60 367 q 244 524 164 497 l 244 525 q 151 601 190 547 q 111 736 111 656 q 150 870 111 813 q 259 960 189 928 q 422 992 329 992 q 585 960 515 992 q 694 870 656 928 q 733 736 733 813 q 693 601 733 656 q 600 525 653 547 l 600 524 q 734 432 682 497 q 786 269 786 367 q 689 63 786 142 q 422 -15 592 -15 m 422 579 q 563 620 510 579 q 617 732 617 661 q 565 846 617 804 q 422 888 513 888 q 280 846 333 888 q 226 732 226 804 q 281 620 226 661 q 422 579 335 579 m 422 90 q 553 116 497 90 q 639 185 608 142 q 669 282 669 229 q 601 421 669 368 q 422 474 533 474 q 244 421 311 474 q 176 282 176 368 q 242 146 176 201 q 422 90 308 90 z "},"9":{"ha":844,"x_min":68,"x_max":782,"o":"m 407 -15 q 197 42 285 -15 q 68 206 108 99 l 179 265 q 259 141 203 189 q 410 93 315 93 q 569 147 513 93 q 649 299 626 201 q 672 524 672 396 q 672 540 672 531 q 671 563 672 549 q 618 462 658 506 q 519 393 578 418 q 390 368 460 368 q 224 409 296 368 q 111 520 151 450 q 71 678 71 590 q 114 844 71 774 q 233 954 157 915 q 408 993 308 993 q 613 930 531 993 q 739 753 696 867 q 782 489 782 639 q 685 115 782 244 q 407 -15 588 -15 m 407 472 q 519 500 471 472 q 594 574 567 528 q 621 676 621 621 q 562 828 621 771 q 407 885 503 885 q 247 829 306 885 q 189 676 189 774 q 215 576 189 622 q 290 501 242 529 q 407 472 339 472 z "},"A":{"ha":915,"x_min":8,"x_max":907,"o":"m 782 0 l 675 275 l 235 275 l 128 0 l 8 0 l 390 978 l 526 978 l 907 0 l 782 0 m 271 382 l 635 382 l 453 856 l 271 382 z "},"Á":{"ha":915,"x_min":8,"x_max":907,"o":"m 489 1314 l 606 1314 l 486 1093 l 397 1093 l 489 1314 m 782 0 l 675 275 l 235 275 l 128 0 l 8 0 l 390 978 l 526 978 l 907 0 l 782 0 m 271 382 l 635 382 l 453 856 l 271 382 z "},"Ă":{"ha":915,"x_min":8,"x_max":907,"o":"m 665 1290 q 608 1142 665 1199 q 460 1085 551 1085 q 311 1142 368 1085 q 254 1290 254 1199 l 344 1290 q 375 1205 346 1242 q 460 1168 404 1168 q 545 1205 517 1168 q 575 1290 574 1242 l 665 1290 m 782 0 l 675 275 l 235 275 l 128 0 l 8 0 l 390 978 l 526 978 l 907 0 l 782 0 m 271 382 l 635 382 l 453 856 l 271 382 z "},"Â":{"ha":915,"x_min":8,"x_max":907,"o":"m 671 1093 l 568 1093 l 457 1242 l 346 1093 l 243 1093 l 396 1314 l 518 1314 l 671 1093 m 782 0 l 675 275 l 235 275 l 128 0 l 8 0 l 390 978 l 526 978 l 907 0 l 782 0 m 271 382 l 635 382 l 453 856 l 271 382 z "},"Ä":{"ha":915,"x_min":8,"x_max":907,"o":"m 782 0 l 675 275 l 235 275 l 128 0 l 8 0 l 390 978 l 526 978 l 907 0 l 782 0 m 271 382 l 635 382 l 453 856 l 271 382 m 322 1250 q 380 1228 358 1250 q 401 1171 401 1207 q 380 1114 401 1136 q 322 1092 358 1092 q 265 1114 288 1092 q 243 1171 243 1136 q 265 1228 243 1207 q 322 1250 288 1250 m 592 1250 q 649 1228 628 1250 q 671 1171 671 1207 q 649 1114 671 1136 q 592 1092 628 1092 q 535 1114 557 1092 q 513 1171 513 1136 q 535 1228 513 1207 q 592 1250 557 1250 z "},"À":{"ha":915,"x_min":8,"x_max":907,"o":"m 425 1314 l 517 1093 l 428 1093 l 308 1314 l 425 1314 m 782 0 l 675 275 l 235 275 l 128 0 l 8 0 l 390 978 l 526 978 l 907 0 l 782 0 m 271 382 l 635 382 l 453 856 l 271 382 z "},"Ā":{"ha":915,"x_min":8,"x_max":907,"o":"m 782 0 l 675 275 l 235 275 l 128 0 l 8 0 l 390 978 l 526 978 l 907 0 l 782 0 m 271 382 l 635 382 l 453 856 l 271 382 m 685 1204 l 685 1111 l 229 1111 l 229 1204 l 685 1204 z "},"Ą":{"ha":915,"x_min":8,"x_max":911,"o":"m 782 0 l 675 275 l 235 275 l 128 0 l 8 0 l 390 978 l 526 978 l 907 0 l 782 0 m 271 382 l 635 382 l 453 856 l 271 382 m 808 -321 q 687 -281 729 -321 q 644 -178 644 -242 q 694 -54 644 -100 q 846 29 743 -8 l 907 0 q 793 -55 831 -28 q 744 -109 756 -82 q 732 -165 732 -136 q 756 -221 732 -201 q 818 -240 779 -240 q 894 -225 860 -240 l 911 -299 q 865 -315 893 -308 q 808 -321 838 -321 z "},"Å":{"ha":915,"x_min":8,"x_max":907,"o":"m 782 0 l 675 275 l 235 275 l 128 0 l 8 0 l 390 978 l 526 978 l 907 0 l 782 0 m 271 382 l 635 382 l 453 856 l 271 382 m 453 1411 q 578 1366 531 1411 q 626 1247 626 1321 q 578 1128 626 1174 q 453 1082 531 1082 q 326 1128 375 1082 q 278 1247 278 1174 q 326 1366 278 1321 q 453 1411 375 1411 m 453 1343 q 382 1316 410 1343 q 354 1247 354 1289 q 382 1178 354 1206 q 453 1151 410 1151 q 524 1178 496 1151 q 551 1247 551 1206 q 524 1316 551 1289 q 453 1343 496 1343 z "},"Ã":{"ha":915,"x_min":8,"x_max":907,"o":"m 782 0 l 675 275 l 235 275 l 128 0 l 8 0 l 390 978 l 526 978 l 907 0 l 782 0 m 271 382 l 635 382 l 453 856 l 271 382 m 707 1279 q 551 1093 692 1093 q 485 1108 513 1093 q 439 1140 458 1122 q 401 1173 419 1158 q 360 1188 382 1188 q 314 1162 329 1188 q 292 1092 299 1136 l 204 1092 q 249 1231 211 1183 q 361 1278 288 1278 q 426 1263 399 1278 q 473 1231 453 1249 q 511 1198 493 1213 q 550 1183 529 1183 q 597 1209 582 1183 q 619 1279 613 1235 l 707 1279 z "},"Æ":{"ha":1375,"x_min":-10,"x_max":1328,"o":"m -10 0 l 592 978 l 1304 978 l 1304 871 l 776 871 l 776 547 l 1181 547 l 1181 443 l 776 443 l 776 107 l 1328 107 l 1328 0 l 661 0 l 661 319 l 321 319 l 126 0 l -10 0 m 661 875 l 658 875 l 386 426 l 661 426 l 661 875 z "},"B":{"ha":883,"x_min":122,"x_max":831,"o":"m 122 0 l 122 978 l 474 978 q 725 906 644 978 q 806 710 806 835 q 762 574 806 633 q 639 499 718 514 l 639 497 q 778 417 726 479 q 831 274 831 354 q 744 74 831 149 q 485 0 658 0 l 122 0 m 238 546 l 475 546 q 685 708 685 546 q 475 872 685 872 l 238 872 l 238 546 m 238 106 l 482 106 q 655 150 599 106 q 711 275 711 194 q 658 396 711 353 q 497 439 604 439 l 238 439 l 238 106 z "},"C":{"ha":951,"x_min":67,"x_max":922,"o":"m 922 258 q 769 57 875 129 q 522 -15 664 -15 q 281 47 383 -15 q 123 222 179 108 q 67 489 67 335 q 123 757 67 644 q 281 931 179 869 q 517 993 382 993 q 760 931 661 993 q 906 758 858 869 l 792 706 q 692 838 757 792 q 525 885 628 885 q 349 839 425 885 q 229 705 272 793 q 186 489 186 617 q 277 199 186 304 q 522 93 368 93 q 697 146 624 93 q 804 301 771 199 l 922 258 z "},"Ć":{"ha":951,"x_min":67,"x_max":922,"o":"m 547 1314 l 664 1314 l 544 1093 l 456 1093 l 547 1314 m 922 258 q 769 57 875 129 q 522 -15 664 -15 q 281 47 383 -15 q 123 222 179 108 q 67 489 67 335 q 123 757 67 644 q 281 931 179 869 q 517 993 382 993 q 760 931 661 993 q 906 758 858 869 l 792 706 q 692 838 757 792 q 525 885 628 885 q 349 839 425 885 q 229 705 272 793 q 186 489 186 617 q 277 199 186 304 q 522 93 368 93 q 697 146 624 93 q 804 301 771 199 l 922 258 z "},"Č":{"ha":951,"x_min":67,"x_max":922,"o":"m 729 1314 l 576 1093 l 454 1093 l 301 1314 l 404 1314 l 515 1165 l 626 1314 l 729 1314 m 922 258 q 769 57 875 129 q 522 -15 664 -15 q 281 47 383 -15 q 123 222 179 108 q 67 489 67 335 q 123 757 67 644 q 281 931 179 869 q 517 993 382 993 q 760 931 661 993 q 906 758 858 869 l 792 706 q 692 838 757 792 q 525 885 628 885 q 349 839 425 885 q 229 705 272 793 q 186 489 186 617 q 277 199 186 304 q 522 93 368 93 q 697 146 624 93 q 804 301 771 199 l 922 258 z "},"Ç":{"ha":951,"x_min":67,"x_max":922,"o":"m 922 258 q 769 57 875 129 q 522 -15 664 -15 q 281 47 383 -15 q 123 222 179 108 q 67 489 67 335 q 123 757 67 644 q 281 931 179 869 q 517 993 382 993 q 760 931 661 993 q 906 758 858 869 l 792 706 q 692 838 757 792 q 525 885 628 885 q 349 839 425 885 q 229 705 272 793 q 186 489 186 617 q 277 199 186 304 q 522 93 368 93 q 697 146 624 93 q 804 301 771 199 l 922 258 m 438 6 l 496 40 q 613 -31 578 14 q 647 -137 647 -76 q 600 -251 647 -204 q 479 -299 553 -299 q 403 -287 436 -299 q 347 -258 371 -276 l 374 -178 q 415 -200 393 -190 q 467 -210 436 -210 q 531 -185 506 -210 q 556 -112 556 -160 q 529 -50 556 -76 q 438 6 503 -24 z "},"D":{"ha":999,"x_min":122,"x_max":932,"o":"m 440 978 q 801 852 671 978 q 932 490 932 726 q 873 223 932 332 q 703 57 814 114 q 440 0 593 0 l 122 0 l 122 978 l 440 978 m 449 107 q 715 208 621 107 q 810 490 810 310 q 715 770 810 669 q 449 871 621 871 l 238 871 l 238 107 l 449 107 z "},"Ð":{"ha":1040,"x_min":0,"x_max":974,"o":"m 482 978 q 843 852 713 978 q 974 490 974 726 q 915 223 974 332 q 745 57 856 114 q 482 0 635 0 l 164 0 l 164 436 l 0 436 l 0 540 l 164 540 l 164 978 l 482 978 m 490 107 q 757 208 663 107 q 851 490 851 310 q 757 770 851 669 q 490 871 663 871 l 279 871 l 279 540 l 551 540 l 551 436 l 279 436 l 279 107 l 490 107 z "},"Ď":{"ha":999,"x_min":122,"x_max":932,"o":"m 714 1314 l 561 1093 l 439 1093 l 286 1314 l 389 1314 l 500 1165 l 611 1314 l 714 1314 m 440 978 q 801 852 671 978 q 932 490 932 726 q 873 223 932 332 q 703 57 814 114 q 440 0 593 0 l 122 0 l 122 978 l 440 978 m 449 107 q 715 208 621 107 q 810 490 810 310 q 715 770 810 669 q 449 871 621 871 l 238 871 l 238 107 l 449 107 z "},"Đ":{"ha":1040,"x_min":0,"x_max":974,"o":"m 482 978 q 843 852 713 978 q 974 490 974 726 q 915 223 974 332 q 745 57 856 114 q 482 0 635 0 l 164 0 l 164 436 l 0 436 l 0 540 l 164 540 l 164 978 l 482 978 m 490 107 q 757 208 663 107 q 851 490 851 310 q 757 770 851 669 q 490 871 663 871 l 279 871 l 279 540 l 551 540 l 551 436 l 279 436 l 279 107 l 490 107 z "},"E":{"ha":878,"x_min":122,"x_max":831,"o":"m 122 0 l 122 978 l 810 978 l 810 871 l 238 871 l 238 549 l 683 549 l 683 443 l 238 443 l 238 107 l 831 107 l 831 0 l 122 0 z "},"É":{"ha":878,"x_min":122,"x_max":831,"o":"m 499 1314 l 615 1314 l 496 1093 l 407 1093 l 499 1314 m 122 0 l 122 978 l 810 978 l 810 871 l 238 871 l 238 549 l 683 549 l 683 443 l 238 443 l 238 107 l 831 107 l 831 0 l 122 0 z "},"Ě":{"ha":878,"x_min":122,"x_max":831,"o":"m 681 1314 l 528 1093 l 406 1093 l 253 1314 l 356 1314 l 467 1165 l 578 1314 l 681 1314 m 122 0 l 122 978 l 810 978 l 810 871 l 238 871 l 238 549 l 683 549 l 683 443 l 238 443 l 238 107 l 831 107 l 831 0 l 122 0 z "},"Ê":{"ha":878,"x_min":122,"x_max":831,"o":"m 681 1093 l 578 1093 l 467 1242 l 356 1093 l 253 1093 l 406 1314 l 528 1314 l 681 1093 m 122 0 l 122 978 l 810 978 l 810 871 l 238 871 l 238 549 l 683 549 l 683 443 l 238 443 l 238 107 l 831 107 l 831 0 l 122 0 z "},"Ë":{"ha":878,"x_min":122,"x_max":831,"o":"m 122 0 l 122 978 l 810 978 l 810 871 l 238 871 l 238 549 l 683 549 l 683 443 l 238 443 l 238 107 l 831 107 l 831 0 l 122 0 m 332 1250 q 390 1228 368 1250 q 411 1171 411 1207 q 390 1114 411 1136 q 332 1092 368 1092 q 275 1114 297 1092 q 253 1171 253 1136 q 275 1228 253 1207 q 332 1250 297 1250 m 601 1250 q 659 1228 638 1250 q 681 1171 681 1207 q 659 1114 681 1136 q 601 1092 638 1092 q 544 1114 567 1092 q 522 1171 522 1136 q 544 1228 522 1207 q 601 1250 567 1250 z "},"Ė":{"ha":878,"x_min":122,"x_max":831,"o":"m 122 0 l 122 978 l 810 978 l 810 871 l 238 871 l 238 549 l 683 549 l 683 443 l 238 443 l 238 107 l 831 107 l 831 0 l 122 0 m 467 1272 q 527 1249 504 1272 q 550 1189 550 1226 q 527 1128 550 1151 q 467 1106 504 1106 q 406 1128 429 1106 q 383 1189 383 1151 q 406 1249 383 1226 q 467 1272 429 1272 z "},"È":{"ha":878,"x_min":122,"x_max":831,"o":"m 435 1314 l 526 1093 l 438 1093 l 318 1314 l 435 1314 m 122 0 l 122 978 l 810 978 l 810 871 l 238 871 l 238 549 l 683 549 l 683 443 l 238 443 l 238 107 l 831 107 l 831 0 l 122 0 z "},"Ē":{"ha":878,"x_min":122,"x_max":831,"o":"m 122 0 l 122 978 l 810 978 l 810 871 l 238 871 l 238 549 l 683 549 l 683 443 l 238 443 l 238 107 l 831 107 l 831 0 l 122 0 m 694 1204 l 694 1111 l 239 1111 l 239 1204 l 694 1204 z "},"Ę":{"ha":878,"x_min":122,"x_max":835,"o":"m 122 0 l 122 978 l 810 978 l 810 871 l 238 871 l 238 549 l 683 549 l 683 443 l 238 443 l 238 107 l 831 107 l 831 0 l 122 0 m 732 -321 q 610 -281 653 -321 q 568 -178 568 -242 q 617 -54 568 -100 q 769 29 667 -8 l 831 0 q 717 -55 754 -28 q 667 -109 679 -82 q 656 -165 656 -136 q 679 -221 656 -201 q 742 -240 703 -240 q 818 -225 783 -240 l 835 -299 q 789 -315 817 -308 q 732 -321 761 -321 z "},"F":{"ha":843,"x_min":122,"x_max":807,"o":"m 807 871 l 238 871 l 238 547 l 683 547 l 683 442 l 238 442 l 238 0 l 122 0 l 122 978 l 807 978 l 807 871 z "},"G":{"ha":1001,"x_min":67,"x_max":949,"o":"m 522 -15 q 281 47 383 -15 q 123 223 179 110 q 67 489 67 336 q 124 756 67 643 q 288 931 182 869 q 538 993 393 993 q 763 940 665 993 q 924 751 861 888 l 807 703 q 701 840 775 796 q 542 885 628 885 q 278 778 369 885 q 186 489 186 672 q 276 200 186 307 q 533 93 367 93 q 678 119 619 93 q 772 189 736 146 q 823 283 807 232 q 839 381 839 333 l 839 404 l 492 404 l 492 510 l 949 510 l 949 407 q 899 188 949 283 q 755 38 850 92 q 522 -15 660 -15 z "},"Ğ":{"ha":1001,"x_min":67,"x_max":949,"o":"m 725 1290 q 668 1142 725 1199 q 519 1085 611 1085 q 371 1142 428 1085 q 314 1290 314 1199 l 404 1290 q 435 1205 406 1242 q 519 1168 464 1168 q 605 1205 576 1168 q 635 1290 633 1242 l 725 1290 m 522 -15 q 281 47 383 -15 q 123 223 179 110 q 67 489 67 336 q 124 756 67 643 q 288 931 182 869 q 538 993 393 993 q 763 940 665 993 q 924 751 861 888 l 807 703 q 701 840 775 796 q 542 885 628 885 q 278 778 369 885 q 186 489 186 672 q 276 200 186 307 q 533 93 367 93 q 678 119 619 93 q 772 189 736 146 q 823 283 807 232 q 839 381 839 333 l 839 404 l 492 404 l 492 510 l 949 510 l 949 407 q 899 188 949 283 q 755 38 850 92 q 522 -15 660 -15 z "},"Ģ":{"ha":1001,"x_min":67,"x_max":949,"o":"m 522 -15 q 281 47 383 -15 q 123 223 179 110 q 67 489 67 336 q 124 756 67 643 q 288 931 182 869 q 538 993 393 993 q 763 940 665 993 q 924 751 861 888 l 807 703 q 701 840 775 796 q 542 885 628 885 q 278 778 369 885 q 186 489 186 672 q 276 200 186 307 q 533 93 367 93 q 678 119 619 93 q 772 189 736 146 q 823 283 807 232 q 839 381 839 333 l 839 404 l 492 404 l 492 510 l 949 510 l 949 407 q 899 188 949 283 q 755 38 850 92 q 522 -15 660 -15 m 610 -106 l 519 -329 l 432 -329 l 493 -106 l 610 -106 z "},"H":{"ha":1013,"x_min":122,"x_max":890,"o":"m 238 978 l 238 549 l 775 549 l 775 978 l 890 978 l 890 0 l 775 0 l 775 443 l 238 443 l 238 0 l 122 0 l 122 978 l 238 978 z "},"I":{"ha":360,"x_min":122,"x_max":238,"o":"m 238 978 l 238 0 l 122 0 l 122 978 l 238 978 z "},"Í":{"ha":360,"x_min":121,"x_max":329,"o":"m 213 1314 l 329 1314 l 210 1093 l 121 1093 l 213 1314 m 238 978 l 238 0 l 122 0 l 122 978 l 238 978 z "},"Î":{"ha":360,"x_min":-33,"x_max":394,"o":"m 394 1093 l 292 1093 l 181 1242 l 69 1093 l -33 1093 l 119 1314 l 242 1314 l 394 1093 m 238 978 l 238 0 l 122 0 l 122 978 l 238 978 z "},"Ï":{"ha":360,"x_min":-33,"x_max":394,"o":"m 238 978 l 238 0 l 122 0 l 122 978 l 238 978 m 46 1250 q 103 1228 82 1250 q 125 1171 125 1207 q 103 1114 125 1136 q 46 1092 82 1092 q -11 1114 11 1092 q -33 1171 -33 1136 q -11 1228 -33 1207 q 46 1250 11 1250 m 315 1250 q 373 1228 351 1250 q 394 1171 394 1207 q 373 1114 394 1136 q 315 1092 351 1092 q 258 1114 281 1092 q 236 1171 236 1136 q 258 1228 236 1207 q 315 1250 281 1250 z "},"İ":{"ha":360,"x_min":97,"x_max":264,"o":"m 238 978 l 238 0 l 122 0 l 122 978 l 238 978 m 181 1272 q 241 1249 218 1272 q 264 1189 264 1226 q 241 1128 264 1151 q 181 1106 218 1106 q 120 1128 143 1106 q 97 1189 97 1151 q 120 1249 97 1226 q 181 1272 143 1272 z "},"Ì":{"ha":360,"x_min":32,"x_max":240,"o":"m 149 1314 l 240 1093 l 151 1093 l 32 1314 l 149 1314 m 238 978 l 238 0 l 122 0 l 122 978 l 238 978 z "},"Ī":{"ha":360,"x_min":-47,"x_max":408,"o":"m 238 978 l 238 0 l 122 0 l 122 978 l 238 978 m 408 1204 l 408 1111 l -47 1111 l -47 1204 l 408 1204 z "},"Į":{"ha":360,"x_min":-25,"x_max":242,"o":"m 238 978 l 238 0 l 122 0 l 122 978 l 238 978 m 139 -321 q 17 -281 60 -321 q -25 -178 -25 -242 q 24 -54 -25 -100 q 176 29 74 -8 l 238 0 q 124 -55 161 -28 q 74 -109 86 -82 q 63 -165 63 -136 q 86 -221 63 -201 q 149 -240 110 -240 q 225 -225 190 -240 l 242 -299 q 196 -315 224 -308 q 139 -321 168 -321 z "},"J":{"ha":760,"x_min":19,"x_max":656,"o":"m 656 978 l 656 335 q 568 78 656 171 q 326 -15 481 -15 q 146 27 217 -15 q 47 146 75 69 q 38 322 19 222 l 147 346 q 171 159 129 225 q 322 93 213 93 q 440 116 396 93 q 505 178 483 139 q 534 265 526 217 q 542 361 542 313 l 542 978 l 656 978 z "},"K":{"ha":879,"x_min":122,"x_max":889,"o":"m 238 978 l 238 460 l 717 978 l 860 978 l 494 582 l 889 0 l 749 0 l 414 499 l 238 310 l 238 0 l 122 0 l 122 978 l 238 978 z "},"Ķ":{"ha":879,"x_min":122,"x_max":889,"o":"m 238 978 l 238 460 l 717 978 l 860 978 l 494 582 l 889 0 l 749 0 l 414 499 l 238 310 l 238 0 l 122 0 l 122 978 l 238 978 m 564 -106 l 474 -329 l 386 -329 l 447 -106 l 564 -106 z "},"L":{"ha":828,"x_min":122,"x_max":800,"o":"m 238 107 l 800 107 l 800 0 l 122 0 l 122 978 l 238 978 l 238 107 z "},"Ĺ":{"ha":828,"x_min":121,"x_max":800,"o":"m 213 1314 l 329 1314 l 210 1093 l 121 1093 l 213 1314 m 238 107 l 800 107 l 800 0 l 122 0 l 122 978 l 238 978 l 238 107 z "},"Ľ":{"ha":828,"x_min":122,"x_max":800,"o":"m 563 978 l 506 704 l 414 704 l 442 978 l 563 978 m 238 107 l 800 107 l 800 0 l 122 0 l 122 978 l 238 978 l 238 107 z "},"Ļ":{"ha":828,"x_min":122,"x_max":800,"o":"m 238 107 l 800 107 l 800 0 l 122 0 l 122 978 l 238 978 l 238 107 m 547 -106 l 457 -329 l 369 -329 l 431 -106 l 547 -106 z "},"Ł":{"ha":869,"x_min":4,"x_max":842,"o":"m 279 107 l 842 107 l 842 0 l 164 0 l 164 353 l 4 258 l 4 369 l 164 464 l 164 978 l 279 978 l 279 532 l 549 692 l 549 581 l 279 421 l 279 107 z "},"M":{"ha":1190,"x_min":122,"x_max":1068,"o":"m 122 0 l 122 978 l 306 978 l 603 153 l 888 978 l 1068 978 l 1068 0 l 953 0 l 953 833 l 658 0 l 536 0 l 235 824 l 235 0 l 122 0 z "},"N":{"ha":1013,"x_min":122,"x_max":890,"o":"m 122 0 l 122 978 l 290 978 l 778 133 l 778 978 l 890 978 l 890 0 l 724 0 l 235 844 l 235 0 l 122 0 z "},"Ń":{"ha":1013,"x_min":122,"x_max":890,"o":"m 544 1314 l 661 1314 l 542 1093 l 453 1093 l 544 1314 m 122 0 l 122 978 l 290 978 l 778 133 l 778 978 l 890 978 l 890 0 l 724 0 l 235 844 l 235 0 l 122 0 z "},"Ň":{"ha":1013,"x_min":122,"x_max":890,"o":"m 726 1314 l 574 1093 l 451 1093 l 299 1314 l 401 1314 l 513 1165 l 624 1314 l 726 1314 m 122 0 l 122 978 l 290 978 l 778 133 l 778 978 l 890 978 l 890 0 l 724 0 l 235 844 l 235 0 l 122 0 z "},"Ņ":{"ha":1013,"x_min":122,"x_max":890,"o":"m 122 0 l 122 978 l 290 978 l 778 133 l 778 978 l 890 978 l 890 0 l 724 0 l 235 844 l 235 0 l 122 0 m 599 -106 l 508 -329 l 421 -329 l 482 -106 l 599 -106 z "},"Ñ":{"ha":1013,"x_min":122,"x_max":890,"o":"m 122 0 l 122 978 l 290 978 l 778 133 l 778 978 l 890 978 l 890 0 l 724 0 l 235 844 l 235 0 l 122 0 m 763 1279 q 607 1093 747 1093 q 541 1108 568 1093 q 494 1140 514 1122 q 456 1173 475 1158 q 415 1188 438 1188 q 369 1162 385 1188 q 347 1092 354 1136 l 260 1092 q 305 1231 267 1183 q 417 1278 343 1278 q 481 1263 454 1278 q 528 1231 508 1249 q 567 1198 549 1213 q 606 1183 585 1183 q 653 1209 638 1183 q 675 1279 668 1235 l 763 1279 z "},"O":{"ha":1039,"x_min":67,"x_max":972,"o":"m 522 993 q 762 931 661 993 q 917 757 863 869 q 972 489 972 644 q 917 222 972 335 q 762 47 863 108 q 522 -15 661 -15 q 280 47 382 -15 q 122 222 178 108 q 67 489 67 335 q 122 756 67 643 q 280 931 178 869 q 522 993 382 993 m 522 885 q 276 780 367 885 q 186 489 186 675 q 276 199 186 304 q 522 93 367 93 q 697 140 624 93 q 812 276 771 188 q 853 489 853 365 q 812 701 853 613 q 697 838 771 790 q 522 885 624 885 z "},"Ó":{"ha":1039,"x_min":67,"x_max":972,"o":"m 554 1314 l 671 1314 l 551 1093 l 463 1093 l 554 1314 m 522 993 q 762 931 661 993 q 917 757 863 869 q 972 489 972 644 q 917 222 972 335 q 762 47 863 108 q 522 -15 661 -15 q 280 47 382 -15 q 122 222 178 108 q 67 489 67 335 q 122 756 67 643 q 280 931 178 869 q 522 993 382 993 m 522 885 q 276 780 367 885 q 186 489 186 675 q 276 199 186 304 q 522 93 367 93 q 697 140 624 93 q 812 276 771 188 q 853 489 853 365 q 812 701 853 613 q 697 838 771 790 q 522 885 624 885 z "},"Ô":{"ha":1039,"x_min":67,"x_max":972,"o":"m 736 1093 l 633 1093 l 522 1242 l 411 1093 l 308 1093 l 461 1314 l 583 1314 l 736 1093 m 522 993 q 762 931 661 993 q 917 757 863 869 q 972 489 972 644 q 917 222 972 335 q 762 47 863 108 q 522 -15 661 -15 q 280 47 382 -15 q 122 222 178 108 q 67 489 67 335 q 122 756 67 643 q 280 931 178 869 q 522 993 382 993 m 522 885 q 276 780 367 885 q 186 489 186 675 q 276 199 186 304 q 522 93 367 93 q 697 140 624 93 q 812 276 771 188 q 853 489 853 365 q 812 701 853 613 q 697 838 771 790 q 522 885 624 885 z "},"Ö":{"ha":1039,"x_min":67,"x_max":972,"o":"m 522 993 q 762 931 661 993 q 917 757 863 869 q 972 489 972 644 q 917 222 972 335 q 762 47 863 108 q 522 -15 661 -15 q 280 47 382 -15 q 122 222 178 108 q 67 489 67 335 q 122 756 67 643 q 280 931 178 869 q 522 993 382 993 m 522 885 q 276 780 367 885 q 186 489 186 675 q 276 199 186 304 q 522 93 367 93 q 697 140 624 93 q 812 276 771 188 q 853 489 853 365 q 812 701 853 613 q 697 838 771 790 q 522 885 624 885 m 388 1250 q 445 1228 424 1250 q 467 1171 467 1207 q 445 1114 467 1136 q 388 1092 424 1092 q 331 1114 353 1092 q 308 1171 308 1136 q 331 1228 308 1207 q 388 1250 353 1250 m 657 1250 q 715 1228 693 1250 q 736 1171 736 1207 q 715 1114 736 1136 q 657 1092 693 1092 q 600 1114 622 1092 q 578 1171 578 1136 q 600 1228 578 1207 q 657 1250 622 1250 z "},"Ò":{"ha":1039,"x_min":67,"x_max":972,"o":"m 490 1314 l 582 1093 l 493 1093 l 374 1314 l 490 1314 m 522 993 q 762 931 661 993 q 917 757 863 869 q 972 489 972 644 q 917 222 972 335 q 762 47 863 108 q 522 -15 661 -15 q 280 47 382 -15 q 122 222 178 108 q 67 489 67 335 q 122 756 67 643 q 280 931 178 869 q 522 993 382 993 m 522 885 q 276 780 367 885 q 186 489 186 675 q 276 199 186 304 q 522 93 367 93 q 697 140 624 93 q 812 276 771 188 q 853 489 853 365 q 812 701 853 613 q 697 838 771 790 q 522 885 624 885 z "},"Ő":{"ha":1039,"x_min":67,"x_max":972,"o":"m 693 1314 l 810 1314 l 690 1093 l 601 1093 l 693 1314 m 447 1314 l 564 1314 l 444 1093 l 356 1093 l 447 1314 m 522 993 q 762 931 661 993 q 917 757 863 869 q 972 489 972 644 q 917 222 972 335 q 762 47 863 108 q 522 -15 661 -15 q 280 47 382 -15 q 122 222 178 108 q 67 489 67 335 q 122 756 67 643 q 280 931 178 869 q 522 993 382 993 m 522 885 q 276 780 367 885 q 186 489 186 675 q 276 199 186 304 q 522 93 367 93 q 697 140 624 93 q 812 276 771 188 q 853 489 853 365 q 812 701 853 613 q 697 838 771 790 q 522 885 624 885 z "},"Ō":{"ha":1039,"x_min":67,"x_max":972,"o":"m 522 993 q 762 931 661 993 q 917 757 863 869 q 972 489 972 644 q 917 222 972 335 q 762 47 863 108 q 522 -15 661 -15 q 280 47 382 -15 q 122 222 178 108 q 67 489 67 335 q 122 756 67 643 q 280 931 178 869 q 522 993 382 993 m 522 885 q 276 780 367 885 q 186 489 186 675 q 276 199 186 304 q 522 93 367 93 q 697 140 624 93 q 812 276 771 188 q 853 489 853 365 q 812 701 853 613 q 697 838 771 790 q 522 885 624 885 m 750 1204 l 750 1111 l 294 1111 l 294 1204 l 750 1204 z "},"Ø":{"ha":1039,"x_min":67,"x_max":972,"o":"m 100 -11 l 193 117 q 99 276 132 182 q 67 489 67 371 q 122 756 67 643 q 280 931 178 869 q 522 993 382 993 q 778 921 671 993 l 828 989 l 940 989 l 847 861 q 940 701 907 796 q 972 489 972 607 q 917 222 972 335 q 762 47 863 108 q 522 -15 661 -15 q 263 57 371 -15 l 213 -11 l 100 -11 m 522 885 q 276 780 367 885 q 186 489 186 675 q 264 214 186 318 l 711 828 q 522 885 632 885 m 853 489 q 833 644 853 575 q 776 763 813 713 l 329 150 q 522 93 410 93 q 697 140 624 93 q 812 276 771 188 q 853 489 853 365 z "},"Õ":{"ha":1039,"x_min":67,"x_max":972,"o":"m 522 993 q 762 931 661 993 q 917 757 863 869 q 972 489 972 644 q 917 222 972 335 q 762 47 863 108 q 522 -15 661 -15 q 280 47 382 -15 q 122 222 178 108 q 67 489 67 335 q 122 756 67 643 q 280 931 178 869 q 522 993 382 993 m 522 885 q 276 780 367 885 q 186 489 186 675 q 276 199 186 304 q 522 93 367 93 q 697 140 624 93 q 812 276 771 188 q 853 489 853 365 q 812 701 853 613 q 697 838 771 790 q 522 885 624 885 m 772 1279 q 617 1093 757 1093 q 551 1108 578 1093 q 504 1140 524 1122 q 466 1173 485 1158 q 425 1188 447 1188 q 379 1162 394 1188 q 357 1092 364 1136 l 269 1092 q 315 1231 276 1183 q 426 1278 353 1278 q 491 1263 464 1278 q 538 1231 518 1249 q 576 1198 558 1213 q 615 1183 594 1183 q 663 1209 647 1183 q 685 1279 678 1235 l 772 1279 z "},"Œ":{"ha":1549,"x_min":67,"x_max":1501,"o":"m 940 107 l 1501 107 l 1501 0 l 836 0 l 836 157 q 702 30 785 75 q 514 -15 619 -15 q 276 47 376 -15 q 122 222 176 108 q 67 489 67 335 q 121 756 67 643 q 276 931 175 869 q 521 993 378 993 q 703 950 622 993 q 836 825 785 907 l 836 978 l 1479 978 l 1479 871 l 940 871 l 940 549 l 1356 549 l 1356 443 l 940 443 l 940 107 m 521 93 q 685 140 615 93 q 794 276 756 188 q 833 489 833 364 q 794 703 833 614 q 685 838 756 792 q 521 885 615 885 q 274 780 363 885 q 186 489 186 675 q 274 199 186 304 q 521 93 363 93 z "},"P":{"ha":857,"x_min":122,"x_max":822,"o":"m 501 978 q 737 897 651 978 q 822 681 822 817 q 737 464 822 544 q 501 383 651 383 l 238 383 l 238 0 l 122 0 l 122 978 l 501 978 m 486 492 q 645 535 589 492 q 701 681 701 578 q 645 827 701 783 q 486 871 589 871 l 238 871 l 238 492 l 486 492 z "},"Þ":{"ha":860,"x_min":122,"x_max":813,"o":"m 449 804 q 721 726 629 804 q 813 500 813 647 q 721 276 813 354 q 449 197 629 197 l 238 197 l 238 0 l 122 0 l 122 978 l 238 978 l 238 804 l 449 804 m 460 694 l 238 694 l 238 306 l 460 306 q 628 348 564 306 q 692 500 692 390 q 460 694 692 694 z "},"Q":{"ha":1039,"x_min":67,"x_max":983,"o":"m 764 -300 q 619 -273 688 -300 q 507 -183 551 -246 q 457 -11 463 -119 q 249 67 336 3 q 114 240 161 132 q 67 489 67 347 q 122 756 67 643 q 280 931 178 869 q 522 993 382 993 q 762 931 661 993 q 917 757 863 869 q 972 489 972 644 q 923 233 972 342 q 783 60 874 124 q 565 -14 692 -4 q 602 -124 572 -85 q 675 -177 632 -162 q 764 -192 718 -192 q 869 -172 829 -192 q 936 -135 910 -153 l 983 -229 q 889 -280 944 -260 q 764 -300 833 -300 m 522 885 q 276 780 367 885 q 186 489 186 675 q 276 199 186 304 q 522 93 367 93 q 697 140 624 93 q 812 276 771 188 q 853 489 853 365 q 812 701 853 613 q 697 838 771 790 q 522 885 624 885 z "},"R":{"ha":890,"x_min":122,"x_max":882,"o":"m 122 0 l 122 978 l 522 978 q 747 901 668 978 q 826 693 826 824 q 767 510 826 581 q 608 421 707 440 l 882 0 l 746 0 l 481 406 l 238 406 l 238 0 l 122 0 m 238 513 l 507 513 q 652 552 599 513 q 706 693 706 592 q 652 831 706 792 q 507 871 599 871 l 238 871 l 238 513 z "},"Ŕ":{"ha":890,"x_min":122,"x_max":882,"o":"m 471 1314 l 588 1314 l 468 1093 l 379 1093 l 471 1314 m 122 0 l 122 978 l 522 978 q 747 901 668 978 q 826 693 826 824 q 767 510 826 581 q 608 421 707 440 l 882 0 l 746 0 l 481 406 l 238 406 l 238 0 l 122 0 m 238 513 l 507 513 q 652 552 599 513 q 706 693 706 592 q 652 831 706 792 q 507 871 599 871 l 238 871 l 238 513 z "},"Ř":{"ha":890,"x_min":122,"x_max":882,"o":"m 653 1314 l 500 1093 l 378 1093 l 225 1314 l 328 1314 l 439 1165 l 550 1314 l 653 1314 m 122 0 l 122 978 l 522 978 q 747 901 668 978 q 826 693 826 824 q 767 510 826 581 q 608 421 707 440 l 882 0 l 746 0 l 481 406 l 238 406 l 238 0 l 122 0 m 238 513 l 507 513 q 652 552 599 513 q 706 693 706 592 q 652 831 706 792 q 507 871 599 871 l 238 871 l 238 513 z "},"Ŗ":{"ha":890,"x_min":122,"x_max":882,"o":"m 122 0 l 122 978 l 522 978 q 747 901 668 978 q 826 693 826 824 q 767 510 826 581 q 608 421 707 440 l 882 0 l 746 0 l 481 406 l 238 406 l 238 0 l 122 0 m 238 513 l 507 513 q 652 552 599 513 q 706 693 706 592 q 652 831 706 792 q 507 871 599 871 l 238 871 l 238 513 m 556 -106 l 465 -329 l 378 -329 l 439 -106 l 556 -106 z "},"S":{"ha":881,"x_min":40,"x_max":826,"o":"m 440 993 q 825 796 690 993 l 724 718 q 599 847 668 808 q 429 885 529 885 q 254 839 311 885 q 197 724 197 793 q 238 619 197 661 q 367 560 278 578 l 574 518 q 762 433 697 493 q 826 268 826 374 q 735 63 826 142 q 475 -15 644 -15 q 231 35 339 -15 q 40 204 122 85 l 146 292 q 290 141 201 189 q 481 93 378 93 q 650 135 594 93 q 706 257 706 178 q 673 346 706 307 q 553 403 640 385 l 329 449 q 135 547 194 476 q 76 711 76 618 q 121 853 76 789 q 247 955 165 917 q 440 993 328 993 z "},"Ś":{"ha":881,"x_min":40,"x_max":826,"o":"m 479 1314 l 596 1314 l 476 1093 l 388 1093 l 479 1314 m 440 993 q 825 796 690 993 l 724 718 q 599 847 668 808 q 429 885 529 885 q 254 839 311 885 q 197 724 197 793 q 238 619 197 661 q 367 560 278 578 l 574 518 q 762 433 697 493 q 826 268 826 374 q 735 63 826 142 q 475 -15 644 -15 q 231 35 339 -15 q 40 204 122 85 l 146 292 q 290 141 201 189 q 481 93 378 93 q 650 135 594 93 q 706 257 706 178 q 673 346 706 307 q 553 403 640 385 l 329 449 q 135 547 194 476 q 76 711 76 618 q 121 853 76 789 q 247 955 165 917 q 440 993 328 993 z "},"Š":{"ha":881,"x_min":40,"x_max":826,"o":"m 661 1314 l 508 1093 l 386 1093 l 233 1314 l 336 1314 l 447 1165 l 558 1314 l 661 1314 m 440 993 q 825 796 690 993 l 724 718 q 599 847 668 808 q 429 885 529 885 q 254 839 311 885 q 197 724 197 793 q 238 619 197 661 q 367 560 278 578 l 574 518 q 762 433 697 493 q 826 268 826 374 q 735 63 826 142 q 475 -15 644 -15 q 231 35 339 -15 q 40 204 122 85 l 146 292 q 290 141 201 189 q 481 93 378 93 q 650 135 594 93 q 706 257 706 178 q 673 346 706 307 q 553 403 640 385 l 329 449 q 135 547 194 476 q 76 711 76 618 q 121 853 76 789 q 247 955 165 917 q 440 993 328 993 z "},"Ş":{"ha":881,"x_min":40,"x_max":826,"o":"m 440 993 q 825 796 690 993 l 724 718 q 599 847 668 808 q 429 885 529 885 q 254 839 311 885 q 197 724 197 793 q 238 619 197 661 q 367 560 278 578 l 574 518 q 762 433 697 493 q 826 268 826 374 q 735 63 826 142 q 475 -15 644 -15 q 231 35 339 -15 q 40 204 122 85 l 146 292 q 290 141 201 189 q 481 93 378 93 q 650 135 594 93 q 706 257 706 178 q 673 346 706 307 q 553 403 640 385 l 329 449 q 135 547 194 476 q 76 711 76 618 q 121 853 76 789 q 247 955 165 917 q 440 993 328 993 m 363 6 l 421 40 q 538 -31 503 14 q 572 -137 572 -76 q 525 -251 572 -204 q 404 -299 478 -299 q 328 -287 361 -299 q 272 -258 296 -276 l 299 -178 q 340 -200 318 -190 q 392 -210 361 -210 q 456 -185 431 -210 q 481 -112 481 -160 q 454 -50 481 -76 q 363 6 428 -24 z "},"Ș":{"ha":881,"x_min":40,"x_max":826,"o":"m 440 993 q 825 796 690 993 l 724 718 q 599 847 668 808 q 429 885 529 885 q 254 839 311 885 q 197 724 197 793 q 238 619 197 661 q 367 560 278 578 l 574 518 q 762 433 697 493 q 826 268 826 374 q 735 63 826 142 q 475 -15 644 -15 q 231 35 339 -15 q 40 204 122 85 l 146 292 q 290 141 201 189 q 481 93 378 93 q 650 135 594 93 q 706 257 706 178 q 673 346 706 307 q 553 403 640 385 l 329 449 q 135 547 194 476 q 76 711 76 618 q 121 853 76 789 q 247 955 165 917 q 440 993 328 993 m 490 -106 l 400 -329 l 313 -329 l 374 -106 l 490 -106 z "},"T":{"ha":846,"x_min":22,"x_max":824,"o":"m 824 978 l 824 872 l 479 872 l 479 0 l 365 0 l 365 872 l 22 872 l 22 978 l 824 978 z "},"Ť":{"ha":846,"x_min":22,"x_max":824,"o":"m 636 1314 l 483 1093 l 361 1093 l 208 1314 l 311 1314 l 422 1165 l 533 1314 l 636 1314 m 824 978 l 824 872 l 479 872 l 479 0 l 365 0 l 365 872 l 22 872 l 22 978 l 824 978 z "},"Ţ":{"ha":846,"x_min":22,"x_max":824,"o":"m 360 0 l 365 4 l 365 872 l 22 872 l 22 978 l 824 978 l 824 872 l 479 872 l 479 11 q 544 -54 524 -17 q 564 -137 564 -92 q 517 -251 564 -204 q 396 -299 469 -299 q 320 -287 353 -299 q 264 -258 288 -276 l 290 -178 q 331 -200 310 -190 q 383 -210 353 -210 q 447 -185 422 -210 q 472 -112 472 -160 q 451 -53 472 -76 q 360 0 429 -29 z "},"Ț":{"ha":846,"x_min":22,"x_max":824,"o":"m 824 978 l 824 872 l 479 872 l 479 0 l 365 0 l 365 872 l 22 872 l 22 978 l 824 978 m 474 -106 l 383 -329 l 296 -329 l 357 -106 l 474 -106 z "},"U":{"ha":975,"x_min":104,"x_max":871,"o":"m 871 978 l 871 364 q 772 81 871 176 q 488 -15 674 -15 q 204 81 304 -15 q 104 364 104 176 l 104 978 l 219 978 l 219 390 q 242 242 219 310 q 322 133 264 174 q 488 93 381 93 q 654 133 596 93 q 735 242 713 174 q 757 390 757 310 l 757 978 l 871 978 z "},"Ú":{"ha":975,"x_min":104,"x_max":871,"o":"m 519 1276 l 636 1276 l 517 1056 l 428 1056 l 519 1276 m 871 978 l 871 364 q 772 81 871 176 q 488 -15 674 -15 q 204 81 304 -15 q 104 364 104 176 l 104 978 l 219 978 l 219 390 q 242 242 219 310 q 322 133 264 174 q 488 93 381 93 q 654 133 596 93 q 735 242 713 174 q 757 390 757 310 l 757 978 l 871 978 z "},"Û":{"ha":975,"x_min":104,"x_max":871,"o":"m 701 1056 l 599 1056 l 488 1204 l 376 1056 l 274 1056 l 426 1276 l 549 1276 l 701 1056 m 871 978 l 871 364 q 772 81 871 176 q 488 -15 674 -15 q 204 81 304 -15 q 104 364 104 176 l 104 978 l 219 978 l 219 390 q 242 242 219 310 q 322 133 264 174 q 488 93 381 93 q 654 133 596 93 q 735 242 713 174 q 757 390 757 310 l 757 978 l 871 978 z "},"Ü":{"ha":975,"x_min":104,"x_max":871,"o":"m 871 978 l 871 364 q 772 81 871 176 q 488 -15 674 -15 q 204 81 304 -15 q 104 364 104 176 l 104 978 l 219 978 l 219 390 q 242 242 219 310 q 322 133 264 174 q 488 93 381 93 q 654 133 596 93 q 735 242 713 174 q 757 390 757 310 l 757 978 l 871 978 m 353 1213 q 410 1191 389 1213 q 432 1133 432 1169 q 410 1076 432 1099 q 353 1054 389 1054 q 296 1076 318 1054 q 274 1133 274 1099 q 296 1191 274 1169 q 353 1213 318 1213 m 622 1213 q 680 1191 658 1213 q 701 1133 701 1169 q 680 1076 701 1099 q 622 1054 658 1054 q 565 1076 588 1054 q 543 1133 543 1099 q 565 1191 543 1169 q 622 1213 588 1213 z "},"Ù":{"ha":975,"x_min":104,"x_max":871,"o":"m 456 1276 l 547 1056 l 458 1056 l 339 1276 l 456 1276 m 871 978 l 871 364 q 772 81 871 176 q 488 -15 674 -15 q 204 81 304 -15 q 104 364 104 176 l 104 978 l 219 978 l 219 390 q 242 242 219 310 q 322 133 264 174 q 488 93 381 93 q 654 133 596 93 q 735 242 713 174 q 757 390 757 310 l 757 978 l 871 978 z "},"Ű":{"ha":975,"x_min":104,"x_max":871,"o":"m 658 1276 l 775 1276 l 656 1056 l 567 1056 l 658 1276 m 413 1276 l 529 1276 l 410 1056 l 321 1056 l 413 1276 m 871 978 l 871 364 q 772 81 871 176 q 488 -15 674 -15 q 204 81 304 -15 q 104 364 104 176 l 104 978 l 219 978 l 219 390 q 242 242 219 310 q 322 133 264 174 q 488 93 381 93 q 654 133 596 93 q 735 242 713 174 q 757 390 757 310 l 757 978 l 871 978 z "},"Ū":{"ha":975,"x_min":104,"x_max":871,"o":"m 871 978 l 871 364 q 772 81 871 176 q 488 -15 674 -15 q 204 81 304 -15 q 104 364 104 176 l 104 978 l 219 978 l 219 390 q 242 242 219 310 q 322 133 264 174 q 488 93 381 93 q 654 133 596 93 q 735 242 713 174 q 757 390 757 310 l 757 978 l 871 978 m 715 1167 l 715 1074 l 260 1074 l 260 1167 l 715 1167 z "},"Ų":{"ha":975,"x_min":104,"x_max":871,"o":"m 871 978 l 871 364 q 772 81 871 176 q 488 -15 674 -15 q 204 81 304 -15 q 104 364 104 176 l 104 978 l 219 978 l 219 390 q 242 242 219 310 q 322 133 264 174 q 488 93 381 93 q 654 133 596 93 q 735 242 713 174 q 757 390 757 310 l 757 978 l 871 978 m 571 -304 q 449 -265 492 -304 q 407 -161 407 -225 q 456 -37 407 -83 q 608 46 506 8 l 669 17 q 556 -38 593 -11 q 506 -92 518 -65 q 494 -149 494 -119 q 518 -204 494 -185 q 581 -224 542 -224 q 657 -208 622 -224 l 674 -282 q 628 -298 656 -292 q 571 -304 600 -304 z "},"Ů":{"ha":975,"x_min":104,"x_max":871,"o":"m 871 978 l 871 364 q 772 81 871 176 q 488 -15 674 -15 q 204 81 304 -15 q 104 364 104 176 l 104 978 l 219 978 l 219 390 q 242 242 219 310 q 322 133 264 174 q 488 93 381 93 q 654 133 596 93 q 735 242 713 174 q 757 390 757 310 l 757 978 l 871 978 m 483 1374 q 609 1328 561 1374 q 657 1210 657 1283 q 609 1090 657 1136 q 483 1044 561 1044 q 357 1090 406 1044 q 308 1210 308 1136 q 357 1328 308 1283 q 483 1374 406 1374 m 483 1306 q 413 1278 440 1306 q 385 1210 385 1251 q 413 1141 385 1168 q 483 1114 440 1114 q 554 1141 526 1114 q 582 1210 582 1168 q 554 1278 582 1251 q 483 1306 526 1306 z "},"V":{"ha":899,"x_min":7,"x_max":892,"o":"m 378 0 l 7 978 l 132 978 l 451 115 l 772 978 l 892 978 l 521 0 l 378 0 z "},"W":{"ha":1354,"x_min":18,"x_max":1336,"o":"m 303 0 l 18 978 l 138 978 l 375 136 l 607 978 l 751 978 l 986 136 l 1219 978 l 1336 978 l 1054 0 l 913 0 l 676 844 l 446 0 l 303 0 z "},"X":{"ha":832,"x_min":7,"x_max":825,"o":"m 7 0 l 346 501 l 26 978 l 169 978 l 417 597 l 669 978 l 806 978 l 485 508 l 825 0 l 683 0 l 414 408 l 144 0 l 7 0 z "},"Y":{"ha":804,"x_min":-6,"x_max":810,"o":"m 343 0 l 343 381 l -6 978 l 121 978 l 404 490 l 685 978 l 810 978 l 460 381 l 460 0 l 343 0 z "},"Ý":{"ha":804,"x_min":-6,"x_max":810,"o":"m 432 1283 l 549 1283 l 429 1063 l 340 1063 l 432 1283 m 343 0 l 343 381 l -6 978 l 121 978 l 404 490 l 685 978 l 810 978 l 460 381 l 460 0 l 343 0 z "},"Ÿ":{"ha":804,"x_min":-6,"x_max":810,"o":"m 343 0 l 343 381 l -6 978 l 121 978 l 404 490 l 685 978 l 810 978 l 460 381 l 460 0 l 343 0 m 265 1219 q 323 1198 301 1219 q 344 1140 344 1176 q 323 1083 344 1106 q 265 1061 301 1061 q 208 1083 231 1061 q 186 1140 186 1106 q 208 1198 186 1176 q 265 1219 231 1219 m 535 1219 q 592 1198 571 1219 q 614 1140 614 1176 q 592 1083 614 1106 q 535 1061 571 1061 q 478 1083 500 1061 q 456 1140 456 1106 q 478 1198 456 1176 q 535 1219 500 1219 z "},"Z":{"ha":867,"x_min":54,"x_max":822,"o":"m 822 107 l 822 0 l 54 0 l 54 101 l 664 871 l 69 871 l 69 978 l 803 978 l 803 876 l 193 107 l 822 107 z "},"Ź":{"ha":867,"x_min":54,"x_max":822,"o":"m 457 1314 l 574 1314 l 454 1093 l 365 1093 l 457 1314 m 822 107 l 822 0 l 54 0 l 54 101 l 664 871 l 69 871 l 69 978 l 803 978 l 803 876 l 193 107 l 822 107 z "},"Ž":{"ha":867,"x_min":54,"x_max":822,"o":"m 639 1314 l 486 1093 l 364 1093 l 211 1314 l 314 1314 l 425 1165 l 536 1314 l 639 1314 m 822 107 l 822 0 l 54 0 l 54 101 l 664 871 l 69 871 l 69 978 l 803 978 l 803 876 l 193 107 l 822 107 z "},"Ż":{"ha":867,"x_min":54,"x_max":822,"o":"m 822 107 l 822 0 l 54 0 l 54 101 l 664 871 l 69 871 l 69 978 l 803 978 l 803 876 l 193 107 l 822 107 m 425 1272 q 485 1249 463 1272 q 508 1189 508 1226 q 485 1128 508 1151 q 425 1106 463 1106 q 365 1128 388 1106 q 342 1189 342 1151 q 365 1249 342 1226 q 425 1272 388 1272 z "},"a":{"ha":728,"x_min":51,"x_max":717,"o":"m 515 460 q 466 574 515 538 q 347 611 417 611 q 223 580 265 611 q 153 488 181 549 l 51 531 q 156 660 85 613 q 343 708 228 708 q 483 685 418 708 q 587 613 547 663 q 626 482 626 564 l 626 135 q 679 85 626 85 q 698 85 688 85 q 717 88 708 86 l 711 1 q 653 -10 689 -10 q 568 13 604 -10 q 519 82 532 36 q 422 9 482 32 q 296 -14 361 -14 q 120 44 186 -14 q 54 203 54 101 q 122 358 54 300 q 311 415 190 415 l 515 415 l 515 460 m 321 83 q 410 99 365 83 q 485 150 454 114 q 515 247 515 186 l 515 325 l 329 325 q 206 293 244 325 q 168 208 168 261 q 203 120 168 157 q 321 83 239 83 z "},"á":{"ha":728,"x_min":51,"x_max":717,"o":"m 515 460 q 466 574 515 538 q 347 611 417 611 q 223 580 265 611 q 153 488 181 549 l 51 531 q 156 660 85 613 q 343 708 228 708 q 483 685 418 708 q 587 613 547 663 q 626 482 626 564 l 626 135 q 679 85 626 85 q 698 85 688 85 q 717 88 708 86 l 711 1 q 653 -10 689 -10 q 568 13 604 -10 q 519 82 532 36 q 422 9 482 32 q 296 -14 361 -14 q 120 44 186 -14 q 54 203 54 101 q 122 358 54 300 q 311 415 190 415 l 515 415 l 515 460 m 321 83 q 410 99 365 83 q 485 150 454 114 q 515 247 515 186 l 515 325 l 329 325 q 206 293 244 325 q 168 208 168 261 q 203 120 168 157 q 321 83 239 83 m 401 1042 l 522 1042 l 386 810 l 296 810 l 401 1042 z "},"ă":{"ha":728,"x_min":51,"x_max":717,"o":"m 515 460 q 466 574 515 538 q 347 611 417 611 q 223 580 265 611 q 153 488 181 549 l 51 531 q 156 660 85 613 q 343 708 228 708 q 483 685 418 708 q 587 613 547 663 q 626 482 626 564 l 626 135 q 679 85 626 85 q 698 85 688 85 q 717 88 708 86 l 711 1 q 653 -10 689 -10 q 568 13 604 -10 q 519 82 532 36 q 422 9 482 32 q 296 -14 361 -14 q 120 44 186 -14 q 54 203 54 101 q 122 358 54 300 q 311 415 190 415 l 515 415 l 515 460 m 321 83 q 410 99 365 83 q 485 150 454 114 q 515 247 515 186 l 515 325 l 329 325 q 206 293 244 325 q 168 208 168 261 q 203 120 168 157 q 321 83 239 83 m 569 1007 q 513 858 569 915 q 364 801 456 801 q 215 858 272 801 q 158 1007 158 915 l 249 1007 q 279 922 250 958 q 364 885 308 885 q 449 922 421 885 q 479 1007 478 958 l 569 1007 z "},"â":{"ha":728,"x_min":51,"x_max":717,"o":"m 515 460 q 466 574 515 538 q 347 611 417 611 q 223 580 265 611 q 153 488 181 549 l 51 531 q 156 660 85 613 q 343 708 228 708 q 483 685 418 708 q 587 613 547 663 q 626 482 626 564 l 626 135 q 679 85 626 85 q 698 85 688 85 q 717 88 708 86 l 711 1 q 653 -10 689 -10 q 568 13 604 -10 q 519 82 532 36 q 422 9 482 32 q 296 -14 361 -14 q 120 44 186 -14 q 54 203 54 101 q 122 358 54 300 q 311 415 190 415 l 515 415 l 515 460 m 321 83 q 410 99 365 83 q 485 150 454 114 q 515 247 515 186 l 515 325 l 329 325 q 206 293 244 325 q 168 208 168 261 q 203 120 168 157 q 321 83 239 83 m 585 800 l 483 800 l 364 960 l 244 800 l 143 800 l 301 1032 l 426 1032 l 585 800 z "},"ä":{"ha":728,"x_min":51,"x_max":717,"o":"m 515 460 q 466 574 515 538 q 347 611 417 611 q 223 580 265 611 q 153 488 181 549 l 51 531 q 156 660 85 613 q 343 708 228 708 q 483 685 418 708 q 587 613 547 663 q 626 482 626 564 l 626 135 q 679 85 626 85 q 698 85 688 85 q 717 88 708 86 l 711 1 q 653 -10 689 -10 q 568 13 604 -10 q 519 82 532 36 q 422 9 482 32 q 296 -14 361 -14 q 120 44 186 -14 q 54 203 54 101 q 122 358 54 300 q 311 415 190 415 l 515 415 l 515 460 m 321 83 q 410 99 365 83 q 485 150 454 114 q 515 247 515 186 l 515 325 l 329 325 q 206 293 244 325 q 168 208 168 261 q 203 120 168 157 q 321 83 239 83 m 229 967 q 287 945 265 967 q 308 888 308 924 q 287 831 308 853 q 229 808 265 808 q 172 831 194 808 q 150 888 150 853 q 172 945 150 924 q 229 967 194 967 m 499 967 q 556 945 535 967 q 578 888 578 924 q 556 831 578 853 q 499 808 535 808 q 442 831 464 808 q 419 888 419 853 q 442 945 419 924 q 499 967 464 967 z "},"à":{"ha":728,"x_min":51,"x_max":717,"o":"m 515 460 q 466 574 515 538 q 347 611 417 611 q 223 580 265 611 q 153 488 181 549 l 51 531 q 156 660 85 613 q 343 708 228 708 q 483 685 418 708 q 587 613 547 663 q 626 482 626 564 l 626 135 q 679 85 626 85 q 698 85 688 85 q 717 88 708 86 l 711 1 q 653 -10 689 -10 q 568 13 604 -10 q 519 82 532 36 q 422 9 482 32 q 296 -14 361 -14 q 120 44 186 -14 q 54 203 54 101 q 122 358 54 300 q 311 415 190 415 l 515 415 l 515 460 m 321 83 q 410 99 365 83 q 485 150 454 114 q 515 247 515 186 l 515 325 l 329 325 q 206 293 244 325 q 168 208 168 261 q 203 120 168 157 q 321 83 239 83 m 317 1042 l 422 810 l 332 810 l 196 1042 l 317 1042 z "},"ā":{"ha":728,"x_min":51,"x_max":717,"o":"m 515 460 q 466 574 515 538 q 347 611 417 611 q 223 580 265 611 q 153 488 181 549 l 51 531 q 156 660 85 613 q 343 708 228 708 q 483 685 418 708 q 587 613 547 663 q 626 482 626 564 l 626 135 q 679 85 626 85 q 698 85 688 85 q 717 88 708 86 l 711 1 q 653 -10 689 -10 q 568 13 604 -10 q 519 82 532 36 q 422 9 482 32 q 296 -14 361 -14 q 120 44 186 -14 q 54 203 54 101 q 122 358 54 300 q 311 415 190 415 l 515 415 l 515 460 m 321 83 q 410 99 365 83 q 485 150 454 114 q 515 247 515 186 l 515 325 l 329 325 q 206 293 244 325 q 168 208 168 261 q 203 120 168 157 q 321 83 239 83 m 592 921 l 592 828 l 136 828 l 136 921 l 592 921 z "},"ą":{"ha":728,"x_min":51,"x_max":717,"o":"m 515 460 q 466 574 515 538 q 347 611 417 611 q 223 580 265 611 q 153 488 181 549 l 51 531 q 156 660 85 613 q 343 708 228 708 q 483 685 418 708 q 587 613 547 663 q 626 482 626 564 l 626 135 q 679 85 626 85 q 698 85 688 85 q 717 88 708 86 l 711 1 q 653 -10 689 -10 q 568 13 604 -10 q 519 82 532 36 q 422 9 482 32 q 296 -14 361 -14 q 120 44 186 -14 q 54 203 54 101 q 122 358 54 300 q 311 415 190 415 l 515 415 l 515 460 m 321 83 q 410 99 365 83 q 485 150 454 114 q 515 247 515 186 l 515 325 l 329 325 q 206 293 244 325 q 168 208 168 261 q 203 120 168 157 q 321 83 239 83 m 613 -319 q 491 -280 533 -319 q 449 -176 449 -240 q 498 -53 449 -99 q 650 31 547 -7 l 711 1 q 597 -53 635 -26 q 548 -108 560 -81 q 536 -164 536 -135 q 560 -219 536 -200 q 622 -239 583 -239 q 699 -224 664 -239 l 715 -297 q 669 -313 697 -307 q 613 -319 642 -319 z "},"å":{"ha":728,"x_min":51,"x_max":717,"o":"m 515 460 q 466 574 515 538 q 347 611 417 611 q 223 580 265 611 q 153 488 181 549 l 51 531 q 156 660 85 613 q 343 708 228 708 q 483 685 418 708 q 587 613 547 663 q 626 482 626 564 l 626 135 q 679 85 626 85 q 698 85 688 85 q 717 88 708 86 l 711 1 q 653 -10 689 -10 q 568 13 604 -10 q 519 82 532 36 q 422 9 482 32 q 296 -14 361 -14 q 120 44 186 -14 q 54 203 54 101 q 122 358 54 300 q 311 415 190 415 l 515 415 l 515 460 m 321 83 q 410 99 365 83 q 485 150 454 114 q 515 247 515 186 l 515 325 l 329 325 q 206 293 244 325 q 168 208 168 261 q 203 120 168 157 q 321 83 239 83 m 360 1128 q 485 1083 438 1128 q 533 964 533 1038 q 485 844 533 890 q 360 799 438 799 q 233 844 282 799 q 185 964 185 890 q 233 1083 185 1038 q 360 1128 282 1128 m 360 1060 q 289 1033 317 1060 q 261 964 261 1006 q 289 895 261 922 q 360 868 317 868 q 431 895 403 868 q 458 964 458 922 q 431 1033 458 1006 q 360 1060 403 1060 z "},"ã":{"ha":728,"x_min":51,"x_max":717,"o":"m 515 460 q 466 574 515 538 q 347 611 417 611 q 223 580 265 611 q 153 488 181 549 l 51 531 q 156 660 85 613 q 343 708 228 708 q 483 685 418 708 q 587 613 547 663 q 626 482 626 564 l 626 135 q 679 85 626 85 q 698 85 688 85 q 717 88 708 86 l 711 1 q 653 -10 689 -10 q 568 13 604 -10 q 519 82 532 36 q 422 9 482 32 q 296 -14 361 -14 q 120 44 186 -14 q 54 203 54 101 q 122 358 54 300 q 311 415 190 415 l 515 415 l 515 460 m 321 83 q 410 99 365 83 q 485 150 454 114 q 515 247 515 186 l 515 325 l 329 325 q 206 293 244 325 q 168 208 168 261 q 203 120 168 157 q 321 83 239 83 m 614 996 q 458 810 599 810 q 392 824 419 810 q 346 857 365 839 q 308 890 326 875 q 267 904 289 904 q 221 878 236 904 q 199 808 206 853 l 111 808 q 156 947 118 900 q 268 994 194 994 q 333 980 306 994 q 380 947 360 965 q 418 915 400 929 q 457 900 436 900 q 504 926 489 900 q 526 996 519 951 l 614 996 z "},"æ":{"ha":1189,"x_min":51,"x_max":1142,"o":"m 304 -14 q 123 44 194 -14 q 51 199 51 101 q 87 325 51 278 q 179 394 122 372 q 303 415 236 415 l 515 415 l 515 460 q 475 568 515 525 q 353 611 435 611 q 235 585 283 611 q 153 486 186 558 l 56 531 q 167 665 92 621 q 351 708 243 708 q 497 678 432 708 q 592 585 563 649 q 699 676 633 643 q 844 708 765 708 q 1003 667 938 708 q 1106 553 1069 625 q 1142 393 1142 482 q 1140 350 1142 369 q 1136 315 1139 331 l 628 315 q 696 144 635 206 q 849 83 757 83 q 965 113 918 83 q 1040 192 1011 142 l 1128 140 q 1017 28 1089 69 q 851 -14 946 -14 q 688 24 760 -14 q 574 138 615 63 q 482 29 549 72 q 304 -14 415 -14 m 632 414 l 1031 414 q 975 560 1028 508 q 842 611 922 611 q 702 560 757 611 q 632 414 647 508 m 325 83 q 460 127 406 83 q 515 250 515 171 l 515 325 l 321 325 q 200 291 235 325 q 165 207 165 257 q 205 120 165 157 q 325 83 244 83 z "},"b":{"ha":818,"x_min":101,"x_max":763,"o":"m 446 -14 q 302 24 367 -14 q 206 122 238 61 l 199 0 l 101 0 l 101 978 l 213 978 l 213 585 q 313 674 247 640 q 456 708 379 708 q 613 665 543 708 q 722 542 682 622 q 763 347 763 461 q 719 153 763 235 q 605 29 676 72 q 446 -14 533 -14 m 431 83 q 591 156 533 83 q 649 347 649 228 q 592 539 649 467 q 432 611 535 611 q 274 538 335 611 q 213 344 213 464 q 273 154 213 225 q 431 83 333 83 z "},"c":{"ha":714,"x_min":53,"x_max":686,"o":"m 392 708 q 569 659 499 708 q 679 524 640 610 l 574 475 q 389 611 529 611 q 226 541 285 611 q 167 347 167 471 q 226 153 167 224 q 389 83 285 83 q 513 121 471 83 q 578 226 556 158 l 686 190 q 577 40 651 94 q 392 -14 503 -14 q 217 29 293 -14 q 97 153 140 72 q 53 347 53 235 q 97 541 53 460 q 217 665 140 622 q 392 708 293 708 z "},"ć":{"ha":714,"x_min":53,"x_max":686,"o":"m 392 708 q 569 659 499 708 q 679 524 640 610 l 574 475 q 389 611 529 611 q 226 541 285 611 q 167 347 167 471 q 226 153 167 224 q 389 83 285 83 q 513 121 471 83 q 578 226 556 158 l 686 190 q 577 40 651 94 q 392 -14 503 -14 q 217 29 293 -14 q 97 153 140 72 q 53 347 53 235 q 97 541 53 460 q 217 665 140 622 q 392 708 293 708 m 418 1042 l 539 1042 l 403 810 l 313 810 l 418 1042 z "},"č":{"ha":714,"x_min":53,"x_max":686,"o":"m 392 708 q 569 659 499 708 q 679 524 640 610 l 574 475 q 389 611 529 611 q 226 541 285 611 q 167 347 167 471 q 226 153 167 224 q 389 83 285 83 q 513 121 471 83 q 578 226 556 158 l 686 190 q 577 40 651 94 q 392 -14 503 -14 q 217 29 293 -14 q 97 153 140 72 q 53 347 53 235 q 97 541 53 460 q 217 665 140 622 q 392 708 293 708 m 601 1042 l 443 810 l 318 810 l 160 1042 l 261 1042 l 381 882 l 500 1042 l 601 1042 z "},"ç":{"ha":714,"x_min":53,"x_max":686,"o":"m 392 708 q 569 659 499 708 q 679 524 640 610 l 574 475 q 389 611 529 611 q 226 541 285 611 q 167 347 167 471 q 226 153 167 224 q 389 83 285 83 q 513 121 471 83 q 578 226 556 158 l 686 190 q 577 40 651 94 q 392 -14 503 -14 q 217 29 293 -14 q 97 153 140 72 q 53 347 53 235 q 97 541 53 460 q 217 665 140 622 q 392 708 293 708 m 314 6 l 372 40 q 489 -31 454 14 q 524 -137 524 -76 q 476 -251 524 -204 q 356 -299 429 -299 q 280 -287 313 -299 q 224 -258 247 -276 l 250 -178 q 291 -200 269 -190 q 343 -210 313 -210 q 407 -185 382 -210 q 432 -112 432 -160 q 406 -50 432 -76 q 314 6 379 -24 z "},"d":{"ha":818,"x_min":56,"x_max":717,"o":"m 369 -14 q 210 29 281 -14 q 97 153 139 72 q 56 347 56 235 q 100 543 56 463 q 219 666 144 624 q 381 708 293 708 q 516 674 456 708 q 606 582 576 639 l 606 978 l 717 978 l 717 0 l 619 0 l 613 131 q 515 24 583 61 q 369 -14 447 -14 m 386 83 q 545 157 485 83 q 606 357 606 231 q 546 544 606 476 q 392 611 486 611 q 228 539 286 611 q 169 347 169 467 q 226 156 169 228 q 386 83 283 83 z "},"ð":{"ha":788,"x_min":58,"x_max":739,"o":"m 386 -14 q 147 78 235 -14 q 58 331 58 169 q 101 515 58 438 q 218 633 144 592 q 383 674 292 674 q 515 651 458 674 q 608 588 571 629 q 492 800 574 707 l 260 740 l 239 825 l 425 865 q 257 978 354 925 l 411 978 q 535 892 481 939 l 715 942 l 739 860 l 596 826 q 731 400 731 661 q 693 185 731 279 q 580 39 656 92 q 386 -14 504 -14 m 392 83 q 517 118 465 83 q 595 209 568 153 q 622 331 622 265 q 563 511 622 446 q 399 576 503 576 q 233 511 293 576 q 174 331 174 446 q 233 149 174 214 q 392 83 292 83 z "},"ď":{"ha":874,"x_min":56,"x_max":944,"o":"m 944 978 l 888 704 l 796 704 l 824 978 l 944 978 m 369 -14 q 210 29 281 -14 q 97 153 139 72 q 56 347 56 235 q 100 543 56 463 q 219 666 144 624 q 381 708 293 708 q 516 674 456 708 q 606 582 576 639 l 606 978 l 717 978 l 717 0 l 619 0 l 613 131 q 515 24 583 61 q 369 -14 447 -14 m 386 83 q 545 157 485 83 q 606 357 606 231 q 546 544 606 476 q 392 611 486 611 q 228 539 286 611 q 169 347 169 467 q 226 156 169 228 q 386 83 283 83 z "},"đ":{"ha":818,"x_min":56,"x_max":825,"o":"m 369 -14 q 210 29 281 -14 q 97 153 139 72 q 56 347 56 235 q 100 543 56 463 q 219 666 144 624 q 381 708 293 708 q 516 674 456 708 q 606 582 576 639 l 606 781 l 389 781 l 389 871 l 606 871 l 606 978 l 717 978 l 717 871 l 825 871 l 825 781 l 717 781 l 717 0 l 619 0 l 613 131 q 515 24 583 61 q 369 -14 447 -14 m 386 83 q 545 157 485 83 q 606 357 606 231 q 546 544 606 476 q 392 611 486 611 q 228 539 286 611 q 169 347 169 467 q 226 156 169 228 q 386 83 283 83 z "},"e":{"ha":744,"x_min":53,"x_max":697,"o":"m 394 -14 q 217 29 294 -14 q 97 153 140 72 q 53 347 53 235 q 96 541 53 460 q 215 665 139 622 q 388 708 290 708 q 554 667 485 708 q 660 556 624 626 q 697 397 697 486 q 696 354 697 374 q 692 319 694 335 l 165 319 q 231 147 171 211 q 392 83 290 83 q 516 113 468 83 q 593 192 564 142 l 681 140 q 569 28 642 69 q 394 -14 496 -14 m 169 418 l 579 418 q 524 562 576 513 q 385 611 471 611 q 242 560 299 611 q 169 418 185 510 z "},"é":{"ha":744,"x_min":53,"x_max":697,"o":"m 394 -14 q 217 29 294 -14 q 97 153 140 72 q 53 347 53 235 q 96 541 53 460 q 215 665 139 622 q 388 708 290 708 q 554 667 485 708 q 660 556 624 626 q 697 397 697 486 q 696 354 697 374 q 692 319 694 335 l 165 319 q 231 147 171 211 q 392 83 290 83 q 516 113 468 83 q 593 192 564 142 l 681 140 q 569 28 642 69 q 394 -14 496 -14 m 169 418 l 579 418 q 524 562 576 513 q 385 611 471 611 q 242 560 299 611 q 169 418 185 510 m 417 1042 l 538 1042 l 401 810 l 311 810 l 417 1042 z "},"ě":{"ha":744,"x_min":53,"x_max":697,"o":"m 394 -14 q 217 29 294 -14 q 97 153 140 72 q 53 347 53 235 q 96 541 53 460 q 215 665 139 622 q 388 708 290 708 q 554 667 485 708 q 660 556 624 626 q 697 397 697 486 q 696 354 697 374 q 692 319 694 335 l 165 319 q 231 147 171 211 q 392 83 290 83 q 516 113 468 83 q 593 192 564 142 l 681 140 q 569 28 642 69 q 394 -14 496 -14 m 169 418 l 579 418 q 524 562 576 513 q 385 611 471 611 q 242 560 299 611 q 169 418 185 510 m 600 1042 l 442 810 l 317 810 l 158 1042 l 260 1042 l 379 882 l 499 1042 l 600 1042 z "},"ê":{"ha":744,"x_min":53,"x_max":697,"o":"m 394 -14 q 217 29 294 -14 q 97 153 140 72 q 53 347 53 235 q 96 541 53 460 q 215 665 139 622 q 388 708 290 708 q 554 667 485 708 q 660 556 624 626 q 697 397 697 486 q 696 354 697 374 q 692 319 694 335 l 165 319 q 231 147 171 211 q 392 83 290 83 q 516 113 468 83 q 593 192 564 142 l 681 140 q 569 28 642 69 q 394 -14 496 -14 m 169 418 l 579 418 q 524 562 576 513 q 385 611 471 611 q 242 560 299 611 q 169 418 185 510 m 600 800 l 499 800 l 379 960 l 260 800 l 158 800 l 317 1032 l 442 1032 l 600 800 z "},"ë":{"ha":744,"x_min":53,"x_max":697,"o":"m 394 -14 q 217 29 294 -14 q 97 153 140 72 q 53 347 53 235 q 96 541 53 460 q 215 665 139 622 q 388 708 290 708 q 554 667 485 708 q 660 556 624 626 q 697 397 697 486 q 696 354 697 374 q 692 319 694 335 l 165 319 q 231 147 171 211 q 392 83 290 83 q 516 113 468 83 q 593 192 564 142 l 681 140 q 569 28 642 69 q 394 -14 496 -14 m 169 418 l 579 418 q 524 562 576 513 q 385 611 471 611 q 242 560 299 611 q 169 418 185 510 m 244 967 q 302 945 281 967 q 324 888 324 924 q 302 831 324 853 q 244 808 281 808 q 188 831 210 808 q 165 888 165 853 q 188 945 165 924 q 244 967 210 967 m 514 967 q 572 945 550 967 q 593 888 593 924 q 572 831 593 853 q 514 808 550 808 q 457 831 479 808 q 435 888 435 853 q 457 945 435 924 q 514 967 479 967 z "},"ė":{"ha":744,"x_min":53,"x_max":697,"o":"m 394 -14 q 217 29 294 -14 q 97 153 140 72 q 53 347 53 235 q 96 541 53 460 q 215 665 139 622 q 388 708 290 708 q 554 667 485 708 q 660 556 624 626 q 697 397 697 486 q 696 354 697 374 q 692 319 694 335 l 165 319 q 231 147 171 211 q 392 83 290 83 q 516 113 468 83 q 593 192 564 142 l 681 140 q 569 28 642 69 q 394 -14 496 -14 m 169 418 l 579 418 q 524 562 576 513 q 385 611 471 611 q 242 560 299 611 q 169 418 185 510 m 379 989 q 440 966 417 989 q 463 906 463 943 q 440 845 463 868 q 379 822 417 822 q 319 845 342 822 q 296 906 296 868 q 319 966 296 943 q 379 989 342 989 z "},"è":{"ha":744,"x_min":53,"x_max":697,"o":"m 394 -14 q 217 29 294 -14 q 97 153 140 72 q 53 347 53 235 q 96 541 53 460 q 215 665 139 622 q 388 708 290 708 q 554 667 485 708 q 660 556 624 626 q 697 397 697 486 q 696 354 697 374 q 692 319 694 335 l 165 319 q 231 147 171 211 q 392 83 290 83 q 516 113 468 83 q 593 192 564 142 l 681 140 q 569 28 642 69 q 394 -14 496 -14 m 169 418 l 579 418 q 524 562 576 513 q 385 611 471 611 q 242 560 299 611 q 169 418 185 510 m 332 1042 l 438 810 l 347 810 l 211 1042 l 332 1042 z "},"ē":{"ha":744,"x_min":53,"x_max":697,"o":"m 394 -14 q 217 29 294 -14 q 97 153 140 72 q 53 347 53 235 q 96 541 53 460 q 215 665 139 622 q 388 708 290 708 q 554 667 485 708 q 660 556 624 626 q 697 397 697 486 q 696 354 697 374 q 692 319 694 335 l 165 319 q 231 147 171 211 q 392 83 290 83 q 516 113 468 83 q 593 192 564 142 l 681 140 q 569 28 642 69 q 394 -14 496 -14 m 169 418 l 579 418 q 524 562 576 513 q 385 611 471 611 q 242 560 299 611 q 169 418 185 510 m 607 921 l 607 828 l 151 828 l 151 921 l 607 921 z "},"ę":{"ha":744,"x_min":53,"x_max":697,"o":"m 394 -14 q 217 29 294 -14 q 97 153 140 72 q 53 347 53 235 q 96 541 53 460 q 215 665 139 622 q 388 708 290 708 q 554 667 485 708 q 660 556 624 626 q 697 397 697 486 q 696 354 697 374 q 692 319 694 335 l 165 319 q 231 147 171 211 q 392 83 290 83 q 516 113 468 83 q 593 192 564 142 l 681 140 q 569 28 642 69 q 394 -14 496 -14 m 169 418 l 579 418 q 524 562 576 513 q 385 611 471 611 q 242 560 299 611 q 169 418 185 510 m 429 -311 q 308 -272 350 -311 q 265 -168 265 -232 q 315 -44 265 -90 q 467 39 364 1 l 528 10 q 414 -45 451 -18 q 365 -99 376 -72 q 353 -156 353 -126 q 376 -211 353 -192 q 439 -231 400 -231 q 515 -215 481 -231 l 532 -289 q 486 -305 514 -299 q 429 -311 458 -311 z "},"f":{"ha":515,"x_min":26,"x_max":519,"o":"m 508 694 l 508 599 l 276 599 l 276 0 l 165 0 l 165 599 l 26 599 l 26 694 l 165 694 l 165 761 q 224 924 165 864 q 400 985 282 985 q 519 958 469 985 l 483 863 q 403 883 444 883 q 310 855 343 883 q 276 764 276 826 l 276 694 l 508 694 z "},"g":{"ha":819,"x_min":56,"x_max":718,"o":"m 383 -282 q 176 -231 267 -282 q 56 -67 85 -179 l 168 -35 q 243 -147 188 -107 q 397 -187 299 -187 q 518 -156 472 -187 q 585 -71 564 -125 q 606 51 606 -17 l 606 114 q 508 19 574 53 q 369 -14 443 -14 q 212 29 283 -14 q 99 153 140 72 q 57 347 57 235 q 101 543 57 463 q 219 666 146 624 q 381 708 293 708 q 519 673 454 708 q 614 575 585 638 l 621 694 l 718 694 l 718 78 q 635 -192 718 -101 q 383 -282 553 -282 m 388 83 q 547 156 486 83 q 607 351 607 229 q 548 544 607 476 q 390 611 489 611 q 229 539 288 611 q 171 347 171 467 q 228 156 171 228 q 388 83 285 83 z "},"ğ":{"ha":819,"x_min":56,"x_max":718,"o":"m 383 -282 q 176 -231 267 -282 q 56 -67 85 -179 l 168 -35 q 243 -147 188 -107 q 397 -187 299 -187 q 518 -156 472 -187 q 585 -71 564 -125 q 606 51 606 -17 l 606 114 q 508 19 574 53 q 369 -14 443 -14 q 212 29 283 -14 q 99 153 140 72 q 57 347 57 235 q 101 543 57 463 q 219 666 146 624 q 381 708 293 708 q 519 673 454 708 q 614 575 585 638 l 621 694 l 718 694 l 718 78 q 635 -192 718 -101 q 383 -282 553 -282 m 388 83 q 547 156 486 83 q 607 351 607 229 q 548 544 607 476 q 390 611 489 611 q 229 539 288 611 q 171 347 171 467 q 228 156 171 228 q 388 83 285 83 m 576 1007 q 519 858 576 915 q 371 801 463 801 q 222 858 279 801 q 165 1007 165 915 l 256 1007 q 286 922 257 958 q 371 885 315 885 q 456 922 428 885 q 486 1007 485 958 l 576 1007 z "},"ģ":{"ha":819,"x_min":56,"x_max":718,"o":"m 496 1081 l 438 815 l 315 815 l 413 1081 l 496 1081 m 383 -282 q 176 -231 267 -282 q 56 -67 85 -179 l 168 -35 q 243 -147 188 -107 q 397 -187 299 -187 q 518 -156 472 -187 q 585 -71 564 -125 q 606 51 606 -17 l 606 114 q 508 19 574 53 q 369 -14 443 -14 q 212 29 283 -14 q 99 153 140 72 q 57 347 57 235 q 101 543 57 463 q 219 666 146 624 q 381 708 293 708 q 519 673 454 708 q 614 575 585 638 l 621 694 l 718 694 l 718 78 q 635 -192 718 -101 q 383 -282 553 -282 m 388 83 q 547 156 486 83 q 607 351 607 229 q 548 544 607 476 q 390 611 489 611 q 229 539 288 611 q 171 347 171 467 q 228 156 171 228 q 388 83 285 83 z "},"h":{"ha":804,"x_min":101,"x_max":710,"o":"m 101 0 l 101 978 l 213 978 l 213 590 q 308 681 249 653 q 439 708 368 708 q 575 680 514 708 q 673 593 636 651 q 710 444 710 535 l 710 0 l 599 0 l 599 406 q 549 566 599 521 q 428 611 500 611 q 328 588 378 611 q 245 510 278 564 q 213 368 213 457 l 213 0 l 101 0 z "},"i":{"ha":314,"x_min":74,"x_max":240,"o":"m 213 694 l 213 0 l 101 0 l 101 694 l 213 694 m 157 989 q 217 966 194 989 q 240 906 240 943 q 217 845 240 868 q 157 822 194 822 q 97 845 119 822 q 74 906 74 868 q 97 966 74 943 q 157 989 119 989 z "},"ı":{"ha":314,"x_min":101,"x_max":213,"o":"m 213 694 l 213 0 l 101 0 l 101 694 l 213 694 z "},"í":{"ha":314,"x_min":89,"x_max":315,"o":"m 213 694 l 213 0 l 101 0 l 101 694 l 213 694 m 194 1042 l 315 1042 l 179 810 l 89 810 l 194 1042 z "},"î":{"ha":314,"x_min":-64,"x_max":378,"o":"m 213 694 l 213 0 l 101 0 l 101 694 l 213 694 m 378 800 l 276 800 l 157 960 l 38 800 l -64 800 l 94 1032 l 219 1032 l 378 800 z "},"ï":{"ha":314,"x_min":-57,"x_max":371,"o":"m 213 694 l 213 0 l 101 0 l 101 694 l 213 694 m 22 967 q 80 945 58 967 q 101 888 101 924 q 80 831 101 853 q 22 808 58 808 q -35 831 -12 808 q -57 888 -57 853 q -35 945 -57 924 q 22 967 -12 967 m 292 967 q 349 945 328 967 q 371 888 371 924 q 349 831 371 853 q 292 808 328 808 q 235 831 257 808 q 213 888 213 853 q 235 945 213 924 q 292 967 257 967 z "},"ì":{"ha":314,"x_min":-11,"x_max":215,"o":"m 213 694 l 213 0 l 101 0 l 101 694 l 213 694 m 110 1042 l 215 810 l 125 810 l -11 1042 l 110 1042 z "},"ī":{"ha":314,"x_min":-71,"x_max":385,"o":"m 213 694 l 213 0 l 101 0 l 101 694 l 213 694 m 385 921 l 385 828 l -71 828 l -71 921 l 385 921 z "},"į":{"ha":314,"x_min":-50,"x_max":240,"o":"m 213 694 l 213 0 l 101 0 l 101 694 l 213 694 m 157 989 q 217 966 194 989 q 240 906 240 943 q 217 845 240 868 q 157 822 194 822 q 97 845 119 822 q 74 906 74 868 q 97 966 74 943 q 157 989 119 989 m 114 -321 q -8 -281 35 -321 q -50 -178 -50 -242 q -1 -54 -50 -100 q 151 29 49 -8 l 213 0 q 99 -55 136 -28 q 49 -109 61 -82 q 38 -165 38 -136 q 61 -221 38 -201 q 124 -240 85 -240 q 200 -225 165 -240 l 217 -299 q 171 -315 199 -308 q 114 -321 143 -321 z "},"j":{"ha":314,"x_min":-117,"x_max":240,"o":"m 213 694 l 213 -49 q 179 -185 213 -135 q 97 -256 146 -235 q 1 -276 49 -276 q -65 -270 -35 -276 q -117 -256 -96 -264 l -93 -150 q -53 -162 -75 -157 q 0 -168 -31 -168 q 73 -139 44 -168 q 101 -37 101 -110 l 101 694 l 213 694 m 157 989 q 217 966 194 989 q 240 906 240 943 q 217 845 240 868 q 157 822 194 822 q 97 845 119 822 q 74 906 74 868 q 97 966 74 943 q 157 989 119 989 z "},"ȷ":{"ha":314,"x_min":-117,"x_max":213,"o":"m 213 694 l 213 -49 q 179 -185 213 -135 q 97 -256 146 -235 q 1 -276 49 -276 q -65 -270 -35 -276 q -117 -256 -96 -264 l -93 -150 q -53 -162 -75 -157 q 0 -168 -31 -168 q 73 -139 44 -168 q 101 -37 101 -110 l 101 694 l 213 694 z "},"ĵ":{"ha":314,"x_min":-117,"x_max":378,"o":"m 213 694 l 213 -49 q 179 -185 213 -135 q 97 -256 146 -235 q 1 -276 49 -276 q -65 -270 -35 -276 q -117 -256 -96 -264 l -93 -150 q -53 -162 -75 -157 q 0 -168 -31 -168 q 73 -139 44 -168 q 101 -37 101 -110 l 101 694 l 213 694 m 378 800 l 276 800 l 157 960 l 38 800 l -64 800 l 94 1032 l 219 1032 l 378 800 z "},"k":{"ha":728,"x_min":101,"x_max":728,"o":"m 711 694 l 440 424 l 728 0 l 593 0 l 360 343 l 213 196 l 213 0 l 101 0 l 101 978 l 213 978 l 213 335 l 571 694 l 711 694 z "},"ķ":{"ha":728,"x_min":101,"x_max":728,"o":"m 711 694 l 440 424 l 728 0 l 593 0 l 360 343 l 213 196 l 213 0 l 101 0 l 101 978 l 213 978 l 213 335 l 571 694 l 711 694 m 461 -106 l 371 -329 l 283 -329 l 344 -106 l 461 -106 z "},"l":{"ha":369,"x_min":96,"x_max":389,"o":"m 207 978 l 207 182 q 228 109 207 129 q 282 89 249 89 q 326 95 307 89 q 363 111 346 101 l 389 14 q 269 -14 333 -14 q 96 167 96 -14 l 96 978 l 207 978 z "},"ĺ":{"ha":369,"x_min":92,"x_max":389,"o":"m 183 1314 l 300 1314 l 181 1093 l 92 1093 l 183 1314 m 207 978 l 207 182 q 228 109 207 129 q 282 89 249 89 q 326 95 307 89 q 363 111 346 101 l 389 14 q 269 -14 333 -14 q 96 167 96 -14 l 96 978 l 207 978 z "},"ľ":{"ha":404,"x_min":96,"x_max":435,"o":"m 435 978 l 378 704 l 286 704 l 314 978 l 435 978 m 207 978 l 207 182 q 228 109 207 129 q 282 89 249 89 q 326 95 307 89 q 363 111 346 101 l 389 14 q 269 -14 333 -14 q 96 167 96 -14 l 96 978 l 207 978 z "},"ļ":{"ha":369,"x_min":96,"x_max":389,"o":"m 207 978 l 207 182 q 228 109 207 129 q 282 89 249 89 q 326 95 307 89 q 363 111 346 101 l 389 14 q 269 -14 333 -14 q 96 167 96 -14 l 96 978 l 207 978 m 300 -106 l 210 -329 l 122 -329 l 183 -106 l 300 -106 z "},"ł":{"ha":453,"x_min":18,"x_max":451,"o":"m 429 694 l 429 579 l 269 476 l 269 182 q 290 109 269 129 q 344 89 311 89 q 389 95 369 89 q 425 111 408 101 l 451 14 q 332 -14 396 -14 q 158 167 158 -14 l 158 408 l 18 318 l 18 433 l 158 524 l 158 978 l 269 978 l 269 592 l 429 694 z "},"m":{"ha":1268,"x_min":101,"x_max":1174,"o":"m 101 0 l 101 694 l 199 694 l 206 586 q 303 679 243 650 q 428 708 364 708 q 567 675 501 708 q 667 572 632 642 q 729 649 689 619 q 817 694 769 679 q 908 708 865 708 q 1035 681 975 708 q 1135 594 1096 653 q 1174 444 1174 536 l 1174 0 l 1063 0 l 1063 433 q 1015 569 1063 528 q 899 611 968 611 q 797 585 844 611 q 722 507 750 558 q 693 381 693 456 l 693 0 l 582 0 l 582 433 q 535 569 582 528 q 418 611 488 611 q 324 587 372 611 q 244 510 276 563 q 213 371 213 457 l 213 0 l 101 0 z "},"n":{"ha":804,"x_min":101,"x_max":710,"o":"m 101 0 l 101 694 l 199 694 l 206 586 q 304 680 242 651 q 439 708 367 708 q 575 680 514 708 q 673 593 636 651 q 710 444 710 535 l 710 0 l 599 0 l 599 406 q 549 566 599 521 q 428 611 500 611 q 328 588 378 611 q 245 511 278 564 q 213 369 213 458 l 213 0 l 101 0 z "},"ń":{"ha":804,"x_min":101,"x_max":710,"o":"m 101 0 l 101 694 l 199 694 l 206 586 q 304 680 242 651 q 439 708 367 708 q 575 680 514 708 q 673 593 636 651 q 710 444 710 535 l 710 0 l 599 0 l 599 406 q 549 566 599 521 q 428 611 500 611 q 328 588 378 611 q 245 511 278 564 q 213 369 213 458 l 213 0 l 101 0 m 451 1042 l 572 1042 l 436 810 l 346 810 l 451 1042 z "},"ň":{"ha":804,"x_min":101,"x_max":710,"o":"m 101 0 l 101 694 l 199 694 l 206 586 q 304 680 242 651 q 439 708 367 708 q 575 680 514 708 q 673 593 636 651 q 710 444 710 535 l 710 0 l 599 0 l 599 406 q 549 566 599 521 q 428 611 500 611 q 328 588 378 611 q 245 511 278 564 q 213 369 213 458 l 213 0 l 101 0 m 635 1042 l 476 810 l 351 810 l 193 1042 l 294 1042 l 414 882 l 533 1042 l 635 1042 z "},"ņ":{"ha":804,"x_min":101,"x_max":710,"o":"m 101 0 l 101 694 l 199 694 l 206 586 q 304 680 242 651 q 439 708 367 708 q 575 680 514 708 q 673 593 636 651 q 710 444 710 535 l 710 0 l 599 0 l 599 406 q 549 566 599 521 q 428 611 500 611 q 328 588 378 611 q 245 511 278 564 q 213 369 213 458 l 213 0 l 101 0 m 499 -106 l 408 -329 l 321 -329 l 382 -106 l 499 -106 z "},"ñ":{"ha":804,"x_min":101,"x_max":710,"o":"m 101 0 l 101 694 l 199 694 l 206 586 q 304 680 242 651 q 439 708 367 708 q 575 680 514 708 q 673 593 636 651 q 710 444 710 535 l 710 0 l 599 0 l 599 406 q 549 566 599 521 q 428 611 500 611 q 328 588 378 611 q 245 511 278 564 q 213 369 213 458 l 213 0 l 101 0 m 664 996 q 508 810 649 810 q 442 824 469 810 q 396 857 415 839 q 358 890 376 875 q 317 904 339 904 q 271 878 286 904 q 249 808 256 853 l 161 808 q 206 947 168 900 q 318 994 244 994 q 383 980 356 994 q 430 947 410 965 q 468 915 450 929 q 507 900 486 900 q 554 926 539 900 q 576 996 569 951 l 664 996 z "},"o":{"ha":783,"x_min":53,"x_max":731,"o":"m 392 708 q 567 665 490 708 q 687 541 643 622 q 731 347 731 460 q 687 153 731 235 q 567 29 643 72 q 392 -14 490 -14 q 217 29 293 -14 q 97 153 140 72 q 53 347 53 235 q 97 541 53 460 q 217 665 140 622 q 392 708 293 708 m 392 613 q 226 542 286 613 q 167 347 167 471 q 226 153 167 224 q 392 82 286 82 q 557 153 497 82 q 617 347 617 224 q 557 542 617 471 q 392 613 497 613 z "},"ó":{"ha":783,"x_min":53,"x_max":731,"o":"m 392 708 q 567 665 490 708 q 687 541 643 622 q 731 347 731 460 q 687 153 731 235 q 567 29 643 72 q 392 -14 490 -14 q 217 29 293 -14 q 97 153 140 72 q 53 347 53 235 q 97 541 53 460 q 217 665 140 622 q 392 708 293 708 m 392 613 q 226 542 286 613 q 167 347 167 471 q 226 153 167 224 q 392 82 286 82 q 557 153 497 82 q 617 347 617 224 q 557 542 617 471 q 392 613 497 613 m 429 1042 l 550 1042 l 414 810 l 324 810 l 429 1042 z "},"ô":{"ha":783,"x_min":53,"x_max":731,"o":"m 392 708 q 567 665 490 708 q 687 541 643 622 q 731 347 731 460 q 687 153 731 235 q 567 29 643 72 q 392 -14 490 -14 q 217 29 293 -14 q 97 153 140 72 q 53 347 53 235 q 97 541 53 460 q 217 665 140 622 q 392 708 293 708 m 392 613 q 226 542 286 613 q 167 347 167 471 q 226 153 167 224 q 392 82 286 82 q 557 153 497 82 q 617 347 617 224 q 557 542 617 471 q 392 613 497 613 m 613 800 l 511 800 l 392 960 l 272 800 l 171 800 l 329 1032 l 454 1032 l 613 800 z "},"ö":{"ha":783,"x_min":53,"x_max":731,"o":"m 392 708 q 567 665 490 708 q 687 541 643 622 q 731 347 731 460 q 687 153 731 235 q 567 29 643 72 q 392 -14 490 -14 q 217 29 293 -14 q 97 153 140 72 q 53 347 53 235 q 97 541 53 460 q 217 665 140 622 q 392 708 293 708 m 392 613 q 226 542 286 613 q 167 347 167 471 q 226 153 167 224 q 392 82 286 82 q 557 153 497 82 q 617 347 617 224 q 557 542 617 471 q 392 613 497 613 m 257 967 q 315 945 293 967 q 336 888 336 924 q 315 831 336 853 q 257 808 293 808 q 200 831 222 808 q 178 888 178 853 q 200 945 178 924 q 257 967 222 967 m 526 967 q 584 945 563 967 q 606 888 606 924 q 584 831 606 853 q 526 808 563 808 q 469 831 492 808 q 447 888 447 853 q 469 945 447 924 q 526 967 492 967 z "},"ò":{"ha":783,"x_min":53,"x_max":731,"o":"m 392 708 q 567 665 490 708 q 687 541 643 622 q 731 347 731 460 q 687 153 731 235 q 567 29 643 72 q 392 -14 490 -14 q 217 29 293 -14 q 97 153 140 72 q 53 347 53 235 q 97 541 53 460 q 217 665 140 622 q 392 708 293 708 m 392 613 q 226 542 286 613 q 167 347 167 471 q 226 153 167 224 q 392 82 286 82 q 557 153 497 82 q 617 347 617 224 q 557 542 617 471 q 392 613 497 613 m 344 1042 l 450 810 l 360 810 l 224 1042 l 344 1042 z "},"ő":{"ha":783,"x_min":53,"x_max":731,"o":"m 392 708 q 567 665 490 708 q 687 541 643 622 q 731 347 731 460 q 687 153 731 235 q 567 29 643 72 q 392 -14 490 -14 q 217 29 293 -14 q 97 153 140 72 q 53 347 53 235 q 97 541 53 460 q 217 665 140 622 q 392 708 293 708 m 392 613 q 226 542 286 613 q 167 347 167 471 q 226 153 167 224 q 392 82 286 82 q 557 153 497 82 q 617 347 617 224 q 557 542 617 471 q 392 613 497 613 m 440 810 l 546 1042 l 667 1042 l 531 810 l 440 810 m 196 810 l 301 1042 l 422 1042 l 286 810 l 196 810 z "},"ō":{"ha":783,"x_min":53,"x_max":731,"o":"m 392 708 q 567 665 490 708 q 687 541 643 622 q 731 347 731 460 q 687 153 731 235 q 567 29 643 72 q 392 -14 490 -14 q 217 29 293 -14 q 97 153 140 72 q 53 347 53 235 q 97 541 53 460 q 217 665 140 622 q 392 708 293 708 m 392 613 q 226 542 286 613 q 167 347 167 471 q 226 153 167 224 q 392 82 286 82 q 557 153 497 82 q 617 347 617 224 q 557 542 617 471 q 392 613 497 613 m 619 921 l 619 828 l 164 828 l 164 921 l 619 921 z "},"ø":{"ha":783,"x_min":51,"x_max":732,"o":"m 51 -14 l 138 94 q 75 204 97 140 q 53 347 53 268 q 97 541 53 460 q 217 665 140 622 q 392 708 293 708 q 583 656 501 708 l 625 708 l 732 708 l 646 600 q 708 490 686 554 q 731 347 731 426 q 687 154 731 235 q 567 30 643 74 q 392 -14 490 -14 q 200 39 282 -14 l 158 -14 l 51 -14 m 392 613 q 226 542 286 613 q 167 347 167 471 q 207 181 167 247 l 519 575 q 392 613 467 613 m 617 347 q 576 514 617 447 l 264 119 q 392 82 317 82 q 557 153 497 82 q 617 347 617 224 z "},"õ":{"ha":783,"x_min":53,"x_max":731,"o":"m 392 708 q 567 665 490 708 q 687 541 643 622 q 731 347 731 460 q 687 153 731 235 q 567 29 643 72 q 392 -14 490 -14 q 217 29 293 -14 q 97 153 140 72 q 53 347 53 235 q 97 541 53 460 q 217 665 140 622 q 392 708 293 708 m 392 613 q 226 542 286 613 q 167 347 167 471 q 226 153 167 224 q 392 82 286 82 q 557 153 497 82 q 617 347 617 224 q 557 542 617 471 q 392 613 497 613 m 642 996 q 486 810 626 810 q 420 824 447 810 q 374 857 393 839 q 335 890 354 875 q 294 904 317 904 q 249 878 264 904 q 226 808 233 853 l 139 808 q 184 947 146 900 q 296 994 222 994 q 360 980 333 994 q 408 947 388 965 q 446 915 428 929 q 485 900 464 900 q 532 926 517 900 q 554 996 547 951 l 642 996 z "},"œ":{"ha":1300,"x_min":53,"x_max":1253,"o":"m 389 -14 q 215 29 292 -14 q 96 153 139 72 q 53 347 53 235 q 96 541 53 460 q 215 665 139 622 q 389 708 292 708 q 552 669 479 708 q 668 549 625 629 q 783 669 711 629 q 946 708 856 708 q 1112 667 1043 708 q 1217 553 1181 625 q 1253 393 1253 482 q 1251 350 1253 369 q 1247 315 1250 331 l 724 315 q 792 144 732 206 q 950 83 851 83 q 1074 113 1026 83 q 1151 192 1122 142 l 1239 140 q 1127 28 1200 69 q 953 -14 1054 -14 q 785 26 860 -14 q 668 144 711 65 q 553 26 625 65 q 389 -14 481 -14 m 389 82 q 554 153 494 82 q 614 347 614 224 q 554 542 614 471 q 389 613 494 613 q 224 542 283 613 q 164 347 164 471 q 224 153 164 224 q 389 82 283 82 m 943 611 q 799 559 856 611 q 728 414 743 507 l 1142 414 q 1084 560 1139 508 q 943 611 1029 611 z "},"p":{"ha":818,"x_min":101,"x_max":763,"o":"m 101 -269 l 101 694 l 199 694 l 206 572 q 303 671 238 633 q 458 708 368 708 q 613 665 544 708 q 722 542 682 622 q 763 347 763 461 q 719 153 763 235 q 604 29 676 72 q 446 -14 532 -14 q 305 20 365 -14 q 213 108 244 54 l 213 -269 l 101 -269 m 431 83 q 591 156 533 83 q 649 347 649 228 q 592 539 649 467 q 435 611 536 611 q 274 539 335 611 q 213 347 213 467 q 272 156 213 228 q 431 83 332 83 z "},"þ":{"ha":815,"x_min":101,"x_max":760,"o":"m 101 -269 l 101 978 l 213 978 l 213 586 q 306 674 246 640 q 443 708 367 708 q 601 665 529 708 q 717 542 674 622 q 760 347 760 461 q 716 153 760 235 q 600 29 672 72 q 442 -14 528 -14 q 304 20 364 -14 q 213 108 244 54 l 213 -269 l 101 -269 m 431 83 q 591 156 533 83 q 649 347 649 228 q 592 539 649 467 q 435 611 536 611 q 274 539 335 611 q 213 347 213 467 q 272 156 213 228 q 431 83 332 83 z "},"q":{"ha":818,"x_min":56,"x_max":717,"o":"m 606 -269 l 606 117 q 508 19 574 53 q 368 -14 442 -14 q 210 29 282 -14 q 97 153 139 72 q 56 347 56 235 q 100 543 56 463 q 218 666 144 624 q 379 708 292 708 q 519 673 454 708 q 613 575 583 638 l 619 694 l 717 694 l 717 -269 l 606 -269 m 386 83 q 545 156 485 83 q 606 351 606 229 q 547 544 606 476 q 389 611 488 611 q 228 539 286 611 q 169 347 169 467 q 226 156 169 228 q 386 83 283 83 z "},"r":{"ha":499,"x_min":101,"x_max":486,"o":"m 101 0 l 101 694 l 199 694 l 207 581 q 288 674 235 639 q 419 708 342 708 q 453 707 435 708 q 486 699 472 706 l 472 597 q 442 602 458 600 q 400 604 425 604 q 311 579 354 604 q 240 503 268 554 q 213 375 213 453 l 213 0 l 101 0 z "},"ŕ":{"ha":499,"x_min":101,"x_max":486,"o":"m 101 0 l 101 694 l 199 694 l 207 581 q 288 674 235 639 q 419 708 342 708 q 453 707 435 708 q 486 699 472 706 l 472 597 q 442 602 458 600 q 400 604 425 604 q 311 579 354 604 q 240 503 268 554 q 213 375 213 453 l 213 0 l 101 0 m 338 1042 l 458 1042 l 322 810 l 232 810 l 338 1042 z "},"ř":{"ha":499,"x_min":79,"x_max":521,"o":"m 101 0 l 101 694 l 199 694 l 207 581 q 288 674 235 639 q 419 708 342 708 q 453 707 435 708 q 486 699 472 706 l 472 597 q 442 602 458 600 q 400 604 425 604 q 311 579 354 604 q 240 503 268 554 q 213 375 213 453 l 213 0 l 101 0 m 521 1042 l 363 810 l 238 810 l 79 1042 l 181 1042 l 300 882 l 419 1042 l 521 1042 z "},"ŗ":{"ha":499,"x_min":31,"x_max":486,"o":"m 101 0 l 101 694 l 199 694 l 207 581 q 288 674 235 639 q 419 708 342 708 q 453 707 435 708 q 486 699 472 706 l 472 597 q 442 602 458 600 q 400 604 425 604 q 311 579 354 604 q 240 503 268 554 q 213 375 213 453 l 213 0 l 101 0 m 208 -106 l 118 -329 l 31 -329 l 92 -106 l 208 -106 z "},"s":{"ha":658,"x_min":29,"x_max":621,"o":"m 351 -14 q 165 26 246 -14 q 29 151 85 67 l 119 219 q 221 121 163 158 q 361 83 279 83 q 470 112 431 83 q 510 186 510 140 q 491 240 510 215 q 419 275 472 265 l 256 308 q 110 378 154 329 q 67 494 67 426 q 99 602 67 554 q 192 679 132 650 q 332 708 251 708 q 503 670 435 708 q 613 558 571 632 l 519 497 q 440 584 490 557 q 332 611 389 611 q 218 583 260 611 q 176 504 176 554 q 197 447 176 474 q 275 410 218 421 l 446 375 q 582 311 543 356 q 621 203 621 267 q 548 45 621 104 q 351 -14 475 -14 z "},"ś":{"ha":658,"x_min":29,"x_max":621,"o":"m 351 -14 q 165 26 246 -14 q 29 151 85 67 l 119 219 q 221 121 163 158 q 361 83 279 83 q 470 112 431 83 q 510 186 510 140 q 491 240 510 215 q 419 275 472 265 l 256 308 q 110 378 154 329 q 67 494 67 426 q 99 602 67 554 q 192 679 132 650 q 332 708 251 708 q 503 670 435 708 q 613 558 571 632 l 519 497 q 440 584 490 557 q 332 611 389 611 q 218 583 260 611 q 176 504 176 554 q 197 447 176 474 q 275 410 218 421 l 446 375 q 582 311 543 356 q 621 203 621 267 q 548 45 621 104 q 351 -14 475 -14 m 369 1042 l 490 1042 l 354 810 l 264 810 l 369 1042 z "},"š":{"ha":658,"x_min":29,"x_max":621,"o":"m 351 -14 q 165 26 246 -14 q 29 151 85 67 l 119 219 q 221 121 163 158 q 361 83 279 83 q 470 112 431 83 q 510 186 510 140 q 491 240 510 215 q 419 275 472 265 l 256 308 q 110 378 154 329 q 67 494 67 426 q 99 602 67 554 q 192 679 132 650 q 332 708 251 708 q 503 670 435 708 q 613 558 571 632 l 519 497 q 440 584 490 557 q 332 611 389 611 q 218 583 260 611 q 176 504 176 554 q 197 447 176 474 q 275 410 218 421 l 446 375 q 582 311 543 356 q 621 203 621 267 q 548 45 621 104 q 351 -14 475 -14 m 553 1042 l 394 810 l 269 810 l 111 1042 l 213 1042 l 332 882 l 451 1042 l 553 1042 z "},"ş":{"ha":658,"x_min":29,"x_max":621,"o":"m 351 -14 q 165 26 246 -14 q 29 151 85 67 l 119 219 q 221 121 163 158 q 361 83 279 83 q 470 112 431 83 q 510 186 510 140 q 491 240 510 215 q 419 275 472 265 l 256 308 q 110 378 154 329 q 67 494 67 426 q 99 602 67 554 q 192 679 132 650 q 332 708 251 708 q 503 670 435 708 q 613 558 571 632 l 519 497 q 440 584 490 557 q 332 611 389 611 q 218 583 260 611 q 176 504 176 554 q 197 447 176 474 q 275 410 218 421 l 446 375 q 582 311 543 356 q 621 203 621 267 q 548 45 621 104 q 351 -14 475 -14 m 263 6 l 321 40 q 438 -31 403 14 q 472 -137 472 -76 q 425 -251 472 -204 q 304 -299 378 -299 q 228 -287 261 -299 q 172 -258 196 -276 l 199 -178 q 240 -200 218 -190 q 292 -210 261 -210 q 356 -185 331 -210 q 381 -112 381 -160 q 354 -50 381 -76 q 263 6 328 -24 z "},"ș":{"ha":658,"x_min":29,"x_max":621,"o":"m 351 -14 q 165 26 246 -14 q 29 151 85 67 l 119 219 q 221 121 163 158 q 361 83 279 83 q 470 112 431 83 q 510 186 510 140 q 491 240 510 215 q 419 275 472 265 l 256 308 q 110 378 154 329 q 67 494 67 426 q 99 602 67 554 q 192 679 132 650 q 332 708 251 708 q 503 670 435 708 q 613 558 571 632 l 519 497 q 440 584 490 557 q 332 611 389 611 q 218 583 260 611 q 176 504 176 554 q 197 447 176 474 q 275 410 218 421 l 446 375 q 582 311 543 356 q 621 203 621 267 q 548 45 621 104 q 351 -14 475 -14 m 390 -106 l 300 -329 l 213 -329 l 274 -106 l 390 -106 z "},"ß":{"ha":786,"x_min":97,"x_max":754,"o":"m 558 517 q 677 471 635 510 q 737 378 719 432 q 754 269 754 325 q 723 125 754 189 q 630 24 692 61 q 476 -14 568 -14 q 356 1 406 -14 q 286 32 307 17 l 325 122 q 388 95 353 107 q 475 83 424 83 q 601 136 561 83 q 640 274 640 189 q 589 409 640 361 q 436 457 538 457 l 343 457 l 343 556 l 429 556 q 547 601 506 556 q 589 722 589 646 q 540 844 589 801 q 415 886 490 886 q 256 817 304 886 q 208 625 208 749 l 208 0 l 97 0 l 97 649 q 131 817 97 742 q 235 937 164 892 q 421 982 307 982 q 581 947 519 982 q 673 855 643 911 q 703 733 703 799 q 663 597 703 656 q 558 519 624 538 l 558 517 z "},"t":{"ha":538,"x_min":10,"x_max":542,"o":"m 500 136 l 542 46 q 464 3 508 19 q 368 -14 419 -14 q 222 32 282 -14 q 161 182 161 78 l 161 599 l 10 599 l 10 694 l 161 694 l 161 903 l 272 903 l 272 694 l 517 694 l 517 599 l 272 599 l 272 197 q 297 119 272 149 q 375 90 321 90 q 444 102 415 90 q 500 136 474 114 z "},"ť":{"ha":538,"x_min":10,"x_max":542,"o":"m 506 1065 l 449 792 l 357 792 l 385 1065 l 506 1065 m 500 136 l 542 46 q 464 3 508 19 q 368 -14 419 -14 q 222 32 282 -14 q 161 182 161 78 l 161 599 l 10 599 l 10 694 l 161 694 l 161 903 l 272 903 l 272 694 l 517 694 l 517 599 l 272 599 l 272 197 q 297 119 272 149 q 375 90 321 90 q 444 102 415 90 q 500 136 474 114 z "},"ţ":{"ha":538,"x_min":10,"x_max":542,"o":"m 500 136 l 542 46 q 464 3 508 19 q 368 -14 419 -14 q 222 32 282 -14 q 161 182 161 78 l 161 599 l 10 599 l 10 694 l 161 694 l 161 903 l 272 903 l 272 694 l 517 694 l 517 599 l 272 599 l 272 197 q 297 119 272 149 q 375 90 321 90 q 444 102 415 90 q 500 136 474 114 m 258 6 l 317 40 q 433 -31 399 14 q 468 -137 468 -76 q 421 -251 468 -204 q 300 -299 374 -299 q 224 -287 257 -299 q 168 -258 192 -276 l 194 -178 q 235 -200 214 -190 q 288 -210 257 -210 q 351 -185 326 -210 q 376 -112 376 -160 q 350 -50 376 -76 q 258 6 324 -24 z "},"ț":{"ha":538,"x_min":10,"x_max":542,"o":"m 500 136 l 542 46 q 464 3 508 19 q 368 -14 419 -14 q 222 32 282 -14 q 161 182 161 78 l 161 599 l 10 599 l 10 694 l 161 694 l 161 903 l 272 903 l 272 694 l 517 694 l 517 599 l 272 599 l 272 197 q 297 119 272 149 q 375 90 321 90 q 444 102 415 90 q 500 136 474 114 m 386 -106 l 296 -329 l 208 -329 l 269 -106 l 386 -106 z "},"u":{"ha":801,"x_min":94,"x_max":700,"o":"m 353 -14 q 227 11 286 -14 q 131 92 168 36 q 94 239 94 149 l 94 694 l 206 694 l 206 268 q 251 123 206 163 q 381 83 297 83 q 481 108 433 83 q 558 183 528 132 q 589 317 589 235 l 589 694 l 700 694 l 700 0 l 603 0 l 596 106 q 498 15 560 43 q 353 -14 436 -14 z "},"ú":{"ha":801,"x_min":94,"x_max":700,"o":"m 353 -14 q 227 11 286 -14 q 131 92 168 36 q 94 239 94 149 l 94 694 l 206 694 l 206 268 q 251 123 206 163 q 381 83 297 83 q 481 108 433 83 q 558 183 528 132 q 589 317 589 235 l 589 694 l 700 694 l 700 0 l 603 0 l 596 106 q 498 15 560 43 q 353 -14 436 -14 m 435 1028 l 556 1028 l 419 796 l 329 796 l 435 1028 z "},"û":{"ha":801,"x_min":94,"x_max":700,"o":"m 353 -14 q 227 11 286 -14 q 131 92 168 36 q 94 239 94 149 l 94 694 l 206 694 l 206 268 q 251 123 206 163 q 381 83 297 83 q 481 108 433 83 q 558 183 528 132 q 589 317 589 235 l 589 694 l 700 694 l 700 0 l 603 0 l 596 106 q 498 15 560 43 q 353 -14 436 -14 m 618 786 l 517 786 l 397 946 l 278 786 l 176 786 l 335 1018 l 460 1018 l 618 786 z "},"ü":{"ha":801,"x_min":94,"x_max":700,"o":"m 353 -14 q 227 11 286 -14 q 131 92 168 36 q 94 239 94 149 l 94 694 l 206 694 l 206 268 q 251 123 206 163 q 381 83 297 83 q 481 108 433 83 q 558 183 528 132 q 589 317 589 235 l 589 694 l 700 694 l 700 0 l 603 0 l 596 106 q 498 15 560 43 q 353 -14 436 -14 m 263 953 q 320 931 299 953 q 342 874 342 910 q 320 817 342 839 q 263 794 299 794 q 206 817 228 794 q 183 874 183 839 q 206 931 183 910 q 263 953 228 953 m 532 953 q 590 931 568 953 q 611 874 611 910 q 590 817 611 839 q 532 794 568 794 q 475 817 497 794 q 453 874 453 839 q 475 931 453 910 q 532 953 497 953 z "},"ù":{"ha":801,"x_min":94,"x_max":700,"o":"m 353 -14 q 227 11 286 -14 q 131 92 168 36 q 94 239 94 149 l 94 694 l 206 694 l 206 268 q 251 123 206 163 q 381 83 297 83 q 481 108 433 83 q 558 183 528 132 q 589 317 589 235 l 589 694 l 700 694 l 700 0 l 603 0 l 596 106 q 498 15 560 43 q 353 -14 436 -14 m 350 1028 l 456 796 l 365 796 l 229 1028 l 350 1028 z "},"ű":{"ha":801,"x_min":94,"x_max":700,"o":"m 353 -14 q 227 11 286 -14 q 131 92 168 36 q 94 239 94 149 l 94 694 l 206 694 l 206 268 q 251 123 206 163 q 381 83 297 83 q 481 108 433 83 q 558 183 528 132 q 589 317 589 235 l 589 694 l 700 694 l 700 0 l 603 0 l 596 106 q 498 15 560 43 q 353 -14 436 -14 m 446 796 l 551 1028 l 672 1028 l 536 796 l 446 796 m 201 796 l 307 1028 l 428 1028 l 292 796 l 201 796 z "},"ū":{"ha":801,"x_min":94,"x_max":700,"o":"m 353 -14 q 227 11 286 -14 q 131 92 168 36 q 94 239 94 149 l 94 694 l 206 694 l 206 268 q 251 123 206 163 q 381 83 297 83 q 481 108 433 83 q 558 183 528 132 q 589 317 589 235 l 589 694 l 700 694 l 700 0 l 603 0 l 596 106 q 498 15 560 43 q 353 -14 436 -14 m 625 907 l 625 814 l 169 814 l 169 907 l 625 907 z "},"ų":{"ha":801,"x_min":94,"x_max":704,"o":"m 353 -14 q 227 11 286 -14 q 131 92 168 36 q 94 239 94 149 l 94 694 l 206 694 l 206 268 q 251 123 206 163 q 381 83 297 83 q 481 108 433 83 q 558 183 528 132 q 589 317 589 235 l 589 694 l 700 694 l 700 0 l 603 0 l 596 106 q 498 15 560 43 q 353 -14 436 -14 m 601 -321 q 480 -281 522 -321 q 438 -178 438 -242 q 487 -54 438 -100 q 639 29 536 -8 l 700 0 q 586 -55 624 -28 q 537 -109 549 -82 q 525 -165 525 -136 q 549 -221 525 -201 q 611 -240 572 -240 q 688 -225 653 -240 l 704 -299 q 658 -315 686 -308 q 601 -321 631 -321 z "},"ů":{"ha":801,"x_min":94,"x_max":700,"o":"m 353 -14 q 227 11 286 -14 q 131 92 168 36 q 94 239 94 149 l 94 694 l 206 694 l 206 268 q 251 123 206 163 q 381 83 297 83 q 481 108 433 83 q 558 183 528 132 q 589 317 589 235 l 589 694 l 700 694 l 700 0 l 603 0 l 596 106 q 498 15 560 43 q 353 -14 436 -14 m 393 1114 q 519 1069 471 1114 q 567 950 567 1024 q 519 831 567 876 q 393 785 471 785 q 267 831 315 785 q 218 950 218 876 q 267 1069 218 1024 q 393 1114 315 1114 m 393 1046 q 322 1019 350 1046 q 294 950 294 992 q 322 881 294 908 q 393 854 350 854 q 464 881 436 854 q 492 950 492 908 q 464 1019 492 992 q 393 1046 436 1046 z "},"v":{"ha":667,"x_min":-11,"x_max":678,"o":"m 561 694 l 678 694 l 389 0 l 278 0 l -11 694 l 115 694 l 335 111 l 561 694 z "},"w":{"ha":1106,"x_min":10,"x_max":1096,"o":"m 972 694 l 1096 694 l 854 0 l 743 0 l 547 553 l 363 0 l 251 0 l 10 694 l 133 694 l 308 129 l 497 694 l 608 694 l 797 129 l 972 694 z "},"x":{"ha":685,"x_min":13,"x_max":667,"o":"m 667 0 l 529 0 l 338 272 l 146 0 l 13 0 l 275 357 l 25 694 l 165 694 l 346 439 l 525 694 l 658 694 l 408 354 l 667 0 z "},"y":{"ha":671,"x_min":-39,"x_max":682,"o":"m 126 -278 q 42 -270 86 -278 q -39 -244 -1 -262 l -10 -143 q 56 -165 22 -156 q 128 -174 89 -174 q 196 -155 164 -174 q 258 -67 228 -136 l 289 4 l -12 694 l 113 694 l 343 129 l 563 694 l 682 694 l 357 -94 q 258 -237 315 -196 q 126 -278 200 -278 z "},"ý":{"ha":671,"x_min":-39,"x_max":682,"o":"m 126 -278 q 42 -270 86 -278 q -39 -244 -1 -262 l -10 -143 q 56 -165 22 -156 q 128 -174 89 -174 q 196 -155 164 -174 q 258 -67 228 -136 l 289 4 l -12 694 l 113 694 l 343 129 l 563 694 l 682 694 l 357 -94 q 258 -237 315 -196 q 126 -278 200 -278 m 372 1028 l 493 1028 l 357 796 l 267 796 l 372 1028 z "},"ÿ":{"ha":671,"x_min":-39,"x_max":682,"o":"m 126 -278 q 42 -270 86 -278 q -39 -244 -1 -262 l -10 -143 q 56 -165 22 -156 q 128 -174 89 -174 q 196 -155 164 -174 q 258 -67 228 -136 l 289 4 l -12 694 l 113 694 l 343 129 l 563 694 l 682 694 l 357 -94 q 258 -237 315 -196 q 126 -278 200 -278 m 200 953 q 258 931 236 953 q 279 874 279 910 q 258 817 279 839 q 200 794 236 794 q 143 817 165 794 q 121 874 121 839 q 143 931 121 910 q 200 953 165 953 m 469 953 q 527 931 506 953 q 549 874 549 910 q 527 817 549 839 q 469 794 506 794 q 413 817 435 794 q 390 874 390 839 q 413 931 390 910 q 469 953 435 953 z "},"z":{"ha":685,"x_min":56,"x_max":642,"o":"m 56 0 l 56 85 l 493 599 l 60 599 l 60 694 l 631 694 l 631 610 l 194 96 l 642 96 l 642 0 l 56 0 z "},"ź":{"ha":685,"x_min":56,"x_max":642,"o":"m 56 0 l 56 85 l 493 599 l 60 599 l 60 694 l 631 694 l 631 610 l 194 96 l 642 96 l 642 0 l 56 0 m 364 1042 l 485 1042 l 349 810 l 258 810 l 364 1042 z "},"ž":{"ha":685,"x_min":56,"x_max":642,"o":"m 56 0 l 56 85 l 493 599 l 60 599 l 60 694 l 631 694 l 631 610 l 194 96 l 642 96 l 642 0 l 56 0 m 547 1042 l 389 810 l 264 810 l 106 1042 l 207 1042 l 326 882 l 446 1042 l 547 1042 z "},"ż":{"ha":685,"x_min":56,"x_max":642,"o":"m 56 0 l 56 85 l 493 599 l 60 599 l 60 694 l 631 694 l 631 610 l 194 96 l 642 96 l 642 0 l 56 0 m 326 989 q 387 966 364 989 q 410 906 410 943 q 387 845 410 868 q 326 822 364 822 q 266 845 289 822 q 243 906 243 868 q 266 966 243 943 q 326 989 289 989 z "},"ª":{"ha":475,"x_min":-1,"x_max":464,"o":"m 169 519 q 54 560 97 519 q 11 656 11 600 q 52 757 11 715 q 182 799 93 799 l 308 799 l 308 822 q 281 890 308 865 q 201 914 254 914 q 125 894 154 914 q 72 826 96 875 l -1 865 q 76 956 22 924 q 206 989 129 989 q 349 948 296 989 q 403 825 403 907 l 403 631 q 412 597 403 606 q 439 588 421 588 q 453 588 447 588 q 464 590 460 589 l 457 525 q 440 522 450 524 q 415 519 429 519 q 325 593 338 519 q 263 540 303 560 q 169 519 222 519 m 194 594 q 242 603 215 594 q 289 637 269 613 q 308 704 308 661 l 308 731 l 208 731 q 131 710 154 731 q 107 661 107 689 q 128 615 107 635 q 194 594 150 594 m 8 344 l 8 418 l 453 418 l 453 344 l 8 344 z "},"º":{"ha":444,"x_min":4,"x_max":440,"o":"m 222 519 q 65 582 125 519 q 4 754 4 644 q 65 927 4 865 q 222 989 125 989 q 380 927 319 989 q 440 754 440 865 q 380 582 440 644 q 222 519 319 519 m 222 596 q 313 638 283 596 q 343 754 343 679 q 313 872 343 829 q 222 914 283 914 q 131 872 161 914 q 101 754 101 829 q 131 638 101 679 q 222 596 161 596 m 22 344 l 22 418 l 422 418 l 422 344 l 22 344 z "},"Ω":{"ha":1039,"x_min":53,"x_max":989,"o":"m 53 0 l 53 106 l 293 106 q 130 269 192 161 q 68 514 68 378 q 126 768 68 661 q 285 934 183 875 q 521 993 388 993 q 757 934 656 993 q 916 768 858 875 q 974 514 974 661 q 912 269 974 378 q 749 106 850 161 l 989 106 l 989 0 l 606 0 l 606 128 q 797 297 738 194 q 856 529 856 399 q 812 722 856 643 q 693 843 768 801 q 521 885 618 885 q 349 843 425 885 q 230 722 274 801 q 186 529 186 643 q 247 294 186 394 q 436 128 307 193 l 436 0 l 53 0 z "},"π":{"ha":967,"x_min":22,"x_max":944,"o":"m 206 0 l 206 601 l 22 601 l 22 694 l 944 694 l 944 601 l 733 601 l 733 194 q 769 119 733 139 q 885 99 806 99 l 863 0 q 677 38 732 0 q 622 174 622 75 l 622 601 l 317 601 l 317 0 l 206 0 z "},"₀":{"ha":550,"x_min":47,"x_max":503,"o":"m 275 -265 q 47 18 47 -265 q 275 301 47 301 q 503 18 503 301 q 275 -265 503 -265 m 275 -186 q 406 18 406 -186 q 275 222 406 222 q 144 18 144 222 q 275 -186 144 -186 z "},"₁":{"ha":336,"x_min":14,"x_max":263,"o":"m 176 294 l 263 294 l 263 -257 l 165 -257 l 165 92 q 166 138 165 111 q 168 192 167 165 q 97 140 138 163 q 14 111 57 118 l 14 194 q 72 215 39 200 q 133 251 104 231 q 176 294 163 272 z "},"₂":{"ha":507,"x_min":39,"x_max":467,"o":"m 54 -257 l 54 -190 q 118 -144 86 -167 q 182 -97 150 -122 q 286 -8 249 -44 q 338 58 324 29 q 353 119 353 88 q 326 192 353 164 q 246 221 299 221 q 160 187 192 221 q 126 92 129 153 l 39 122 q 101 254 44 207 q 250 301 158 301 q 363 276 318 301 q 431 211 408 251 q 454 125 454 171 q 406 3 454 65 q 253 -132 357 -60 q 217 -156 235 -144 q 181 -181 200 -168 l 181 -182 q 224 -179 193 -181 q 269 -178 256 -178 l 467 -178 l 467 -257 l 54 -257 z "},"₃":{"ha":503,"x_min":33,"x_max":456,"o":"m 251 301 q 393 260 343 301 q 443 151 443 218 q 426 81 443 110 q 383 37 408 51 q 333 21 357 22 l 333 19 q 390 5 361 19 q 437 -37 418 -10 q 456 -108 456 -65 q 397 -222 456 -179 q 247 -265 338 -265 q 33 -132 76 -265 l 126 -90 q 246 -185 143 -185 q 324 -160 294 -185 q 354 -94 354 -136 q 323 -33 354 -50 q 236 -17 292 -17 q 225 -17 231 -17 q 213 -18 219 -17 l 213 54 q 223 53 218 53 q 232 53 228 53 q 340 136 340 53 q 315 199 340 178 q 246 221 290 221 q 140 138 157 221 l 50 169 q 123 269 68 238 q 251 301 178 301 z "},"₄":{"ha":497,"x_min":13,"x_max":469,"o":"m 469 -50 l 469 -119 l 371 -119 l 371 -257 l 289 -257 l 289 -119 l 13 -119 l 13 -68 l 265 294 l 371 294 l 371 -50 l 469 -50 m 107 -50 l 289 -50 l 289 108 q 293 214 289 163 l 289 214 q 268 177 281 199 q 244 139 256 156 l 107 -50 z "},"₅":{"ha":500,"x_min":36,"x_max":460,"o":"m 278 99 q 410 51 361 99 q 460 -71 460 3 q 400 -214 460 -164 q 250 -264 340 -264 q 120 -237 174 -264 q 36 -146 67 -210 l 124 -96 q 164 -160 135 -137 q 247 -183 193 -183 q 332 -153 300 -183 q 364 -76 364 -124 q 251 26 364 26 q 178 13 206 26 q 135 -28 150 -1 l 61 -14 l 89 294 l 431 294 l 431 214 l 160 214 l 144 50 q 190 85 161 72 q 278 99 218 99 z "},"₆":{"ha":522,"x_min":47,"x_max":479,"o":"m 274 -265 q 106 -193 165 -265 q 47 18 47 -121 q 115 231 47 160 q 285 301 183 301 q 400 274 354 301 q 469 188 446 247 l 389 146 q 353 201 379 179 q 283 222 328 222 q 203 194 235 222 q 155 122 171 167 q 139 26 139 78 l 139 8 l 140 8 q 203 68 168 50 q 288 86 238 86 q 427 38 375 86 q 479 -89 479 -10 q 424 -218 479 -171 q 274 -265 368 -265 m 275 -187 q 358 -162 328 -187 q 388 -89 388 -136 q 358 -17 388 -44 q 275 10 328 10 q 193 -21 224 10 q 163 -89 163 -51 q 193 -160 163 -133 q 275 -187 224 -187 z "},"₇":{"ha":433,"x_min":4,"x_max":425,"o":"m 142 -257 q 186 -10 142 -129 q 332 214 231 110 l 4 214 l 4 294 l 425 294 l 425 214 q 281 -4 324 108 q 239 -257 239 -117 l 142 -257 z "},"₈":{"ha":535,"x_min":47,"x_max":486,"o":"m 267 300 q 412 260 358 300 q 465 151 465 221 q 368 28 465 60 l 368 26 q 455 -23 424 11 q 486 -108 486 -57 q 427 -223 486 -181 q 267 -265 368 -265 q 107 -223 167 -265 q 47 -108 47 -181 q 78 -24 47 -58 q 165 26 110 11 l 165 28 q 94 75 119 43 q 68 151 68 107 q 122 260 68 221 q 267 300 175 300 m 267 226 q 192 205 219 226 q 164 146 164 183 q 192 86 164 108 q 267 64 219 64 q 342 86 314 64 q 369 146 369 108 q 342 205 369 183 q 267 226 315 226 m 267 -190 q 355 -166 322 -190 q 388 -101 388 -142 q 355 -35 388 -60 q 267 -11 322 -11 q 179 -35 213 -11 q 146 -101 146 -60 q 178 -166 146 -142 q 267 -190 211 -190 z "},"₉":{"ha":529,"x_min":47,"x_max":482,"o":"m 256 301 q 422 227 363 301 q 482 17 482 153 q 421 -194 482 -122 q 253 -265 360 -265 q 124 -235 176 -265 q 49 -146 72 -206 l 140 -107 q 176 -166 150 -144 q 254 -187 201 -187 q 363 -127 331 -187 q 389 21 396 -67 l 388 21 q 335 -29 378 -6 q 247 -53 293 -53 q 100 -6 153 -53 q 47 121 47 40 q 103 253 47 204 q 256 301 158 301 m 257 222 q 173 196 203 222 q 143 122 143 169 q 173 50 143 76 q 256 24 203 24 q 339 52 307 24 q 371 122 371 81 q 339 194 371 167 q 257 222 307 222 z "},"⁰":{"ha":550,"x_min":47,"x_max":503,"o":"m 275 418 q 47 701 47 418 q 275 985 47 985 q 503 701 503 985 q 275 418 503 418 m 275 497 q 406 701 406 497 q 275 906 406 906 q 144 701 144 906 q 275 497 144 497 z "},"¹":{"ha":336,"x_min":14,"x_max":263,"o":"m 176 978 l 263 978 l 263 426 l 165 426 l 165 775 q 166 822 165 794 q 168 875 167 849 q 97 824 138 846 q 14 794 57 801 l 14 878 q 72 899 39 883 q 133 935 104 914 q 176 978 163 956 z "},"²":{"ha":507,"x_min":39,"x_max":467,"o":"m 54 426 l 54 493 q 118 539 86 517 q 182 586 150 561 q 286 676 249 639 q 338 742 324 713 q 353 803 353 771 q 326 876 353 847 q 246 904 299 904 q 160 870 192 904 q 126 775 129 836 l 39 806 q 101 938 44 890 q 250 985 158 985 q 363 960 318 985 q 431 894 408 935 q 454 808 454 854 q 406 686 454 749 q 253 551 357 624 q 217 527 235 539 q 181 503 200 515 l 181 501 q 224 504 193 503 q 269 506 256 506 l 467 506 l 467 426 l 54 426 z "},"³":{"ha":503,"x_min":33,"x_max":456,"o":"m 251 985 q 393 943 343 985 q 443 835 443 901 q 426 764 443 793 q 383 720 408 735 q 333 704 357 706 l 333 703 q 390 688 361 703 q 437 646 418 674 q 456 575 456 618 q 397 461 456 504 q 247 418 338 418 q 33 551 76 418 l 126 593 q 246 499 143 499 q 324 523 294 499 q 354 589 354 547 q 323 650 354 633 q 236 667 292 667 q 225 667 231 667 q 213 665 219 667 l 213 738 q 223 736 218 736 q 232 736 228 736 q 340 819 340 736 q 315 883 340 861 q 246 904 290 904 q 140 821 157 904 l 50 853 q 123 953 68 921 q 251 985 178 985 z "},"⁴":{"ha":497,"x_min":13,"x_max":469,"o":"m 469 633 l 469 564 l 371 564 l 371 426 l 289 426 l 289 564 l 13 564 l 13 615 l 265 978 l 371 978 l 371 633 l 469 633 m 107 633 l 289 633 l 289 792 q 293 897 289 846 l 289 897 q 268 860 281 882 q 244 822 256 839 l 107 633 z "},"⁵":{"ha":500,"x_min":36,"x_max":460,"o":"m 278 782 q 410 734 361 782 q 460 613 460 686 q 400 469 460 519 q 250 419 340 419 q 120 447 174 419 q 36 538 67 474 l 124 588 q 164 523 135 546 q 247 500 193 500 q 332 530 300 500 q 364 607 364 560 q 251 710 364 710 q 178 696 206 710 q 135 656 150 682 l 61 669 l 89 978 l 431 978 l 431 897 l 160 897 l 144 733 q 190 769 161 756 q 278 782 218 782 z "},"⁶":{"ha":522,"x_min":47,"x_max":479,"o":"m 274 418 q 106 490 165 418 q 47 701 47 563 q 115 914 47 843 q 285 985 183 985 q 400 958 354 985 q 469 871 446 931 l 389 829 q 353 884 379 863 q 283 906 328 906 q 203 878 235 906 q 155 806 171 850 q 139 710 139 761 l 139 692 l 140 692 q 203 751 168 733 q 288 769 238 769 q 427 722 375 769 q 479 594 479 674 q 424 465 479 513 q 274 418 368 418 m 275 496 q 358 522 328 496 q 388 594 388 547 q 358 666 388 639 q 275 693 328 693 q 193 663 224 693 q 163 594 163 632 q 193 523 163 550 q 275 496 224 496 z "},"⁷":{"ha":433,"x_min":4,"x_max":425,"o":"m 142 426 q 186 674 142 554 q 332 897 231 793 l 4 897 l 4 978 l 425 978 l 425 897 q 281 679 324 792 q 239 426 239 567 l 142 426 z "},"⁸":{"ha":535,"x_min":47,"x_max":486,"o":"m 267 983 q 412 944 358 983 q 465 835 465 904 q 368 711 465 743 l 368 710 q 455 660 424 694 q 486 575 486 626 q 427 460 486 503 q 267 418 368 418 q 107 460 167 418 q 47 575 47 503 q 78 660 47 625 q 165 710 110 694 l 165 711 q 94 758 119 726 q 68 835 68 790 q 122 944 68 904 q 267 983 175 983 m 267 910 q 192 888 219 910 q 164 829 164 867 q 192 769 164 792 q 267 747 219 747 q 342 769 314 747 q 369 829 369 792 q 342 888 369 867 q 267 910 315 910 m 267 493 q 355 517 322 493 q 388 582 388 542 q 355 648 388 624 q 267 672 322 672 q 179 648 213 672 q 146 582 146 624 q 178 517 146 542 q 267 493 211 493 z "},"⁹":{"ha":529,"x_min":47,"x_max":482,"o":"m 256 985 q 422 910 363 985 q 482 700 482 836 q 421 490 482 561 q 253 418 360 418 q 124 448 176 418 q 49 538 72 478 l 140 576 q 176 517 150 539 q 254 496 201 496 q 363 556 331 496 q 389 704 396 617 l 388 704 q 335 654 378 678 q 247 631 293 631 q 100 677 153 631 q 47 804 47 724 q 103 936 47 888 q 256 985 158 985 m 257 906 q 173 879 203 906 q 143 806 143 853 q 173 733 143 760 q 256 707 203 707 q 339 735 307 707 q 371 806 371 764 q 339 878 371 850 q 257 906 307 906 z "},"⁄":{"ha":235,"x_min":-257,"x_max":492,"o":"m -257 0 l 382 978 l 492 978 l -147 0 l -257 0 z "},"½":{"ha":1078,"x_min":14,"x_max":1038,"o":"m 176 978 l 263 978 l 263 426 l 165 426 l 165 775 q 166 822 165 794 q 168 875 167 849 q 97 824 138 846 q 14 794 57 801 l 14 878 q 72 899 39 883 q 133 935 104 914 q 176 978 163 956 m 79 0 l 718 978 l 828 978 l 189 0 l 79 0 m 625 0 l 625 67 q 689 113 657 90 q 753 160 721 135 q 857 249 819 213 q 909 315 894 286 q 924 376 924 344 q 897 449 924 421 q 817 478 869 478 q 731 444 763 478 q 697 349 700 410 l 610 379 q 672 511 615 464 q 821 558 729 558 q 934 533 889 558 q 1002 468 979 508 q 1025 382 1025 428 q 976 260 1025 322 q 824 125 928 197 q 788 101 806 113 q 751 76 771 89 l 751 75 q 795 78 764 76 q 840 79 826 79 l 1038 79 l 1038 0 l 625 0 z "},"⅓":{"ha":1074,"x_min":14,"x_max":1026,"o":"m 176 978 l 263 978 l 263 426 l 165 426 l 165 775 q 166 822 165 794 q 168 875 167 849 q 97 824 138 846 q 14 794 57 801 l 14 878 q 72 899 39 883 q 133 935 104 914 q 176 978 163 956 m 79 0 l 718 978 l 828 978 l 189 0 l 79 0 m 822 558 q 964 517 914 558 q 1014 408 1014 475 q 997 338 1014 367 q 953 294 979 308 q 904 278 928 279 l 904 276 q 960 262 932 276 q 1008 219 989 247 q 1026 149 1026 192 q 967 35 1026 78 q 818 -8 908 -8 q 604 125 647 -8 l 697 167 q 817 72 714 72 q 895 97 865 72 q 925 163 925 121 q 894 224 925 207 q 807 240 863 240 q 796 240 801 240 q 783 239 790 240 l 783 311 q 794 310 789 310 q 803 310 799 310 q 911 393 911 310 q 886 456 911 435 q 817 478 861 478 q 711 394 728 478 l 621 426 q 694 526 639 494 q 822 558 749 558 z "},"⅔":{"ha":1244,"x_min":39,"x_max":1197,"o":"m 54 426 l 54 493 q 118 539 86 517 q 182 586 150 561 q 286 676 249 639 q 338 742 324 713 q 353 803 353 771 q 326 876 353 847 q 246 904 299 904 q 160 870 192 904 q 126 775 129 836 l 39 806 q 101 938 44 890 q 250 985 158 985 q 363 960 318 985 q 431 894 408 935 q 454 808 454 854 q 406 686 454 749 q 253 551 357 624 q 217 527 235 539 q 181 503 200 515 l 181 501 q 224 504 193 503 q 269 506 256 506 l 467 506 l 467 426 l 54 426 m 250 0 l 889 978 l 999 978 l 360 0 l 250 0 m 993 558 q 1135 517 1085 558 q 1185 408 1185 475 q 1167 338 1185 367 q 1124 294 1150 308 q 1075 278 1099 279 l 1075 276 q 1131 262 1103 276 q 1178 219 1160 247 q 1197 149 1197 192 q 1138 35 1197 78 q 989 -8 1079 -8 q 775 125 818 -8 l 868 167 q 988 72 885 72 q 1066 97 1036 72 q 1096 163 1096 121 q 1065 224 1096 207 q 978 240 1033 240 q 967 240 972 240 q 954 239 961 240 l 954 311 q 965 310 960 310 q 974 310 969 310 q 1082 393 1082 310 q 1057 456 1082 435 q 988 478 1032 478 q 882 394 899 478 l 792 426 q 865 526 810 494 q 993 558 919 558 z "},"¼":{"ha":957,"x_min":14,"x_max":929,"o":"m 176 978 l 263 978 l 263 426 l 165 426 l 165 775 q 166 822 165 794 q 168 875 167 849 q 97 824 138 846 q 14 794 57 801 l 14 878 q 72 899 39 883 q 133 935 104 914 q 176 978 163 956 m 79 0 l 718 978 l 828 978 l 189 0 l 79 0 m 929 207 l 929 138 l 831 138 l 831 0 l 749 0 l 749 138 l 472 138 l 472 189 l 725 551 l 831 551 l 831 207 l 929 207 m 567 207 l 749 207 l 749 365 q 753 471 749 419 l 749 471 q 728 434 740 456 q 704 396 715 413 l 567 207 z "},"¾":{"ha":1124,"x_min":33,"x_max":1096,"o":"m 251 985 q 393 943 343 985 q 443 835 443 901 q 426 764 443 793 q 383 720 408 735 q 333 704 357 706 l 333 703 q 390 688 361 703 q 437 646 418 674 q 456 575 456 618 q 397 461 456 504 q 247 418 338 418 q 33 551 76 418 l 126 593 q 246 499 143 499 q 324 523 294 499 q 354 589 354 547 q 323 650 354 633 q 236 667 292 667 q 225 667 231 667 q 213 665 219 667 l 213 738 q 223 736 218 736 q 232 736 228 736 q 340 819 340 736 q 315 883 340 861 q 246 904 290 904 q 140 821 157 904 l 50 853 q 123 953 68 921 q 251 985 178 985 m 246 0 l 885 978 l 994 978 l 356 0 l 246 0 m 1096 207 l 1096 138 l 997 138 l 997 0 l 915 0 l 915 138 l 639 138 l 639 189 l 892 551 l 997 551 l 997 207 l 1096 207 m 733 207 l 915 207 l 915 365 q 919 471 915 419 l 915 471 q 894 434 907 456 q 871 396 882 413 l 733 207 z "},"⅛":{"ha":1106,"x_min":14,"x_max":1057,"o":"m 176 978 l 263 978 l 263 426 l 165 426 l 165 775 q 166 822 165 794 q 168 875 167 849 q 97 824 138 846 q 14 794 57 801 l 14 878 q 72 899 39 883 q 133 935 104 914 q 176 978 163 956 m 79 0 l 718 978 l 828 978 l 189 0 l 79 0 m 838 557 q 983 517 929 557 q 1036 408 1036 478 q 939 285 1036 317 l 939 283 q 1026 234 994 268 q 1057 149 1057 200 q 998 34 1057 76 q 838 -8 939 -8 q 678 34 738 -8 q 618 149 618 76 q 649 233 618 199 q 736 283 681 268 l 736 285 q 665 332 690 300 q 639 408 639 364 q 692 517 639 478 q 838 557 746 557 m 838 483 q 763 462 790 483 q 735 403 735 440 q 763 343 735 365 q 838 321 790 321 q 913 343 885 321 q 940 403 940 365 q 913 462 940 440 q 838 483 886 483 m 838 67 q 926 91 893 67 q 958 156 958 115 q 926 222 958 197 q 838 246 893 246 q 750 222 783 246 q 717 156 717 197 q 749 91 717 115 q 838 67 782 67 z "},"⅜":{"ha":1272,"x_min":33,"x_max":1224,"o":"m 251 985 q 393 943 343 985 q 443 835 443 901 q 426 764 443 793 q 383 720 408 735 q 333 704 357 706 l 333 703 q 390 688 361 703 q 437 646 418 674 q 456 575 456 618 q 397 461 456 504 q 247 418 338 418 q 33 551 76 418 l 126 593 q 246 499 143 499 q 324 523 294 499 q 354 589 354 547 q 323 650 354 633 q 236 667 292 667 q 225 667 231 667 q 213 665 219 667 l 213 738 q 223 736 218 736 q 232 736 228 736 q 340 819 340 736 q 315 883 340 861 q 246 904 290 904 q 140 821 157 904 l 50 853 q 123 953 68 921 q 251 985 178 985 m 246 0 l 885 978 l 994 978 l 356 0 l 246 0 m 1004 557 q 1149 517 1096 557 q 1203 408 1203 478 q 1106 285 1203 317 l 1106 283 q 1192 234 1161 268 q 1224 149 1224 200 q 1165 34 1224 76 q 1004 -8 1106 -8 q 844 34 904 -8 q 785 149 785 76 q 816 233 785 199 q 903 283 847 268 l 903 285 q 831 332 857 300 q 806 408 806 364 q 859 517 806 478 q 1004 557 913 557 m 1004 483 q 929 462 957 483 q 901 403 901 440 q 929 343 901 365 q 1004 321 957 321 q 1079 343 1051 321 q 1107 403 1107 365 q 1080 462 1107 440 q 1004 483 1053 483 m 1004 67 q 1092 91 1060 67 q 1125 156 1125 115 q 1092 222 1125 197 q 1004 246 1060 246 q 917 222 950 246 q 883 156 883 197 q 916 91 883 115 q 1004 67 949 67 z "},"⅝":{"ha":1269,"x_min":36,"x_max":1221,"o":"m 278 782 q 410 734 361 782 q 460 613 460 686 q 400 469 460 519 q 250 419 340 419 q 120 447 174 419 q 36 538 67 474 l 124 588 q 164 523 135 546 q 247 500 193 500 q 332 530 300 500 q 364 607 364 560 q 251 710 364 710 q 178 696 206 710 q 135 656 150 682 l 61 669 l 89 978 l 431 978 l 431 897 l 160 897 l 144 733 q 190 769 161 756 q 278 782 218 782 m 243 0 l 882 978 l 992 978 l 353 0 l 243 0 m 1001 557 q 1147 517 1093 557 q 1200 408 1200 478 q 1103 285 1200 317 l 1103 283 q 1190 234 1158 268 q 1221 149 1221 200 q 1162 34 1221 76 q 1001 -8 1103 -8 q 842 34 901 -8 q 782 149 782 76 q 813 233 782 199 q 900 283 844 268 l 900 285 q 828 332 854 300 q 803 408 803 364 q 856 517 803 478 q 1001 557 910 557 m 1001 483 q 926 462 954 483 q 899 403 899 440 q 926 343 899 365 q 1001 321 954 321 q 1076 343 1049 321 q 1104 403 1104 365 q 1077 462 1104 440 q 1001 483 1050 483 m 1001 67 q 1090 91 1057 67 q 1122 156 1122 115 q 1090 222 1122 197 q 1001 246 1057 246 q 914 222 947 246 q 881 156 881 197 q 913 91 881 115 q 1001 67 946 67 z "},"⅞":{"ha":1119,"x_min":4,"x_max":1071,"o":"m 142 426 q 186 674 142 554 q 332 897 231 793 l 4 897 l 4 978 l 425 978 l 425 897 q 281 679 324 792 q 239 426 239 567 l 142 426 m 93 0 l 732 978 l 842 978 l 203 0 l 93 0 m 851 557 q 997 517 943 557 q 1050 408 1050 478 q 953 285 1050 317 l 953 283 q 1040 234 1008 268 q 1071 149 1071 200 q 1012 34 1071 76 q 851 -8 953 -8 q 692 34 751 -8 q 632 149 632 76 q 663 233 632 199 q 750 283 694 268 l 750 285 q 678 332 704 300 q 653 408 653 364 q 706 517 653 478 q 851 557 760 557 m 851 483 q 776 462 804 483 q 749 403 749 440 q 776 343 749 365 q 851 321 804 321 q 926 343 899 321 q 954 403 954 365 q 927 462 954 440 q 851 483 900 483 m 851 67 q 940 91 907 67 q 972 156 972 115 q 940 222 972 197 q 851 246 907 246 q 764 222 797 246 q 731 156 731 197 q 763 91 731 115 q 851 67 796 67 z "},".":{"ha":314,"x_min":67,"x_max":247,"o":"m 157 167 q 222 141 196 167 q 247 76 247 115 q 222 12 247 38 q 157 -14 196 -14 q 92 12 118 -14 q 67 76 67 38 q 92 141 67 115 q 157 167 118 167 z "},",":{"ha":314,"x_min":51,"x_max":261,"o":"m 157 163 q 235 127 208 163 q 261 32 261 92 q 221 -103 261 -37 q 110 -203 181 -168 l 51 -149 q 144 -87 110 -125 q 188 -7 178 -50 l 182 -4 q 168 -11 176 -8 q 143 -14 160 -14 q 92 6 118 -14 q 65 71 65 26 q 92 137 65 111 q 157 163 118 163 z "},":":{"ha":356,"x_min":88,"x_max":268,"o":"m 178 708 q 242 683 217 708 q 268 618 268 657 q 242 553 268 579 q 178 528 217 528 q 113 553 139 528 q 88 618 88 579 q 113 683 88 657 q 178 708 139 708 m 178 167 q 242 141 217 167 q 268 76 268 115 q 242 12 268 38 q 178 -14 217 -14 q 113 12 139 -14 q 88 76 88 38 q 113 141 88 115 q 178 167 139 167 z "},";":{"ha":356,"x_min":72,"x_max":282,"o":"m 178 163 q 256 127 229 163 q 282 32 282 92 q 242 -103 282 -37 q 131 -203 201 -168 l 72 -149 q 165 -87 131 -125 q 208 -7 199 -50 l 203 -4 q 189 -11 197 -8 q 164 -14 181 -14 q 113 6 139 -14 q 86 71 86 26 q 113 137 86 111 q 178 163 139 163 m 179 708 q 244 683 218 708 q 269 618 269 657 q 244 553 269 579 q 179 528 218 528 q 115 553 140 528 q 89 618 89 579 q 115 683 89 657 q 179 708 140 708 z "},"…":{"ha":975,"x_min":72,"x_max":903,"o":"m 813 167 q 877 141 851 167 q 903 76 903 115 q 877 12 903 38 q 813 -14 851 -14 q 748 12 774 -14 q 722 76 722 38 q 748 141 722 115 q 813 167 774 167 m 488 167 q 552 141 526 167 q 578 76 578 115 q 552 12 578 38 q 488 -14 526 -14 q 423 12 449 -14 q 397 76 397 38 q 423 141 397 115 q 488 167 449 167 m 163 167 q 227 141 201 167 q 253 76 253 115 q 227 12 253 38 q 163 -14 201 -14 q 98 12 124 -14 q 72 76 72 38 q 98 141 72 115 q 163 167 124 167 z "},"!":{"ha":350,"x_min":85,"x_max":265,"o":"m 233 978 l 233 483 l 217 289 l 133 289 l 117 483 l 117 978 l 233 978 m 175 167 q 240 142 215 167 q 265 76 265 117 q 240 11 265 36 q 175 -14 215 -14 q 110 11 135 -14 q 85 76 85 36 q 110 142 85 117 q 175 167 135 167 z "},"¡":{"ha":350,"x_min":85,"x_max":265,"o":"m 117 -283 l 117 211 l 133 406 l 217 406 l 233 211 l 233 -283 l 117 -283 m 175 528 q 110 553 135 528 q 85 618 85 578 q 110 683 85 658 q 175 708 135 708 q 240 683 215 708 q 265 618 265 658 q 240 553 265 578 q 175 528 215 528 z "},"?":{"ha":743,"x_min":-3,"x_max":713,"o":"m 376 992 q 540 960 464 992 q 665 863 617 928 q 713 700 713 799 q 646 503 713 586 q 429 392 579 419 l 429 261 l 314 261 l 314 464 q 531 542 467 488 q 596 690 596 596 q 565 799 596 756 q 483 865 535 843 q 371 888 432 888 q 96 639 113 888 l -3 696 q 115 918 14 844 q 376 992 217 992 m 371 167 q 435 141 410 167 q 461 76 461 115 q 435 12 461 38 q 371 -14 410 -14 q 306 12 332 -14 q 281 76 281 38 q 306 141 281 115 q 371 167 332 167 z "},"¿":{"ha":718,"x_min":44,"x_max":760,"o":"m 381 -297 q 217 -265 293 -297 q 92 -169 140 -233 q 44 -6 44 -104 q 111 192 44 108 q 328 303 178 275 l 328 433 l 443 433 l 443 231 q 226 153 290 207 q 161 4 161 99 q 192 -105 161 -61 q 274 -171 222 -149 q 386 -193 325 -193 q 661 56 644 -193 l 760 -1 q 642 -224 743 -150 q 381 -297 540 -297 m 386 528 q 322 553 347 528 q 296 618 296 579 q 322 683 296 657 q 386 708 347 708 q 451 683 425 708 q 476 618 476 657 q 451 553 476 579 q 386 528 425 528 z "},"·":{"ha":258,"x_min":39,"x_max":219,"o":"m 129 583 q 194 558 168 583 q 219 493 219 532 q 194 428 219 454 q 129 403 168 403 q 65 428 90 403 q 39 493 39 454 q 65 558 39 532 q 129 583 90 583 z "},"•":{"ha":556,"x_min":104,"x_max":451,"o":"m 278 300 q 153 348 203 300 q 104 468 104 396 q 153 589 104 542 q 278 636 203 636 q 403 589 354 636 q 451 468 451 542 q 403 348 451 396 q 278 300 354 300 z "},"*":{"ha":725,"x_min":39,"x_max":686,"o":"m 65 794 l 226 744 l 331 696 l 317 810 l 317 978 l 408 978 l 408 810 l 394 696 l 499 744 l 660 794 l 686 710 l 528 657 l 414 635 l 493 550 l 590 414 l 518 361 l 418 496 l 363 597 l 307 496 l 207 361 l 135 414 l 232 550 l 311 635 l 197 657 l 39 710 l 65 794 z "},"#":{"ha":911,"x_min":14,"x_max":897,"o":"m 835 367 l 835 276 l 640 276 l 594 0 l 494 0 l 540 276 l 300 276 l 254 0 l 154 0 l 200 276 l 14 276 l 14 367 l 215 367 l 256 613 l 79 613 l 79 704 l 271 704 l 315 978 l 417 978 l 371 704 l 610 704 l 654 978 l 757 978 l 711 704 l 897 704 l 897 613 l 696 613 l 656 367 l 835 367 m 315 367 l 554 367 l 594 613 l 356 613 l 315 367 z "},"/":{"ha":525,"x_min":11,"x_max":540,"o":"m 540 1097 l 115 -97 l 11 -97 l 436 1097 l 540 1097 z "},"\\":{"ha":525,"x_min":-15,"x_max":514,"o":"m -15 1097 l 89 1097 l 514 -97 l 410 -97 l -15 1097 z "},"(":{"ha":431,"x_min":57,"x_max":426,"o":"m 354 1126 l 426 1058 q 231 771 290 924 q 171 432 171 618 q 231 94 171 247 q 426 -194 290 -58 l 354 -262 q 132 44 207 -126 q 57 432 57 214 q 132 822 57 651 q 354 1126 207 992 z "},")":{"ha":431,"x_min":4,"x_max":374,"o":"m 76 -262 l 4 -194 q 200 93 140 -60 q 260 432 260 246 q 200 769 260 617 q 4 1058 140 922 l 76 1126 q 299 820 224 990 q 374 432 374 650 q 299 42 374 213 q 76 -262 224 -128 z "},"{":{"ha":432,"x_min":11,"x_max":394,"o":"m 394 -233 q 219 -181 272 -233 q 167 -47 167 -129 l 167 239 q 156 323 167 292 q 111 369 144 354 q 11 383 78 383 l 11 481 q 111 495 78 481 q 156 542 144 510 q 167 625 167 574 l 167 911 q 219 1045 167 993 q 394 1097 272 1097 l 394 1001 q 299 976 326 1001 q 271 914 271 951 l 271 615 q 242 494 271 540 q 163 432 213 449 q 242 369 213 415 q 271 249 271 324 l 271 -50 q 299 -112 271 -87 q 394 -137 326 -137 l 394 -233 z "},"}":{"ha":432,"x_min":38,"x_max":421,"o":"m 38 1097 q 213 1045 160 1097 q 265 911 265 993 l 265 625 q 276 541 265 572 q 321 495 288 510 q 421 481 354 481 l 421 383 q 321 369 354 383 q 276 322 288 354 q 265 239 265 290 l 265 -47 q 213 -181 265 -129 q 38 -233 160 -233 l 38 -137 q 133 -112 106 -137 q 161 -50 161 -87 l 161 249 q 190 369 161 324 q 269 432 219 415 q 190 494 219 449 q 161 615 161 540 l 161 914 q 133 976 161 951 q 38 1001 106 1001 l 38 1097 z "},"[":{"ha":428,"x_min":93,"x_max":410,"o":"m 410 1000 l 197 1000 l 197 -136 l 410 -136 l 410 -233 l 93 -233 l 93 1097 l 410 1097 l 410 1000 z "},"]":{"ha":428,"x_min":18,"x_max":335,"o":"m 18 -136 l 231 -136 l 231 1000 l 18 1000 l 18 1097 l 335 1097 l 335 -233 l 18 -233 l 18 -136 z "},"-":{"ha":653,"x_min":97,"x_max":556,"o":"m 556 421 l 556 306 l 97 306 l 97 421 l 556 421 z "},"­":{"ha":653,"x_min":97,"x_max":556,"o":"m 556 421 l 556 306 l 97 306 l 97 421 l 556 421 z "},"–":{"ha":867,"x_min":86,"x_max":781,"o":"m 781 415 l 781 311 l 86 311 l 86 415 l 781 415 z "},"—":{"ha":1353,"x_min":86,"x_max":1267,"o":"m 1267 415 l 1267 311 l 86 311 l 86 415 l 1267 415 z "},"_":{"ha":749,"x_min":0,"x_max":749,"o":"m 749 -135 l 749 -239 l 0 -239 l 0 -135 l 749 -135 z "},"‚":{"ha":299,"x_min":49,"x_max":258,"o":"m 154 163 q 232 127 206 163 q 258 32 258 92 q 218 -103 258 -37 q 107 -203 178 -168 l 49 -149 q 141 -87 107 -125 q 185 -7 175 -50 l 179 -4 q 165 -11 174 -8 q 140 -14 157 -14 q 89 6 115 -14 q 63 71 63 26 q 89 137 63 111 q 154 163 115 163 z "},"„":{"ha":560,"x_min":49,"x_max":519,"o":"m 154 163 q 232 127 206 163 q 258 32 258 92 q 218 -103 258 -37 q 107 -203 178 -168 l 49 -149 q 141 -87 107 -125 q 185 -7 175 -50 l 179 -4 q 165 -11 174 -8 q 140 -14 157 -14 q 89 6 115 -14 q 63 71 63 26 q 89 137 63 111 q 154 163 115 163 m 415 163 q 493 127 467 163 q 519 32 519 92 q 479 -103 519 -37 q 368 -203 439 -168 l 310 -149 q 402 -87 368 -125 q 446 -7 436 -50 l 440 -4 q 426 -11 435 -8 q 401 -14 418 -14 q 350 6 376 -14 q 324 71 324 26 q 350 137 324 111 q 415 163 376 163 z "},"“":{"ha":560,"x_min":46,"x_max":517,"o":"z "},"”":{"ha":560,"x_min":49,"x_max":519,"o":"z "},"‘":{"ha":299,"x_min":46,"x_max":256,"o":"m 150 624 q 72 659 99 624 q 46 754 46 694 q 86 889 46 824 q 197 989 126 954 l 256 935 q 163 874 197 911 q 119 793 129 836 l 125 790 q 139 797 131 794 q 164 800 147 800 q 215 780 189 800 q 242 715 242 760 q 215 649 242 675 q 150 624 189 624 z "},"’":{"ha":299,"x_min":49,"x_max":258,"o":"m 154 985 q 232 949 206 985 q 258 854 258 914 q 218 719 258 785 q 107 619 178 654 l 49 674 q 141 735 107 697 q 185 815 175 772 l 179 818 q 165 811 174 814 q 140 808 157 808 q 89 828 115 808 q 63 893 63 849 q 89 959 63 933 q 154 985 115 985 z "},"«":{"ha":629,"x_min":43,"x_max":585,"o":"m 339 640 l 161 368 l 339 96 l 218 96 l 43 368 l 218 640 l 339 640 m 585 640 l 407 368 l 585 96 l 464 96 l 289 368 l 464 640 l 585 640 z "},"»":{"ha":629,"x_min":44,"x_max":586,"o":"m 290 96 l 468 368 l 290 640 l 411 640 l 586 368 l 411 96 l 290 96 m 44 96 l 222 368 l 44 640 l 165 640 l 340 368 l 165 96 l 44 96 z "},"‹":{"ha":383,"x_min":43,"x_max":339,"o":"m 339 640 l 161 368 l 339 96 l 218 96 l 43 368 l 218 640 l 339 640 z "},"›":{"ha":383,"x_min":44,"x_max":340,"o":"m 44 96 l 222 368 l 44 640 l 165 640 l 340 368 l 165 96 l 44 96 z "},"\"":{"ha":504,"x_min":78,"x_max":435,"o":"m 435 978 l 399 635 l 313 635 l 313 978 l 435 978 m 200 978 l 164 635 l 78 635 l 78 978 l 200 978 z "},"'":{"ha":269,"x_min":78,"x_max":200,"o":"m 200 978 l 164 635 l 78 635 l 78 978 l 200 978 z "}," ":{"ha":418,"x_min":0,"x_max":0,"o":""}," ":{"ha":418,"x_min":0,"x_max":0,"o":""},"¢":{"ha":769,"x_min":60,"x_max":690,"o":"m 343 -154 l 343 -10 q 138 101 217 7 q 60 347 60 194 q 138 594 60 500 q 343 704 217 688 l 343 849 l 436 849 l 436 707 q 589 650 528 699 q 683 524 650 601 l 578 474 q 436 614 540 594 l 436 79 q 590 226 554 97 l 690 192 q 595 51 660 104 q 436 -12 531 -3 l 436 -154 l 343 -154 m 164 347 q 214 167 164 236 q 343 82 264 99 l 343 613 q 214 527 264 596 q 164 347 164 458 z "},"¤":{"ha":868,"x_min":69,"x_max":799,"o":"m 140 821 l 264 699 q 435 749 338 749 q 607 697 533 749 l 728 821 l 799 750 l 678 626 q 726 457 726 553 q 675 283 726 358 l 799 163 l 728 92 l 603 213 q 435 164 531 164 q 261 217 336 164 l 140 92 l 69 163 l 192 288 q 142 457 142 361 q 193 629 142 556 l 69 750 l 140 821 m 435 649 q 304 594 356 649 q 253 457 253 540 q 304 318 253 372 q 435 264 356 264 q 564 318 513 264 q 615 457 615 372 q 564 594 615 540 q 435 649 513 649 z "},"$":{"ha":856,"x_min":15,"x_max":785,"o":"m 365 -149 l 365 4 q 150 74 238 17 q 15 211 63 132 l 113 292 q 216 170 154 218 q 365 110 278 122 l 365 442 l 301 456 q 156 515 210 476 q 81 604 103 554 q 58 707 58 654 q 95 836 58 778 q 201 932 132 894 q 365 978 269 969 l 365 1126 l 465 1126 l 465 976 q 775 778 668 957 l 683 704 q 585 818 636 778 q 465 869 533 858 l 465 535 l 542 518 q 726 433 667 490 q 785 278 785 375 q 699 88 785 163 q 465 3 613 13 l 465 -149 l 365 -149 m 338 564 l 365 558 l 365 874 q 221 820 267 867 q 175 713 175 774 q 217 615 175 649 q 338 564 260 582 m 522 406 l 465 418 l 465 107 q 613 155 557 114 q 668 267 668 196 q 638 349 668 311 q 522 406 607 388 z "},"€":{"ha":931,"x_min":15,"x_max":899,"o":"m 15 319 l 15 413 l 132 413 q 129 489 129 450 q 131 543 129 517 l 15 543 l 15 635 l 143 635 q 281 898 176 803 q 535 993 385 993 q 755 934 668 993 q 881 765 842 875 l 771 711 q 690 841 747 794 q 543 888 633 888 q 364 821 438 888 q 261 635 290 754 l 618 635 l 585 543 l 247 543 q 246 489 246 517 q 250 413 246 449 l 557 413 l 526 319 l 265 319 q 364 151 294 211 q 543 90 433 90 q 694 140 631 90 q 782 286 757 189 l 899 250 q 762 53 857 121 q 539 -15 667 -15 q 281 74 382 -15 q 146 319 181 163 l 15 319 z "},"ƒ":{"ha":622,"x_min":-78,"x_max":606,"o":"m 547 556 l 547 460 l 326 460 l 258 32 q 50 -178 225 -178 q -18 -171 8 -178 q -78 -144 -44 -164 l -61 -44 q 40 -76 -17 -76 q 147 43 129 -76 l 214 460 l 19 460 l 19 556 l 229 556 l 269 811 q 478 1021 303 1021 q 546 1014 519 1021 q 606 988 572 1007 l 589 888 q 488 919 544 919 q 381 800 399 919 l 342 556 l 547 556 z "},"₺":{"ha":868,"x_min":4,"x_max":815,"o":"m 556 572 l 556 474 l 276 357 l 276 97 l 425 97 q 704 396 704 97 l 815 396 q 713 98 808 196 q 439 0 617 0 l 167 0 l 167 311 l 4 243 l 4 340 l 167 408 l 167 539 l 4 471 l 4 569 l 167 639 l 167 978 l 276 978 l 276 685 l 556 803 l 556 703 l 276 585 l 276 454 l 556 572 z "},"₽":{"ha":894,"x_min":14,"x_max":832,"o":"m 156 0 l 156 174 l 14 174 l 14 267 l 156 267 l 156 396 l 14 396 l 14 489 l 156 489 l 156 978 l 503 978 q 743 898 654 978 q 832 682 832 818 q 742 472 832 547 q 503 396 651 396 l 267 396 l 267 267 l 538 267 l 538 174 l 267 174 l 267 0 l 156 0 m 267 489 l 485 489 q 657 538 601 489 q 713 682 713 588 q 485 874 713 874 l 267 874 l 267 489 z "},"£":{"ha":811,"x_min":-12,"x_max":782,"o":"m 146 -14 q 31 19 74 -14 q -12 111 -12 53 q 35 208 -12 172 q 164 243 83 243 q 233 236 201 243 q 292 217 265 229 q 292 229 292 222 q 246 413 292 321 l 42 413 l 42 507 l 193 507 q 147 613 161 567 q 133 704 133 658 q 175 858 133 793 q 288 958 217 922 q 446 993 360 993 q 637 933 564 993 q 736 763 710 874 l 631 707 q 572 838 614 789 q 443 888 529 888 q 303 841 353 888 q 254 706 254 794 q 268 619 254 658 q 313 514 282 579 l 315 507 l 614 507 l 614 413 l 356 413 q 382 319 372 364 q 392 233 392 274 q 385 163 392 196 q 467 110 425 133 q 565 88 508 88 q 642 121 614 88 q 672 231 671 154 l 782 231 q 728 50 782 114 q 581 -14 675 -14 q 453 15 510 -14 q 349 78 397 44 q 146 -14 283 -14 m 89 114 q 108 78 89 92 q 161 65 128 65 q 269 128 235 65 q 217 151 243 142 q 161 160 190 160 q 106 147 122 160 q 89 114 89 135 z "},"¥":{"ha":767,"x_min":-22,"x_max":789,"o":"m 72 192 l 72 283 l 332 283 l 332 413 l 72 413 l 72 507 l 289 507 l -22 978 l 115 978 l 389 549 l 667 978 l 789 978 l 479 507 l 696 507 l 696 413 l 436 413 l 436 283 l 696 283 l 696 192 l 436 192 l 436 0 l 332 0 l 332 192 l 72 192 z "},"∙":{"ha":269,"x_min":44,"x_max":225,"o":"m 135 597 q 199 572 174 597 q 225 507 225 546 q 199 442 225 468 q 135 417 174 417 q 70 442 96 417 q 44 507 44 468 q 70 572 44 546 q 135 597 96 597 z "},"∕":{"ha":525,"x_min":11,"x_max":540,"o":"m 540 1097 l 115 -97 l 11 -97 l 436 1097 l 540 1097 z "},"+":{"ha":800,"x_min":63,"x_max":738,"o":"m 738 525 l 738 421 l 453 421 l 453 128 l 349 128 l 349 421 l 63 421 l 63 525 l 349 525 l 349 817 l 453 817 l 453 525 l 738 525 z "},"−":{"ha":800,"x_min":63,"x_max":738,"o":"m 738 525 l 738 421 l 63 421 l 63 525 l 738 525 z "},"×":{"ha":782,"x_min":85,"x_max":697,"o":"m 158 168 l 85 242 l 318 475 l 85 707 l 158 781 l 392 549 l 624 781 l 697 707 l 465 475 l 697 242 l 624 168 l 392 401 l 158 168 z "},"÷":{"ha":800,"x_min":63,"x_max":738,"o":"m 400 833 q 465 808 439 833 q 490 743 490 782 q 465 678 490 704 q 400 653 439 653 q 335 678 361 653 q 310 743 310 704 q 335 808 310 782 q 400 833 361 833 m 738 525 l 738 421 l 63 421 l 63 525 l 738 525 m 400 290 q 465 265 439 290 q 490 200 490 239 q 465 135 490 161 q 400 110 439 110 q 335 135 361 110 q 310 200 310 161 q 335 265 310 239 q 400 290 361 290 z "},"=":{"ha":783,"x_min":61,"x_max":722,"o":"m 722 646 l 722 542 l 61 542 l 61 646 l 722 646 m 722 368 l 722 264 l 61 264 l 61 368 l 722 368 z "},"≠":{"ha":783,"x_min":61,"x_max":722,"o":"m 722 361 l 722 264 l 351 264 l 281 122 l 171 122 l 242 264 l 61 264 l 61 361 l 290 361 l 385 549 l 61 549 l 61 646 l 433 646 l 504 788 l 614 788 l 543 646 l 722 646 l 722 549 l 494 549 l 400 361 l 722 361 z "},">":{"ha":783,"x_min":51,"x_max":713,"o":"m 51 826 l 713 514 l 713 385 l 51 72 l 51 186 l 624 447 l 51 710 l 51 826 z "},"<":{"ha":783,"x_min":71,"x_max":732,"o":"m 732 72 l 71 385 l 71 514 l 732 826 l 732 713 l 160 451 l 732 189 l 732 72 z "},"≥":{"ha":783,"x_min":47,"x_max":715,"o":"m 47 174 l 47 292 l 628 526 l 47 760 l 47 878 l 715 594 l 715 457 l 47 174 m 715 -1 l 47 -1 l 47 103 l 715 103 l 715 -1 z "},"≤":{"ha":783,"x_min":68,"x_max":736,"o":"m 736 174 l 68 457 l 68 594 l 736 878 l 736 760 l 156 526 l 736 292 l 736 174 m 68 -1 l 68 103 l 736 103 l 736 -1 l 68 -1 z "},"±":{"ha":783,"x_min":54,"x_max":729,"o":"m 729 601 l 729 497 l 444 497 l 444 213 l 340 213 l 340 497 l 54 497 l 54 601 l 340 601 l 340 888 l 444 888 l 444 601 l 729 601 m 729 103 l 729 -1 l 54 -1 l 54 103 l 729 103 z "},"≈":{"ha":783,"x_min":54,"x_max":729,"o":"m 550 522 q 469 537 508 522 q 392 571 429 551 q 316 605 354 590 q 238 619 278 619 q 136 601 176 619 q 54 543 96 583 l 54 644 q 138 703 99 685 q 238 721 178 721 q 322 706 282 721 q 401 672 363 692 q 476 638 439 653 q 551 624 514 624 q 640 639 597 624 q 729 700 682 654 l 729 599 q 550 522 649 522 m 550 244 q 469 259 508 244 q 392 293 429 274 q 316 327 354 313 q 238 342 278 342 q 136 324 176 342 q 54 265 96 306 l 54 367 q 138 425 99 407 q 238 443 178 443 q 322 428 282 443 q 401 394 363 414 q 476 360 439 375 q 551 346 514 346 q 640 361 597 346 q 729 422 682 376 l 729 321 q 550 244 649 244 z "},"~":{"ha":694,"x_min":32,"x_max":663,"o":"m 663 567 q 482 360 646 360 q 400 375 435 360 q 338 411 365 390 q 284 447 311 432 q 224 463 257 463 q 167 435 188 463 q 138 360 146 407 l 32 360 q 214 567 49 567 q 294 551 260 567 q 357 515 329 536 q 412 479 385 494 q 471 464 439 464 q 528 492 507 464 q 557 567 549 519 l 663 567 z "},"¬":{"ha":800,"x_min":63,"x_max":738,"o":"m 738 525 l 738 215 l 626 215 l 626 421 l 63 421 l 63 525 l 738 525 z "},"^":{"ha":722,"x_min":10,"x_max":713,"o":"m 10 457 l 308 978 l 414 978 l 713 457 l 600 457 l 361 883 l 122 457 l 10 457 z "},"∞":{"ha":1175,"x_min":71,"x_max":1104,"o":"m 300 728 q 442 681 378 728 q 593 531 507 633 q 694 640 653 600 q 764 698 735 679 q 819 722 793 717 q 875 728 844 728 q 990 695 938 728 q 1073 600 1042 663 q 1104 450 1104 538 q 1073 301 1104 363 q 990 206 1042 239 q 875 172 938 172 q 779 194 824 172 q 688 260 735 215 q 581 372 640 304 q 485 265 524 306 q 418 205 447 225 q 361 178 389 185 q 300 172 333 172 q 185 206 238 172 q 102 301 133 239 q 71 450 71 363 q 102 600 71 538 q 185 695 133 663 q 300 728 238 728 m 878 644 q 835 638 854 644 q 794 613 817 632 q 738 558 771 594 q 653 458 704 521 q 783 325 731 367 q 879 283 836 283 q 960 331 925 283 q 996 464 996 379 q 960 597 996 550 q 878 644 924 644 m 179 436 q 217 306 179 350 q 301 261 256 261 q 352 273 328 261 q 414 324 376 285 q 519 442 451 363 q 425 544 463 506 q 358 599 388 582 q 297 617 329 617 q 215 569 251 617 q 179 436 179 522 z "},"∫":{"ha":582,"x_min":11,"x_max":572,"o":"m 444 1053 q 524 1043 499 1053 q 572 1019 550 1033 l 556 919 q 514 942 538 933 q 454 951 490 951 q 379 924 411 951 q 347 832 347 896 l 347 32 q 292 -119 347 -61 q 139 -178 236 -178 q 60 -168 85 -178 q 11 -144 35 -158 l 28 -44 q 71 -67 47 -58 q 129 -76 94 -76 q 204 -49 172 -76 q 236 43 236 -21 l 236 843 q 292 994 236 936 q 444 1053 347 1053 z "},"Ω":{"ha":1040,"x_min":53,"x_max":989,"o":"m 53 0 l 53 106 l 293 106 q 130 269 192 161 q 68 514 68 378 q 126 768 68 661 q 285 934 183 875 q 521 993 388 993 q 757 934 656 993 q 916 768 858 875 q 974 514 974 661 q 912 269 974 378 q 749 106 850 161 l 989 106 l 989 0 l 606 0 l 606 128 q 797 297 738 194 q 856 529 856 399 q 812 722 856 643 q 693 843 768 801 q 521 885 618 885 q 349 843 425 885 q 230 722 274 801 q 186 529 186 643 q 247 294 186 394 q 436 128 307 193 l 436 0 l 53 0 z "},"∆":{"ha":965,"x_min":28,"x_max":938,"o":"m 28 0 l 28 108 l 422 978 l 540 978 l 938 108 l 938 0 l 28 0 m 147 106 l 814 106 l 482 843 l 147 106 z "},"∏":{"ha":964,"x_min":122,"x_max":842,"o":"m 122 -178 l 122 978 l 842 978 l 842 -178 l 726 -178 l 726 871 l 238 871 l 238 -178 l 122 -178 z "},"∑":{"ha":829,"x_min":53,"x_max":769,"o":"m 769 978 l 769 874 l 203 874 l 656 411 l 656 389 l 197 -74 l 769 -74 l 769 -178 l 53 -178 l 53 -67 l 510 399 l 53 867 l 53 978 l 769 978 z "},"√":{"ha":850,"x_min":0,"x_max":906,"o":"m 346 0 l 144 492 l 0 492 l 0 596 l 213 596 l 401 121 l 797 1136 l 906 1136 l 456 0 l 346 0 z "},"µ":{"ha":808,"x_min":101,"x_max":707,"o":"m 101 -269 l 101 694 l 213 694 l 213 269 q 258 128 213 172 q 388 83 304 83 q 490 108 443 83 q 567 186 538 132 q 596 329 596 240 l 596 694 l 707 694 l 707 0 l 617 0 l 607 113 q 513 18 572 50 q 382 -14 453 -14 q 285 3 329 -14 q 213 57 240 19 l 213 -269 l 101 -269 z "},"∂":{"ha":815,"x_min":38,"x_max":753,"o":"m 364 -15 q 194 28 268 -15 q 79 146 121 71 q 38 317 38 221 q 81 487 38 413 q 199 603 124 561 q 369 646 274 646 q 640 513 551 646 q 602 731 638 649 q 507 850 567 813 q 371 888 447 888 q 237 854 286 888 q 149 768 188 821 l 64 844 q 192 950 114 907 q 375 993 271 993 q 661 859 569 993 q 753 489 753 725 q 654 115 753 244 q 364 -15 556 -15 m 154 318 q 216 151 154 213 q 374 89 278 89 q 545 151 483 89 q 629 335 607 214 q 534 489 599 435 q 368 543 469 543 q 210 482 267 543 q 154 318 154 421 z "},"%":{"ha":1219,"x_min":31,"x_max":1189,"o":"m 268 993 q 442 918 378 993 q 506 724 506 843 q 442 529 506 604 q 268 454 378 454 q 94 529 158 454 q 31 724 31 604 q 94 918 31 843 q 268 993 158 993 m 197 0 l 904 978 l 1026 978 l 319 0 l 197 0 m 268 901 q 168 853 203 901 q 133 724 133 806 q 168 594 133 642 q 268 546 203 546 q 368 594 333 546 q 403 724 403 642 q 368 853 403 806 q 268 901 333 901 m 951 -15 q 778 60 842 -15 q 714 254 714 135 q 778 449 714 374 q 951 524 842 524 q 1125 449 1061 524 q 1189 254 1189 374 q 1125 60 1189 135 q 951 -15 1061 -15 m 951 76 q 1051 124 1017 76 q 1086 254 1086 172 q 1051 384 1086 336 q 951 432 1017 432 q 851 384 886 432 q 817 254 817 336 q 851 124 817 172 q 951 76 886 76 z "},"‰":{"ha":1774,"x_min":31,"x_max":1743,"o":"m 268 993 q 442 918 378 993 q 506 724 506 843 q 442 529 506 604 q 268 454 378 454 q 94 529 158 454 q 31 724 31 604 q 94 918 31 843 q 268 993 158 993 m 197 0 l 904 978 l 1026 978 l 319 0 l 197 0 m 268 901 q 168 853 203 901 q 133 724 133 806 q 168 594 133 642 q 268 546 203 546 q 368 594 333 546 q 403 724 403 642 q 368 853 403 806 q 268 901 333 901 m 1506 -14 q 1332 61 1396 -14 q 1268 256 1268 136 q 1332 450 1268 375 q 1506 525 1396 525 q 1679 450 1615 525 q 1743 256 1743 375 q 1679 61 1743 136 q 1506 -14 1615 -14 m 951 -15 q 778 60 842 -15 q 714 254 714 135 q 778 449 714 374 q 951 524 842 524 q 1125 449 1061 524 q 1189 254 1189 374 q 1125 60 1189 135 q 951 -15 1061 -15 m 1506 78 q 1606 126 1571 78 q 1640 256 1640 174 q 1606 385 1640 338 q 1506 433 1571 433 q 1406 385 1440 433 q 1371 256 1371 338 q 1406 126 1371 174 q 1506 78 1440 78 m 951 76 q 1051 124 1017 76 q 1086 254 1086 172 q 1051 384 1086 336 q 951 432 1017 432 q 851 384 886 432 q 817 254 817 336 q 851 124 817 172 q 951 76 886 76 z "},"◊":{"ha":794,"x_min":39,"x_max":760,"o":"m 338 0 l 39 489 l 338 978 l 463 978 l 760 489 l 463 0 l 338 0 m 400 101 l 632 489 l 400 876 l 168 489 l 400 101 z "},"@":{"ha":1275,"x_min":64,"x_max":1219,"o":"m 644 -239 q 340 -167 471 -239 q 136 37 208 -94 q 64 342 64 168 q 109 588 64 476 q 236 780 154 699 q 429 905 318 861 q 674 949 540 949 q 906 906 804 949 q 1077 789 1007 864 q 1183 617 1147 714 q 1219 411 1219 519 q 1179 203 1219 290 q 1075 68 1139 115 q 938 21 1011 21 q 827 60 863 21 q 797 158 792 99 q 706 65 767 100 q 579 31 644 31 q 452 65 507 31 q 367 162 397 100 q 336 304 336 224 q 377 492 336 408 q 490 626 418 576 q 653 675 561 675 q 790 633 735 675 q 863 522 844 592 l 896 663 l 994 663 l 889 210 q 884 184 886 196 q 882 161 882 172 q 902 110 882 122 q 947 99 922 99 q 1040 133 997 99 q 1110 238 1083 168 q 1138 411 1138 308 q 1081 644 1138 542 q 922 807 1025 747 q 678 867 818 867 q 407 802 525 867 q 223 619 289 738 q 157 342 157 501 q 222 76 157 188 q 397 -97 286 -36 q 644 -157 507 -157 q 831 -127 763 -157 q 944 -62 899 -97 l 993 -131 q 909 -184 956 -160 q 799 -224 863 -208 q 644 -239 735 -239 m 611 115 q 718 153 669 115 q 795 258 767 192 q 824 406 824 324 q 778 539 824 489 q 660 589 733 589 q 543 551 594 589 q 463 450 492 514 q 435 306 435 386 q 481 165 435 214 q 611 115 526 115 z "},"&":{"ha":861,"x_min":35,"x_max":881,"o":"m 349 -15 q 119 60 204 -15 q 35 258 35 135 q 55 365 35 313 q 125 464 75 418 q 263 546 175 510 q 195 641 218 603 q 164 709 172 679 q 156 774 156 739 q 182 878 156 828 q 263 960 208 928 q 400 993 317 993 q 514 967 464 993 q 594 897 564 942 q 624 790 624 851 q 608 697 624 742 q 548 608 592 651 q 422 519 504 565 q 467 463 443 493 q 518 399 490 433 q 584 317 554 354 q 639 250 614 281 q 686 372 669 306 q 697 522 703 438 l 797 508 q 779 337 801 426 q 706 175 757 247 q 799 99 763 117 q 881 82 836 82 l 867 -15 q 796 -8 829 -15 q 726 24 763 0 q 640 96 689 49 q 513 14 586 43 q 349 -15 440 -15 m 272 779 q 278 733 272 756 q 304 679 285 711 q 364 596 324 647 q 477 678 439 638 q 515 783 515 719 q 485 865 515 836 q 400 893 454 893 q 303 860 335 893 q 272 779 272 826 m 153 267 q 213 132 153 178 q 364 86 272 86 q 483 107 433 86 q 572 168 532 128 q 512 237 544 199 q 442 322 479 275 q 375 404 406 367 q 319 474 344 442 q 215 410 251 442 q 166 344 179 379 q 153 267 153 308 z "},"¶":{"ha":857,"x_min":29,"x_max":758,"o":"m 381 -233 l 381 326 q 196 367 275 326 q 73 482 117 408 q 29 651 29 556 q 76 824 29 750 q 210 938 124 897 q 410 978 296 978 l 758 978 l 758 -233 l 661 -233 l 661 885 l 482 885 l 482 -233 l 381 -233 m 381 419 l 381 885 q 199 822 263 885 q 135 651 135 758 q 199 481 135 543 q 381 419 263 419 z "},"§":{"ha":775,"x_min":15,"x_max":761,"o":"m 367 -92 q 168 -51 244 -92 q 53 50 92 -10 l 139 121 q 224 35 168 68 q 374 1 281 1 q 518 36 467 1 q 569 131 569 71 q 546 190 569 165 q 469 225 522 215 l 235 271 q 68 344 121 293 q 15 471 15 394 q 54 574 15 531 q 160 635 93 618 q 118 695 131 661 q 106 768 106 729 q 142 884 106 833 q 246 963 179 935 q 401 992 313 992 q 574 957 499 992 q 696 854 649 922 l 610 788 q 519 871 571 846 q 397 896 467 896 q 259 863 308 896 q 210 776 210 829 q 233 707 210 736 q 332 665 256 678 l 528 632 q 670 589 619 617 q 741 524 721 561 q 761 439 761 486 q 728 335 761 383 q 622 265 696 286 q 660 208 649 240 q 672 139 672 175 q 635 20 672 72 q 530 -62 599 -32 q 367 -92 461 -92 m 485 328 q 561 306 528 321 q 656 413 656 332 q 628 485 656 453 q 511 533 600 518 l 311 568 q 215 597 256 578 q 145 556 171 582 q 119 490 119 529 q 152 416 119 450 q 267 367 185 382 l 485 328 z "},"©":{"ha":1144,"x_min":67,"x_max":1078,"o":"m 572 -15 q 367 23 460 -15 q 206 130 274 61 q 103 290 139 199 q 67 489 67 382 q 103 688 67 596 q 206 848 139 779 q 367 955 274 917 q 572 993 460 993 q 778 955 685 993 q 938 848 871 917 q 1041 688 1004 779 q 1078 489 1078 596 q 1041 290 1078 382 q 938 130 1004 199 q 778 23 871 61 q 572 -15 685 -15 m 572 78 q 784 132 693 78 q 926 280 875 186 q 978 489 978 374 q 926 697 978 604 q 784 845 875 790 q 572 900 693 900 q 361 845 453 900 q 218 697 269 790 q 167 489 167 604 q 218 281 167 374 q 361 133 269 188 q 572 78 453 78 m 578 211 q 438 245 499 211 q 342 341 376 279 q 308 486 308 403 q 383 686 308 613 q 578 760 458 760 q 725 722 667 760 q 814 615 783 683 l 721 569 q 576 671 682 671 q 456 622 504 671 q 408 486 408 572 q 456 351 408 401 q 576 301 504 301 q 733 399 690 301 l 819 365 q 733 256 792 300 q 578 211 674 211 z "},"®":{"ha":1144,"x_min":67,"x_max":1078,"o":"m 572 -15 q 367 23 460 -15 q 206 130 274 61 q 103 290 139 199 q 67 489 67 382 q 103 688 67 596 q 206 848 139 779 q 367 955 274 917 q 572 993 460 993 q 778 955 685 993 q 938 849 871 917 q 1041 689 1004 781 q 1078 489 1078 597 q 1041 290 1078 382 q 938 130 1004 199 q 778 23 871 61 q 572 -15 685 -15 m 572 78 q 784 132 693 78 q 926 280 875 186 q 978 489 978 374 q 926 697 978 604 q 784 845 875 790 q 572 900 693 900 q 361 845 453 900 q 218 697 269 790 q 167 489 167 604 q 218 281 167 374 q 361 133 269 188 q 572 78 453 78 m 367 213 l 367 760 l 597 760 q 741 714 683 760 q 799 586 799 668 q 763 481 799 524 q 667 422 726 439 l 821 213 l 708 213 l 564 414 l 463 414 l 463 213 l 367 213 m 463 496 l 592 496 q 700 586 700 496 q 672 655 700 633 q 592 676 643 676 l 463 676 l 463 496 z "},"™":{"ha":1067,"x_min":28,"x_max":990,"o":"m 404 978 l 404 903 l 265 903 l 265 519 l 168 519 l 168 903 l 28 903 l 28 978 l 404 978 m 990 978 l 990 519 l 894 519 l 894 739 l 904 860 l 903 860 l 890 822 l 776 519 l 707 519 l 592 822 l 579 860 l 578 860 l 588 739 l 588 519 l 492 519 l 492 978 l 614 978 l 708 728 l 740 639 l 743 639 l 774 728 l 869 978 l 990 978 z "},"°":{"ha":583,"x_min":56,"x_max":528,"o":"m 292 531 q 170 560 224 531 q 86 642 117 590 q 56 760 56 693 q 86 878 56 826 q 170 960 117 931 q 292 989 224 989 q 414 960 361 989 q 497 878 467 931 q 528 760 528 826 q 497 642 528 693 q 414 560 467 590 q 292 531 361 531 m 292 621 q 392 660 353 621 q 431 760 431 700 q 392 860 431 821 q 292 899 353 899 q 192 860 232 899 q 153 760 153 821 q 192 660 153 700 q 292 621 232 621 z "},"|":{"ha":332,"x_min":118,"x_max":214,"o":"m 214 1097 l 214 -233 l 118 -233 l 118 1097 l 214 1097 z "},"¦":{"ha":332,"x_min":118,"x_max":214,"o":"m 214 1097 l 214 560 l 118 560 l 118 1097 l 214 1097 m 214 304 l 214 -233 l 118 -233 l 118 304 l 214 304 z "},"ℓ":{"ha":450,"x_min":1,"x_max":451,"o":"m 318 -15 q 190 11 235 -15 q 129 83 146 38 q 113 182 113 128 l 113 314 q 1 267 60 285 l 1 369 q 113 421 61 389 l 113 794 q 157 942 113 892 q 282 993 201 993 q 394 949 360 993 q 429 801 429 904 q 374 583 429 697 q 214 382 319 469 l 214 197 q 243 116 214 150 q 325 82 272 82 q 387 88 357 82 q 451 103 417 93 l 443 6 q 383 -10 417 -4 q 318 -15 350 -15 m 214 801 l 214 504 q 303 647 272 568 q 333 808 333 725 q 321 882 333 861 q 276 903 308 903 q 224 871 235 903 q 214 801 214 839 z "},"†":{"ha":657,"x_min":26,"x_max":631,"o":"m 631 722 l 631 626 l 385 626 l 385 0 l 274 0 l 274 626 l 26 626 l 26 722 l 274 722 l 274 978 l 385 978 l 385 722 l 631 722 z "},"‡":{"ha":657,"x_min":26,"x_max":631,"o":"m 631 256 l 385 256 l 385 0 l 274 0 l 274 256 l 26 256 l 26 351 l 274 351 l 274 626 l 26 626 l 26 722 l 274 722 l 274 978 l 385 978 l 385 722 l 631 722 l 631 626 l 385 626 l 385 351 l 631 351 l 631 256 z "},"℮":{"ha":1125,"x_min":67,"x_max":1072,"o":"m 569 993 q 939 854 806 993 q 1072 449 1072 715 l 260 449 l 260 193 q 599 64 385 64 q 837 122 729 64 q 1025 306 944 179 l 1025 194 q 849 37 957 89 q 599 -15 740 -15 q 313 47 432 -15 q 131 223 194 110 q 67 489 67 336 q 129 755 67 642 q 305 931 192 868 q 569 993 418 993 m 569 914 q 260 788 378 914 l 260 531 l 881 531 l 881 786 q 747 881 825 847 q 569 914 668 914 z "},"̈":{"ha":0,"x_min":-242,"x_max":186,"o":"m -162 967 q -105 945 -126 967 q -83 888 -83 924 q -105 831 -83 853 q -162 808 -126 808 q -219 831 -197 808 q -242 888 -242 853 q -219 945 -242 924 q -162 967 -197 967 m 107 967 q 165 945 143 967 q 186 888 186 924 q 165 831 186 853 q 107 808 143 808 q 50 831 72 808 q 28 888 28 853 q 50 945 28 924 q 107 967 72 967 z "},"̇":{"ha":0,"x_min":-111,"x_max":56,"o":"m -28 989 q 33 966 10 989 q 56 906 56 943 q 33 845 56 868 q -28 822 10 822 q -88 845 -65 822 q -111 906 -111 868 q -88 966 -111 943 q -28 989 -65 989 z "},"̀":{"ha":0,"x_min":-196,"x_max":31,"o":"m -75 1042 l 31 810 l -60 810 l -196 1042 l -75 1042 z "},"́":{"ha":0,"x_min":-96,"x_max":131,"o":"m 10 1042 l 131 1042 l -6 810 l -96 810 l 10 1042 z "},"̋":{"ha":0,"x_min":-224,"x_max":247,"o":"m 21 810 l 126 1042 l 247 1042 l 111 810 l 21 810 m -224 810 l -118 1042 l 3 1042 l -133 810 l -224 810 z "},"̂":{"ha":0,"x_min":-249,"x_max":193,"o":"m 193 800 l 92 800 l -28 960 l -147 800 l -249 800 l -90 1032 l 35 1032 l 193 800 z "},"̌":{"ha":0,"x_min":-249,"x_max":193,"o":"m 193 1042 l 35 810 l -90 810 l -249 1042 l -147 1042 l -28 882 l 92 1042 l 193 1042 z "},"̆":{"ha":0,"x_min":-233,"x_max":178,"o":"m 178 1007 q 121 858 178 915 q -28 801 64 801 q -176 858 -119 801 q -233 1007 -233 915 l -143 1007 q -112 922 -142 958 q -28 885 -83 885 q 58 922 29 885 q 88 1007 86 958 l 178 1007 z "},"̊":{"ha":0,"x_min":-207,"x_max":142,"o":"m -32 1128 q 94 1083 46 1128 q 142 964 142 1038 q 94 844 142 890 q -32 799 46 799 q -158 844 -110 799 q -207 964 -207 890 q -158 1083 -207 1038 q -32 1128 -110 1128 m -32 1060 q -103 1033 -75 1060 q -131 964 -131 1006 q -103 895 -131 922 q -32 868 -75 868 q 39 895 11 868 q 67 964 67 922 q 39 1033 67 1006 q -32 1060 11 1060 z "},"̃":{"ha":0,"x_min":-281,"x_max":222,"o":"m 222 996 q 67 810 207 810 q 1 824 28 810 q -46 857 -26 839 q -84 890 -65 875 q -125 904 -103 904 q -171 878 -156 904 q -193 808 -186 853 l -281 808 q -235 947 -274 900 q -124 994 -197 994 q -59 980 -86 994 q -12 947 -32 965 q 26 915 8 929 q 65 900 44 900 q 113 926 97 900 q 135 996 128 951 l 222 996 z "},"̄":{"ha":0,"x_min":-256,"x_max":200,"o":"m 200 921 l 200 828 l -256 828 l -256 921 l 200 921 z "},"̧":{"ha":0,"x_min":-194,"x_max":106,"o":"m -104 6 l -46 40 q 71 -31 36 14 q 106 -137 106 -76 q 58 -251 106 -204 q -62 -299 11 -299 q -138 -287 -106 -299 q -194 -258 -171 -276 l -168 -178 q -127 -200 -149 -190 q -75 -210 -106 -210 q -11 -185 -36 -210 q 14 -112 14 -160 q -12 -50 14 -76 q -104 6 -39 -24 z "},"̨":{"ha":0,"x_min":-290,"x_max":-24,"o":"m -126 -299 q -248 -259 -206 -299 q -290 -156 -290 -219 q -241 -32 -290 -78 q -89 51 -192 14 l -28 22 q -142 -33 -104 -6 q -191 -87 -179 -60 q -203 -143 -203 -114 q -179 -199 -203 -179 q -117 -218 -156 -218 q -40 -203 -75 -218 l -24 -276 q -69 -292 -42 -286 q -126 -299 -97 -299 z "},"¨":{"ha":694,"x_min":106,"x_max":533,"o":"m 185 967 q 242 945 221 967 q 264 888 264 924 q 242 831 264 853 q 185 808 221 808 q 128 831 150 808 q 106 888 106 853 q 128 945 106 924 q 185 967 150 967 m 454 967 q 512 945 490 967 q 533 888 533 924 q 512 831 533 853 q 454 808 490 808 q 397 831 419 808 q 375 888 375 853 q 397 945 375 924 q 454 967 419 967 z "},"˙":{"ha":694,"x_min":236,"x_max":403,"o":"m 319 989 q 380 966 357 989 q 403 906 403 943 q 380 845 403 868 q 319 822 357 822 q 259 845 282 822 q 236 906 236 868 q 259 966 236 943 q 319 989 282 989 z "},"`":{"ha":694,"x_min":207,"x_max":433,"o":"m 328 1042 l 433 810 l 343 810 l 207 1042 l 328 1042 z "},"´":{"ha":833,"x_min":276,"x_max":503,"o":"m 382 1042 l 503 1042 l 367 810 l 276 810 l 382 1042 z "},"˝":{"ha":694,"x_min":85,"x_max":556,"o":"m 329 810 l 435 1042 l 556 1042 l 419 810 l 329 810 m 85 810 l 190 1042 l 311 1042 l 175 810 l 85 810 z "},"ˆ":{"ha":694,"x_min":99,"x_max":540,"o":"m 540 800 l 439 800 l 319 960 l 200 800 l 99 800 l 257 1032 l 382 1032 l 540 800 z "},"ˇ":{"ha":694,"x_min":99,"x_max":540,"o":"m 540 1042 l 382 810 l 257 810 l 99 1042 l 200 1042 l 319 882 l 439 1042 l 540 1042 z "},"˘":{"ha":694,"x_min":114,"x_max":525,"o":"m 525 1007 q 468 858 525 915 q 319 801 411 801 q 171 858 228 801 q 114 1007 114 915 l 204 1007 q 235 922 206 958 q 319 885 264 885 q 405 922 376 885 q 435 1007 433 958 l 525 1007 z "},"˚":{"ha":694,"x_min":146,"x_max":494,"o":"m 321 1128 q 447 1083 399 1128 q 494 964 494 1038 q 447 844 494 890 q 321 799 399 799 q 194 844 243 799 q 146 964 146 890 q 194 1083 146 1038 q 321 1128 243 1128 m 321 1060 q 250 1033 278 1060 q 222 964 222 1006 q 250 895 222 922 q 321 868 278 868 q 392 895 364 868 q 419 964 419 922 q 392 1033 419 1006 q 321 1060 364 1060 z "},"˜":{"ha":694,"x_min":68,"x_max":571,"o":"m 571 996 q 415 810 556 810 q 349 824 376 810 q 303 857 322 839 q 265 890 283 875 q 224 904 246 904 q 178 878 193 904 q 156 808 163 853 l 68 808 q 113 947 75 900 q 225 994 151 994 q 290 980 263 994 q 337 947 317 965 q 375 915 357 929 q 414 900 393 900 q 461 926 446 900 q 483 996 476 951 l 571 996 z "},"¯":{"ha":694,"x_min":92,"x_max":547,"o":"m 547 921 l 547 828 l 92 828 l 92 921 l 547 921 z "},"¸":{"ha":694,"x_min":169,"x_max":469,"o":"m 260 6 l 318 40 q 435 -31 400 14 q 469 -137 469 -76 q 422 -251 469 -204 q 301 -299 375 -299 q 226 -287 258 -299 q 169 -258 193 -276 l 196 -178 q 237 -200 215 -190 q 289 -210 258 -210 q 353 -185 328 -210 q 378 -112 378 -160 q 351 -50 378 -76 q 260 6 325 -24 z "},"˛":{"ha":694,"x_min":186,"x_max":453,"o":"m 350 -299 q 228 -259 271 -299 q 186 -156 186 -219 q 235 -32 186 -78 q 388 51 285 14 l 449 22 q 335 -33 372 -6 q 285 -87 297 -60 q 274 -143 274 -114 q 297 -199 274 -179 q 360 -218 321 -218 q 436 -203 401 -218 l 453 -276 q 407 -292 435 -286 q 350 -299 379 -299 z "}}}
